<?xml version="1.0" encoding="UTF-8"?><svg id="Layer_4" xmlns="http://www.w3.org/2000/svg" xmlns:xlink="http://www.w3.org/1999/xlink" viewBox="0 0 1284.45 1284.45"><defs><style>.cls-1{fill:#0038a5;}.cls-2{fill:#ec2527;}.cls-3{fill:url(#radial-gradient-7);}.cls-4{fill:url(#radial-gradient-6);}.cls-5{fill:url(#radial-gradient-5);}.cls-6{fill:url(#radial-gradient-4);}.cls-7{fill:url(#radial-gradient-8);}.cls-8{fill:url(#radial-gradient-3);}.cls-9{fill:url(#radial-gradient-2);}.cls-10{fill:url(#linear-gradient-5);}.cls-11{fill:url(#linear-gradient-6);}.cls-12{fill:url(#linear-gradient-4);}.cls-13{fill:url(#linear-gradient-3);}.cls-14{fill:url(#linear-gradient-2);}.cls-15{fill:url(#radial-gradient);}.cls-16{fill:url(#linear-gradient);}.cls-17{fill:#fff;}.cls-18{fill:#07a854;}</style><linearGradient id="linear-gradient" x1="610.79" y1="293.32" x2="807.84" y2="473.72" gradientUnits="userSpaceOnUse"><stop offset="0" stop-color="#fff" stop-opacity="0"/><stop offset="1" stop-color="#fff"/></linearGradient><radialGradient id="radial-gradient" cx="535.94" cy="169.28" fx="535.94" fy="169.28" r="525.3" gradientUnits="userSpaceOnUse"><stop offset="0" stop-color="#fff"/><stop offset="1" stop-color="#fff" stop-opacity="0"/></radialGradient><radialGradient id="radial-gradient-2" cy="169.28" fy="169.28" r="525.3" xlink:href="#radial-gradient"/><linearGradient id="linear-gradient-2" x1="608.27" y1="296.07" x2="805.32" y2="476.46" xlink:href="#linear-gradient"/><radialGradient id="radial-gradient-3" cx="547.04" cy="141.52" fx="547.04" fy="141.52" r="203.28" xlink:href="#radial-gradient"/><radialGradient id="radial-gradient-4" cy="169.28" fy="169.28" r="525.3" xlink:href="#radial-gradient"/><radialGradient id="radial-gradient-5" cx="396.72" cy="212.11" fx="396.72" fy="212.11" r="557.56" gradientUnits="userSpaceOnUse"><stop offset="0" stop-color="#fff"/><stop offset="1" stop-color="#fff"/></radialGradient><radialGradient id="radial-gradient-6" r="525.3" xlink:href="#radial-gradient"/><linearGradient id="linear-gradient-3" x1="725.53" y1="553.4" x2="529.28" y2="671.57" gradientUnits="userSpaceOnUse"><stop offset="0" stop-color="#fff" stop-opacity=".2"/><stop offset="1" stop-color="#fff"/></linearGradient><radialGradient id="radial-gradient-7" cx="396.72" cy="212.11" fx="396.72" fy="212.11" r="557.56" xlink:href="#radial-gradient-5"/><linearGradient id="linear-gradient-4" x1="-104.36" y1="125.96" x2="227.76" y2="342.06" xlink:href="#linear-gradient-3"/><linearGradient id="linear-gradient-5" x1="410.88" y1="576.72" x2="412.87" y2="578.02" xlink:href="#linear-gradient-3"/><linearGradient id="linear-gradient-6" x1="-307.84" y1="-2.5" x2="91.43" y2="257.28" xlink:href="#linear-gradient-3"/><radialGradient id="radial-gradient-8" cx="547.04" cy="141.52" fx="547.04" fy="141.52" r="203.28" xlink:href="#radial-gradient"/></defs><circle class="cls-2" cx="321.97" cy="1026.71" r="95.18"/><circle class="cls-1" cx="535.47" cy="1026.71" r="95.18"/><circle class="cls-2" cx="748.98" cy="1026.71" r="95.18"/><circle class="cls-18" cx="962.48" cy="1026.71" r="95.18"/><path class="cls-17" d="M287.28,1056.59c3.07-7.29,10.3-15.01,21.72-23.15,9.9-7.09,16.31-12.17,19.23-15.23,4.47-4.78,6.71-10,6.71-15.69,0-4.62-1.28-8.47-3.85-11.54-2.56-3.07-6.23-4.6-11.01-4.6-6.54,0-10.99,2.44-13.35,7.31-1.36,2.82-2.16,7.29-2.41,13.42h-20.89c.35-9.3,2.04-16.82,5.06-22.55,5.74-10.91,15.93-16.36,30.57-16.36,11.57,0,20.78,3.21,27.63,9.62,6.84,6.41,10.27,14.89,10.27,25.45,0,8.09-2.42,15.28-7.25,21.57-3.17,4.17-8.39,8.82-15.64,13.95l-8.61,6.11c-5.39,3.82-9.08,6.59-11.06,8.29-1.99,1.71-3.66,3.7-5.01,5.96h47.73v18.93h-74.88c.2-7.84,1.88-15.01,5.05-21.49Z"/><path class="cls-17" d="M564.39,982.69c5.61,9.8,8.41,23.73,8.41,41.78s-2.8,31.95-8.41,41.7c-5.61,9.75-15.37,14.63-29.3,14.63s-23.69-4.88-29.3-14.63c-5.61-9.75-8.41-23.65-8.41-41.7s2.8-31.97,8.41-41.78c5.6-9.8,15.37-14.71,29.3-14.71s23.69,4.9,29.3,14.71ZM522.42,1053.31c2.06,6.66,6.28,9.99,12.67,9.99s10.57-3.33,12.56-9.99c1.99-6.66,2.98-16.28,2.98-28.84s-.99-22.92-2.98-29.26c-1.99-6.33-6.17-9.5-12.56-9.5s-10.61,3.17-12.67,9.5c-2.06,6.33-3.09,16.09-3.09,29.26s1.03,22.18,3.09,28.84Z"/><path class="cls-17" d="M717.6,1056.59c3.07-7.29,10.3-15.01,21.72-23.15,9.9-7.09,16.31-12.17,19.23-15.23,4.47-4.78,6.71-10,6.71-15.69,0-4.62-1.28-8.47-3.85-11.54-2.56-3.07-6.23-4.6-11.01-4.6-6.54,0-10.99,2.44-13.35,7.31-1.36,2.82-2.16,7.29-2.41,13.42h-20.89c.35-9.3,2.04-16.82,5.06-22.55,5.74-10.91,15.93-16.36,30.57-16.36,11.57,0,20.78,3.21,27.63,9.62,6.84,6.41,10.27,14.89,10.27,25.45,0,8.09-2.42,15.28-7.25,21.57-3.17,4.17-8.39,8.82-15.64,13.95l-8.61,6.11c-5.39,3.82-9.08,6.59-11.06,8.29-1.99,1.71-3.66,3.7-5.01,5.96h47.73v18.93h-74.88c.2-7.84,1.88-15.01,5.05-21.49Z"/><path class="cls-17" d="M948.37,1048.83c.85,4.68,2.48,8.28,4.89,10.82,2.41,2.54,5.92,3.81,10.53,3.81,5.32,0,9.37-1.87,12.15-5.62,2.78-3.74,4.18-8.46,4.18-14.14s-1.3-10.29-3.91-14.14c-2.61-3.85-6.67-5.77-12.19-5.77-2.61,0-4.87.33-6.77.98-3.36,1.21-5.89,3.44-7.6,6.71l-19.27-.9,7.67-60.4h60.16v18.25h-44.65l-3.91,23.91c3.31-2.16,5.9-3.59,7.76-4.3,3.11-1.16,6.9-1.73,11.37-1.73,9.04,0,16.92,3.04,23.65,9.12,6.73,6.08,10.09,14.93,10.09,26.54,0,10.11-3.24,19.13-9.72,27.07-6.48,7.94-16.17,11.92-29.08,11.92-10.4,0-18.94-2.79-25.62-8.37-6.68-5.58-10.4-13.5-11.15-23.75h21.42Z"/><path class="cls-16" d="M692.62,323.88c.07-1.22-.33-2.21-1.19-3.11-2.47-2.59-4.83-5.3-7.34-7.86-8.69-8.87-17.44-17.7-26.15-26.55-2.52-2.56-4.97-5.17-7.51-7.7-1.18-1.17-2.49-2.21-3.76-3.27-.43-.36-1.08-.07-1.12.48-.06,1.02-.1,2.04-.1,3.07-.12,25.74-.25,51.49-.34,77.23-.01,3.71.2,7.43.2,11.14,0,1.79.66,3.11,1.89,4.39,10.34,10.85,20.6,21.77,30.92,32.63,4.49,4.73,9.09,9.36,14.02,14.43.67-1.69.45-2.97.44-4.2-.1-29.59-.3-59.17.03-88.76,0-.64-.02-1.28.01-1.92Z"/><path class="cls-15" d="M591.81,411.8c.02.89.09,1.79.16,2.68.04.52.14,1.07.63,1.32.54.27.94-.14,1.3-.49.27-.27.54-.55.8-.83,14.29-14.85,28.57-29.7,42.87-44.53.77-.8,1.16-1.63,1.1-2.72-.05-.89,0-1.79,0-2.69,0-13.95,0-27.9,0-41.85h-.11c0-14.21,0-28.41,0-42.62,0-1.28-.09-2.55-.21-3.83-.07-.73-.86-.97-1.4-.41-2.15,2.19-4.24,4.44-6.41,6.61-8.32,8.33-16.71,16.59-24.99,24.96-4.14,4.18-8.05,8.6-12.17,12.79-1.4,1.42-1.88,2.89-1.68,4.82.21,2.03.21,4.09.21,6.14-.04,24.96-.09,49.91-.13,74.87,0,1.92.01,3.84.05,5.76Z"/><path class="cls-9" d="M552.47,409.9c0,.64,0,1.28,0,1.92.05,13.45.09,26.89.15,40.34,0,1.66.06,3.33.17,4.99.02.31.31.77.58.86.27.09.73-.14.98-.36.67-.59,1.26-1.27,1.9-1.9,10.03-9.91,18.84-20.95,28.69-31.02.85-.87,1.39-1.8,1.3-3.05-.05-.77,0-1.54,0-2.3,0-20.36.04-40.73-.03-61.09-.03-8.84-.29-17.67-.46-26.5-.02-.9-.07-1.79-.15-2.68-.02-.22-.17-.48-.34-.61-.38-.3-.71-.02-1.01.21-.2.15-.39.33-.57.52-6.89,7.05-13.82,14.07-20.66,21.18-3.01,3.14-5.77,6.52-8.75,9.7-1.34,1.43-1.91,2.97-1.69,4.87.04.38,0,.77,0,1.15,0,14.6,0,29.2,0,43.8h-.13Z"/><path class="cls-14" d="M698.97,328.14c-.18.09-.36.37-.37.57-.06,1.28-.09,2.56-.09,3.84,0,30.09.02,60.18.04,90.27,0,.77.07,1.54-.01,2.3-.17,1.55.54,2.61,1.59,3.68,4.48,4.57,8.85,9.25,13.31,13.84,4.1,4.23,8.24,8.42,12.41,12.58,1.08,1.08,2.33,1.99,3.54,2.93.36.29,1.11-.12,1.14-.6.07-1.15.12-2.3.12-3.45,0-14.72,0-29.45,0-44.17h.14c0-9.86,0-19.72,0-29.58,0-5.38-.03-10.76.12-16.13.07-2.24-.66-3.81-2.28-5.35-2.87-2.73-5.53-5.69-8.23-8.6-6.11-6.56-12.18-13.15-18.29-19.71-.78-.84-1.64-1.61-2.5-2.37-.14-.12-.49-.14-.66-.05Z"/><path class="cls-8" d="M618.39,262.33c.88-.22,1.23-.97,1.73-1.52,2.67-2.94,5.28-5.93,7.97-8.85,3.9-4.24,7.87-8.43,12.28-12.16,1.36-1.15,1.59-1.13,2.91.09,5.29,4.85,10.49,9.78,15.43,14.99,2.36,2.5,4.71,5.01,7.06,7.52.22-.1.43-.19.65-.29-.54-2.08-1.08-4.15-1.6-6.24-2.22-8.82-3.7-17.79-5.22-26.74-3-17.79-6.64-35.47-9.88-53.21-1.56-8.56-3.25-17.09-4.3-25.74-.58-4.83-1.44-9.62-2.19-14.42-.1-.63-.2-1.27-.42-1.87-.21-.6-.07-1.44-.82-1.8-.92.74-.81,1.69-.96,2.55-1.71,10.09-3.37,20.19-5.14,30.28-2.12,12.1-4.33,24.18-6.52,36.27-1.94,10.7-3.85,21.41-5.88,32.09-1.72,9.05-3.6,18.07-5.37,27.11-.12.62-.64,1.44.27,1.95Z"/><path class="cls-6" d="M583.26,313.18h.08c0,1.41,0,2.82,0,4.22,0,.77,0,1.53.05,2.3.01.21.18.48.36.58.17.09.52.09.67-.03.6-.48,1.17-.99,1.71-1.53,10.96-10.94,21.94-21.86,32.87-32.83,5.15-5.17,10.18-10.45,15.31-15.64,1.98-2,4.07-3.89,6.17-5.77,1.81-1.61,1.88-1.6,3.83.06,1.46,1.25,2.89,2.53,4.22,3.91,3.65,3.77,7.17,7.66,10.86,11.4,11.5,11.67,23.03,23.3,34.87,34.64,1.57,1.5,3.16,2.99,4.75,4.48.28.26.68.42,1.03.18.18-.12.31-.42.32-.65.11-3.97.2-7.93.3-11.9.02-.68-.24-1.26-.67-1.74-.59-.67-1.23-1.3-1.85-1.94-10.8-11.1-21.57-22.23-32.43-33.27-6.91-7.03-13.95-13.92-20.95-20.86-.72-.72-1.53-1.35-2.3-2.02-.35-.31-.76-.23-1.04,0-.77.66-1.52,1.37-2.23,2.1-11.03,11.24-22.05,22.48-33.07,33.72-6.9,7.04-13.79,14.08-20.72,21.09-1.69,1.71-2.97,3.43-2.19,6.08.31,1.06.05,2.29.05,3.44Z"/><path class="cls-5" d="M444.34,731.6c12.51-11.76,22.2-28.01,29.59-48.74,7.28-20.43,11.06-45.6,10.89-67.19-.27-32.94-7.44-50.03-20.13-48.39-22.62,2.93-43.43,28.16-60.43,43.54-44.8,39.27-84.99,82.8-126.39,125.56v166.96h129.26c19.68,1.26,47.25-4.84,61.61-19.42,18.19-18.47,21.22-47.99,21.31-72.22.07-18.79-3.16-43.09-11.94-60.55-7.95-15.8-19.01-22.31-33.76-19.55ZM356.98,716.19c11.64-9.76,17.35-14.42,28.63-23,6.56-4.99,11.55-6.86,15.24-6.14,3.68.72,5.48,4.88,5.46,12.44-.02,7.28-1.84,14.01-5.49,19.78-3.65,5.77-8.66,10.17-15.3,14.06-11.41,6.68-17.18,10.32-28.88,17.97.13-14.02.2-21.03.33-35.11ZM406.14,828.74c-3.48,3.9-8.88,6.28-15.7,7.04-13.78,1.53-20.7,2.48-34.64,4.57.13-14.07.2-21.08.33-35.1,13.86-4.59,20.72-6.73,34.33-10.45,13.25-3.62,21.01,1.26,20.94,16.44-.03,7.74-1.79,13.61-5.26,17.5Z"/><polygon class="cls-4" points="507.95 517.39 507.95 724.37 626.28 393.03 507.95 517.39"/><polygon class="cls-13" points="775.89 724.37 775.89 517.39 657.55 393.03 775.89 724.37"/><polygon class="cls-3" points="638.6 590.63 638.6 380.1 638.18 380.53 507.95 745.19 507.95 902.69 565.52 902.69 587.67 840.69 638.6 829.61 638.6 728.34 641.88 727.32 641.88 727.32 583.24 745.63 638.6 590.63"/><path class="cls-12" d="M960.07,819.18c17.25.32,29.71-2.76,37.81-8.08,8.09-5.32,11.37-11.94,11.38-22.38,0-9.71-2.35-20.85-7.32-34.81-4.97-13.96-12.67-29.91-25.33-48.42-14.96-21.86-33.13-41.55-52.43-59.71-41.59-39.55-83.1-79.21-123.72-119.76v377.32h77.35c.47-34.47.84-68.95,1.2-103.43.15.05.22.07.37.12,13.43,35.22,27.82,69.8,45.12,103.31h85.01c-16.75-27.98-33.92-55.47-49.43-84.16ZM937.48,745.25c-.3,7.12-2.47,11.07-6.52,12.1-4.06,1.03-10.04-.62-18.03-5.4-13.2-7.89-19.92-11.98-33.21-20.03.23-22.07.34-33.08.57-53.95,13.6,11.03,20.5,16.62,33.98,27.44,7.91,6.35,13.81,13.09,17.76,20.01,3.95,6.93,5.74,13.41,5.47,19.83Z"/><polygon class="cls-10" points="641.96 727.32 641.96 727.32 643.41 727.77 641.96 727.32"/><polygon class="cls-11" points="645.65 380.53 645.23 380.1 645.23 582.26 645.37 582.26 645.37 590.99 700.6 745.63 645.23 728.34 645.23 829.61 696.16 840.69 718.31 902.69 775.88 902.69 775.88 745.19 645.65 380.53"/><path class="cls-7" d="M618.39,262.33c.88-.22,1.23-.97,1.73-1.52,2.67-2.94,5.28-5.93,7.97-8.85,3.9-4.24,7.87-8.43,12.28-12.16,1.36-1.15,1.59-1.13,2.91.09,5.29,4.85,10.49,9.78,15.43,14.99,2.36,2.5,4.71,5.01,7.06,7.52.22-.1.43-.19.65-.29-.54-2.08-1.08-4.15-1.6-6.24-2.22-8.82-3.7-17.79-5.22-26.74-3-17.79-6.64-35.47-9.88-53.21-1.56-8.56-3.25-17.09-4.3-25.74-.58-4.83-1.44-9.62-2.19-14.42-.1-.63-.2-1.27-.42-1.87-.21-.6-.07-1.44-.82-1.8-.92.74-.81,1.69-.96,2.55-1.71,10.09-3.37,20.19-5.14,30.28-2.12,12.1-4.33,24.18-6.52,36.27-1.94,10.7-3.85,21.41-5.88,32.09-1.72,9.05-3.6,18.07-5.37,27.11-.12.62-.64,1.44.27,1.95Z"/></svg>