<?xml version="1.0" encoding="UTF-8"?><svg id="Layer_4" xmlns="http://www.w3.org/2000/svg" viewBox="0 0 1284.45 1284.45"><defs><style>.cls-1{fill:#ccc;}.cls-2{fill:#fff;}.cls-3{fill:#808183;}.cls-4{fill:#666;}.cls-5{fill:#a8a9ad;}.cls-6{fill:#333;}</style></defs><path class="cls-3" d="M696.34,418.82c-4.93-5.07-9.52-9.7-14.02-14.43-10.32-10.86-20.58-21.78-30.92-32.63-1.23-1.29-1.89-2.61-1.89-4.39,0-3.71-.21-7.43-.2-11.14.09-25.74.22-51.49.34-77.23,0-1.02.04-2.05.1-3.07.03-.55.69-.84,1.12-.48,1.27,1.07,2.59,2.1,3.76,3.27,2.54,2.53,5,5.14,7.51,7.7,8.72,8.85,17.46,17.68,26.15,26.55,2.51,2.56,4.87,5.27,7.34,7.86.86.9,1.26,1.88,1.19,3.11-.04.64,0,1.28-.01,1.92-.33,29.59-.13,59.17-.03,88.76,0,1.23.23,2.5-.44,4.2Z"/><path class="cls-1" d="M642.87,322.76c0,13.95,0,27.9,0,41.85,0,.9-.04,1.79,0,2.69.06,1.1-.33,1.92-1.1,2.72-14.3,14.83-28.58,29.68-42.87,44.52-.27.28-.53.56-.8.83-.36.35-.76.76-1.3.49-.49-.25-.59-.81-.63-1.32-.07-.89-.15-1.79-.16-2.68-.04-1.92-.05-3.84-.05-5.76.04-24.96.1-49.91.13-74.87,0-2.05,0-4.11-.21-6.14-.2-1.93.29-3.4,1.68-4.82,4.12-4.2,8.03-8.61,12.17-12.79,8.28-8.37,16.67-16.64,24.99-24.97,2.17-2.17,4.26-4.42,6.41-6.61.55-.56,1.34-.32,1.4.41.11,1.27.21,2.55.21,3.83.01,14.21,0,28.41,0,42.62.04,0,.08,0,.11,0Z"/><path class="cls-1" d="M556.8,409.96c0-14.6,0-29.2,0-43.8,0-.38.04-.77,0-1.15-.21-1.9.36-3.44,1.69-4.87,2.98-3.17,5.73-6.56,8.75-9.69,6.83-7.11,13.76-14.13,20.66-21.18.18-.18.36-.36.57-.52.3-.23.63-.51,1.01-.21.17.14.32.4.34.61.08.89.13,1.79.15,2.68.17,8.83.43,17.67.46,26.5.07,20.36.03,40.73.03,61.09,0,.77-.06,1.54,0,2.3.09,1.26-.45,2.19-1.3,3.05-9.85,10.07-18.66,21.11-28.69,31.02-.64.63-1.23,1.31-1.9,1.9-.25.22-.71.45-.98.36-.27-.09-.56-.55-.58-.86-.1-1.66-.16-3.33-.17-4.99-.06-13.45-.1-26.89-.15-40.34,0-.64,0-1.28,0-1.92.04,0,.09,0,.13,0Z"/><path class="cls-3" d="M734.86,409.99c0,14.72,0,29.45,0,44.17,0,1.15-.05,2.3-.12,3.45-.03.49-.78.89-1.14.6-1.2-.95-2.45-1.86-3.54-2.93-4.17-4.16-8.31-8.35-12.41-12.58-4.46-4.59-8.83-9.27-13.31-13.84-1.06-1.08-1.76-2.13-1.59-3.68.08-.76.01-1.53.01-2.3-.01-30.09-.03-60.18-.04-90.27,0-1.28.03-2.56.09-3.84,0-.2.19-.48.37-.57.17-.09.52-.07.66.05.86.77,1.72,1.53,2.5,2.37,6.1,6.56,12.18,13.15,18.29,19.71,2.7,2.9,5.36,5.87,8.23,8.6,1.62,1.54,2.34,3.11,2.28,5.35-.16,5.37-.12,10.75-.12,16.13-.01,9.86,0,19.72,0,29.58h-.14Z"/><path class="cls-3" d="M669.97,262.46c-2.35-2.51-4.7-5.02-7.06-7.52-4.93-5.22-10.14-10.14-15.43-15-1.32-1.22-1.56-1.23-2.91-.08-4.41,3.73-8.37,7.92-12.28,12.16-2.69,2.92-5.3,5.91-7.97,8.85-.5.55-.85,1.3-1.73,1.52-.91-.51-.39-1.33-.27-1.95,1.77-9.04,3.65-18.06,5.37-27.11,2.03-10.68,3.94-21.39,5.88-32.09,2.19-12.09,4.39-24.17,6.52-36.27,1.77-10.08,3.43-20.18,5.14-30.28.15-.86.04-1.81.96-2.55.75.36.61,1.19.82,1.8.21.6.32,1.24.42,1.87.75,4.81,1.6,9.6,2.19,14.42,1.04,8.65,2.73,17.19,4.3,25.74,3.24,17.75,6.88,35.42,9.88,53.21,1.51,8.95,3,17.92,5.22,26.74.52,2.08,1.07,4.16,1.6,6.24-.22.1-.43.19-.65.29Z"/><path class="cls-3" d="M587.46,313.24c0-1.15.26-2.38-.05-3.44-.78-2.65.5-4.36,2.19-6.08,6.93-7.01,13.82-14.06,20.72-21.09,11.02-11.24,22.04-22.48,33.07-33.72.71-.73,1.46-1.43,2.23-2.1.28-.24.69-.31,1.04,0,.77.67,1.58,1.3,2.3,2.02,7,6.94,14.04,13.84,20.95,20.86,10.86,11.04,21.62,22.18,32.43,33.27.62.64,1.26,1.28,1.85,1.94.43.49.69,1.06.67,1.74-.1,3.97-.19,7.93-.3,11.9,0,.23-.14.53-.32.65-.35.24-.75.08-1.03-.18-1.59-1.48-3.18-2.97-4.75-4.48-11.83-11.33-23.37-22.97-34.87-34.64-3.68-3.74-7.21-7.63-10.86-11.4-1.33-1.38-2.77-2.66-4.22-3.91-1.94-1.66-2.01-1.67-3.83-.06-2.1,1.87-4.19,3.77-6.17,5.77-5.13,5.18-10.16,10.47-15.31,15.64-10.93,10.97-21.91,21.9-32.87,32.83-.54.54-1.11,1.05-1.71,1.53-.15.12-.49.12-.67.03-.18-.1-.34-.37-.36-.58-.05-.76-.05-1.53-.05-2.3,0-1.41,0-2.82,0-4.22-.03,0-.06,0-.08,0Z"/><path d="M928.69,903.41c-17.3-33.52-31.69-68.09-45.12-103.31-.15-.05-.22-.07-.37-.12-.37,34.48-.74,68.95-1.2,103.43h-77.35v-377.32c40.62,40.55,82.13,80.21,123.72,119.76,19.29,18.16,37.46,37.85,52.43,59.71,12.67,18.51,20.36,34.46,25.33,48.42,4.97,13.96,7.33,25.1,7.32,34.81,0,10.45-3.28,17.07-11.38,22.38-8.1,5.32-20.56,8.4-37.81,8.08,15.51,28.7,32.68,56.19,49.43,84.16h-85.01ZM883.91,731.97c13.29,8.06,20.02,12.14,33.21,20.03,8,4.78,13.97,6.44,18.04,5.4,4.05-1.03,6.22-4.98,6.52-12.1.27-6.43-1.52-12.91-5.47-19.84-3.95-6.93-9.85-13.67-17.76-20.01-13.47-10.82-20.38-16.41-33.98-27.44-.23,20.87-.34,31.88-.57,53.95Z"/><path d="M482.3,751.21c8.78,17.46,12.01,41.76,11.94,60.55-.09,24.23-3.12,53.75-21.31,72.22-14.37,14.59-41.93,20.68-61.61,19.42h-129.26v-166.96c41.41-42.76,81.59-86.29,126.39-125.56,17-15.38,37.81-40.62,60.43-43.54,12.69-1.64,19.86,15.45,20.13,48.39.17,21.6-3.6,46.76-10.89,67.19-7.39,20.73-17.07,36.98-29.59,48.74,14.75-2.76,25.81,3.75,33.76,19.55ZM360.85,751.36c11.7-7.65,17.47-11.28,28.88-17.97,6.64-3.89,11.65-8.29,15.3-14.06,3.65-5.76,5.47-12.5,5.49-19.77.02-7.57-1.78-11.72-5.46-12.44-3.69-.72-8.68,1.15-15.24,6.14-11.28,8.58-16.99,13.24-28.63,23-.13,14.07-.2,21.09-.33,35.11ZM410.34,828.8c3.48-3.89,5.23-9.76,5.26-17.5.07-15.18-7.69-20.06-20.94-16.44-13.61,3.72-20.46,5.86-34.33,10.45-.13,14.02-.2,21.03-.33,35.1,13.94-2.09,20.86-3.04,34.64-4.57,6.82-.76,12.22-3.14,15.7-7.04Z"/><polygon class="cls-1" points="630.48 393.1 512.15 517.45 512.15 724.44 630.48 393.1"/><polygon class="cls-5" points="661.75 393.1 780.09 517.45 780.09 724.44 661.75 393.1"/><polygon points="649.85 380.59 649.43 380.16 649.43 590.67 704.8 745.7 649.43 728.4 649.43 829.68 700.37 840.75 722.51 902.75 780.08 902.75 780.08 745.25 649.85 380.59"/><polygon points="587.44 745.7 642.8 590.69 642.8 380.16 642.38 380.59 512.15 745.25 512.15 902.75 569.72 902.75 591.87 840.75 642.8 829.68 642.8 728.41 587.44 745.7"/><circle class="cls-6" cx="325.58" cy="1028.07" r="94.11"/><circle class="cls-4" cx="536.68" cy="1028.07" r="94.11"/><circle class="cls-6" cx="747.77" cy="1028.07" r="94.11"/><circle class="cls-4" cx="958.87" cy="1028.07" r="94.11"/><path class="cls-2" d="M291.28,1057.61c3.03-7.21,10.19-14.84,21.47-22.89,9.79-7.01,16.13-12.03,19.01-15.06,4.42-4.72,6.64-9.89,6.64-15.51,0-4.57-1.27-8.38-3.8-11.41-2.54-3.03-6.16-4.55-10.89-4.55-6.46,0-10.86,2.41-13.2,7.23-1.34,2.78-2.14,7.21-2.39,13.27h-20.65c.35-9.2,2.01-16.63,5-22.29,5.67-10.79,15.75-16.18,30.23-16.18,11.44,0,20.55,3.17,27.32,9.51,6.77,6.34,10.15,14.73,10.15,25.16,0,8-2.39,15.11-7.17,21.32-3.14,4.13-8.29,8.72-15.46,13.79l-8.52,6.04c-5.33,3.78-8.97,6.51-10.94,8.2-1.96,1.69-3.62,3.65-4.96,5.89h47.2v18.71h-74.04c.2-7.75,1.86-14.84,5-21.25Z"/><path class="cls-2" d="M565.27,984.54c5.54,9.69,8.31,23.46,8.31,41.31s-2.77,31.59-8.31,41.23c-5.54,9.64-15.2,14.46-28.97,14.46s-23.42-4.82-28.97-14.46c-5.54-9.64-8.31-23.39-8.31-41.23s2.77-31.61,8.31-41.31c5.54-9.69,15.2-14.54,28.97-14.54s23.42,4.85,28.97,14.54ZM523.77,1054.37c2.04,6.59,6.21,9.88,12.53,9.88s10.45-3.29,12.42-9.88c1.96-6.59,2.95-16.09,2.95-28.52s-.98-22.67-2.95-28.93c-1.96-6.26-6.1-9.4-12.42-9.4s-10.49,3.13-12.53,9.4c-2.04,6.26-3.06,15.91-3.06,28.93s1.02,21.93,3.06,28.52Z"/><path class="cls-2" d="M716.75,1057.61c3.03-7.21,10.19-14.84,21.47-22.89,9.79-7.01,16.13-12.03,19.01-15.06,4.42-4.72,6.64-9.89,6.64-15.51,0-4.57-1.27-8.38-3.8-11.41-2.54-3.03-6.16-4.55-10.89-4.55-6.46,0-10.86,2.41-13.2,7.23-1.34,2.78-2.14,7.21-2.39,13.27h-20.65c.35-9.2,2.01-16.63,5-22.29,5.67-10.79,15.75-16.18,30.23-16.18,11.44,0,20.55,3.17,27.32,9.51,6.77,6.34,10.15,14.73,10.15,25.16,0,8-2.39,15.11-7.17,21.32-3.14,4.13-8.29,8.72-15.46,13.79l-8.52,6.04c-5.33,3.78-8.97,6.51-10.94,8.2-1.96,1.69-3.62,3.65-4.96,5.89h47.2v18.71h-74.04c.2-7.75,1.86-14.84,5-21.25Z"/><path class="cls-2" d="M944.92,1049.93c.84,4.62,2.45,8.19,4.83,10.7,2.38,2.51,5.85,3.77,10.41,3.77,5.26,0,9.26-1.85,12.01-5.55,2.75-3.7,4.13-8.36,4.13-13.98s-1.29-10.18-3.87-13.98c-2.58-3.8-6.6-5.7-12.05-5.7-2.58,0-4.81.32-6.69.97-3.32,1.19-5.83,3.41-7.51,6.64l-19.05-.89,7.59-59.72h59.48v18.04h-44.15l-3.87,23.64c3.28-2.14,5.83-3.55,7.67-4.25,3.08-1.14,6.83-1.72,11.24-1.72,8.93,0,16.73,3.01,23.38,9.02,6.65,6.02,9.98,14.76,9.98,26.25,0,9.99-3.2,18.91-9.61,26.77-6.41,7.85-15.99,11.78-28.75,11.78-10.28,0-18.72-2.76-25.33-8.28s-10.28-13.35-11.02-23.49h21.17Z"/></svg>