<?xml version="1.0" encoding="UTF-8"?><svg xmlns="http://www.w3.org/2000/svg" xmlns:xlink="http://www.w3.org/1999/xlink" viewBox="0 0 1284.45 1284.45"><defs><style>.cls-1{fill:#0038a5;}.cls-2{fill:url(#radial-gradient-20);opacity:.2;}.cls-2,.cls-3{mix-blend-mode:multiply;}.cls-4{fill:#ec2527;}.cls-5{fill:url(#radial-gradient-7);}.cls-6{fill:url(#radial-gradient-6);}.cls-7{fill:url(#radial-gradient-5);}.cls-8{fill:url(#radial-gradient-4);}.cls-9{fill:url(#radial-gradient-9);}.cls-10{fill:url(#radial-gradient-8);}.cls-11{fill:url(#radial-gradient-3);}.cls-12{fill:url(#radial-gradient-2);}.cls-13{fill:#fa6024;}.cls-14{fill:url(#radial-gradient);}.cls-15{fill:#ac4596;}.cls-16{isolation:isolate;}.cls-17{fill:#6ebf3f;}.cls-18{fill:url(#radial-gradient-16);}.cls-19{fill:url(#radial-gradient-12);}.cls-20{fill:url(#radial-gradient-14);}.cls-21{fill:url(#radial-gradient-13);}.cls-22{fill:url(#radial-gradient-10);}.cls-23{fill:url(#radial-gradient-17);}.cls-24{fill:url(#radial-gradient-19);}.cls-25{fill:url(#radial-gradient-11);}.cls-26{fill:url(#radial-gradient-18);}.cls-27{fill:url(#radial-gradient-15);}.cls-28{fill:#fff;}.cls-29{fill:#f9cd0c;}.cls-30{fill:#808183;}.cls-31{fill:#a8a9ad;}.cls-32{fill:#07a854;}.cls-33{mix-blend-mode:screen;opacity:.54;}</style><radialGradient id="radial-gradient" cx="397.66" cy="195.01" fx="397.66" fy="195.01" r="557.19" gradientUnits="userSpaceOnUse"><stop offset="0" stop-color="#fff"/><stop offset="1" stop-color="#000"/></radialGradient><radialGradient id="radial-gradient-2" cx="397.66" cy="195.01" fx="397.66" fy="195.01" r="557.19" xlink:href="#radial-gradient"/><radialGradient id="radial-gradient-3" cx="397.66" cy="195.01" fx="397.66" fy="195.01" r="557.19" xlink:href="#radial-gradient"/><radialGradient id="radial-gradient-4" cx="397.66" cy="195.01" fx="397.66" fy="195.01" r="557.19" xlink:href="#radial-gradient"/><radialGradient id="radial-gradient-5" cx="397.66" cy="195.01" fx="397.66" fy="195.01" r="557.19" xlink:href="#radial-gradient"/><radialGradient id="radial-gradient-6" cx="397.66" cy="195.01" fx="397.66" fy="195.01" r="557.19" xlink:href="#radial-gradient"/><radialGradient id="radial-gradient-7" cx="397.66" cy="195.01" fx="397.66" fy="195.01" r="557.19" xlink:href="#radial-gradient"/><radialGradient id="radial-gradient-8" cx="397.66" cy="195.01" fx="397.66" fy="195.01" r="557.19" xlink:href="#radial-gradient"/><radialGradient id="radial-gradient-9" cx="397.66" cy="195.01" fx="397.66" fy="195.01" r="557.19" xlink:href="#radial-gradient"/><radialGradient id="radial-gradient-10" cx="397.66" cy="195.01" fx="397.66" fy="195.01" r="557.19" xlink:href="#radial-gradient"/><radialGradient id="radial-gradient-11" cx="397.66" cy="195.01" fx="397.66" fy="195.01" r="557.19" xlink:href="#radial-gradient"/><radialGradient id="radial-gradient-12" cx="640.09" cy="709.74" fx="640.09" fy="709.74" r="2.93" xlink:href="#radial-gradient"/><radialGradient id="radial-gradient-13" cx="406.93" cy="195.01" fx="406.93" fy="195.01" r="553.59" xlink:href="#radial-gradient"/><radialGradient id="radial-gradient-14" cx="370.11" cy="150.4" fx="370.11" fy="150.4" r="716.88" gradientUnits="userSpaceOnUse"><stop offset="0" stop-color="#000"/><stop offset="1" stop-color="#fff"/></radialGradient><radialGradient id="radial-gradient-15" cx="370.11" cy="150.4" fx="370.11" fy="150.4" r="716.88" xlink:href="#radial-gradient-14"/><radialGradient id="radial-gradient-16" cx="370.11" cy="150.4" fx="370.11" fy="150.4" r="716.88" xlink:href="#radial-gradient-14"/><radialGradient id="radial-gradient-17" cx="370.11" cy="150.4" fx="370.11" fy="150.4" r="716.88" xlink:href="#radial-gradient-14"/><radialGradient id="radial-gradient-18" cx="370.11" cy="150.4" fx="370.11" fy="150.4" r="716.88" xlink:href="#radial-gradient-14"/><radialGradient id="radial-gradient-19" cx="377.87" cy="150.4" fx="377.87" fy="150.4" r="713.7" xlink:href="#radial-gradient-14"/><radialGradient id="radial-gradient-20" cx="643.66" cy="128.1" fx="643.66" fy="128.1" r="206.15" xlink:href="#radial-gradient"/></defs><g class="cls-16"><g id="Layer_2"><path class="cls-30" d="M692.89,401.53c-4.93-5.07-9.52-9.7-14.01-14.42-10.32-10.85-20.57-21.76-30.9-32.6-1.23-1.29-1.89-2.6-1.89-4.39,0-3.71-.21-7.42-.2-11.13.09-25.73.22-51.45.34-77.18,0-1.02.04-2.04.1-3.07.03-.54.69-.83,1.11-.48,1.27,1.07,2.58,2.1,3.76,3.27,2.54,2.53,4.99,5.14,7.51,7.69,8.71,8.85,17.45,17.67,26.14,26.53,2.51,2.56,4.86,5.26,7.34,7.85.86.9,1.26,1.88,1.19,3.1-.04.64,0,1.28-.01,1.92-.33,29.57-.13,59.13-.03,88.7,0,1.23.23,2.5-.44,4.19Z"/><path class="cls-17" d="M639.46,305.53c0,13.94,0,27.88,0,41.83,0,.9-.04,1.79,0,2.69.06,1.1-.33,1.92-1.1,2.72-14.29,14.82-28.57,29.66-42.84,44.5-.27.28-.53.56-.8.83-.36.35-.76.76-1.3.49-.49-.25-.59-.81-.63-1.32-.07-.89-.15-1.79-.16-2.68-.04-1.92-.05-3.84-.05-5.75.04-24.94.1-49.88.13-74.82,0-2.05,0-4.1-.21-6.13-.2-1.93.29-3.39,1.68-4.81,4.12-4.19,8.03-8.6,12.16-12.78,8.28-8.37,16.66-16.63,24.97-24.95,2.17-2.17,4.26-4.42,6.41-6.61.55-.56,1.34-.32,1.4.41.11,1.27.21,2.55.21,3.82.01,14.2,0,28.39,0,42.59.04,0,.08,0,.11,0Z"/><path class="cls-17" d="M553.44,392.68c0-14.59,0-29.18,0-43.77,0-.38.04-.77,0-1.15-.21-1.9.35-3.44,1.69-4.86,2.98-3.17,5.73-6.55,8.74-9.69,6.83-7.11,13.75-14.12,20.64-21.16.18-.18.36-.36.57-.52.3-.23.63-.51,1.01-.21.17.14.32.4.34.61.08.89.13,1.79.15,2.68.17,8.83.43,17.66.46,26.49.07,20.35.03,40.7.03,61.05,0,.77-.06,1.54,0,2.3.09,1.26-.45,2.18-1.3,3.05-9.85,10.06-18.65,21.09-28.67,31-.64.63-1.23,1.31-1.9,1.9-.25.22-.71.44-.98.36-.27-.09-.56-.55-.58-.86-.1-1.66-.16-3.32-.17-4.99-.06-13.44-.1-26.88-.15-40.32,0-.64,0-1.28,0-1.92.04,0,.09,0,.13,0Z"/><path class="cls-30" d="M731.38,392.7c0,14.71,0,29.43,0,44.14,0,1.15-.05,2.3-.12,3.45-.03.48-.78.89-1.14.6-1.2-.95-2.45-1.86-3.53-2.93-4.17-4.16-8.3-8.35-12.4-12.57-4.45-4.59-8.82-9.27-13.3-13.83-1.06-1.08-1.76-2.13-1.59-3.68.08-.76.01-1.53.01-2.3-.01-30.07-.03-60.14-.04-90.21,0-1.28.03-2.56.09-3.83,0-.2.19-.48.37-.57.17-.09.52-.07.66.05.86.77,1.72,1.53,2.5,2.37,6.1,6.56,12.17,13.14,18.28,19.69,2.7,2.9,5.36,5.86,8.23,8.59,1.61,1.54,2.34,3.11,2.28,5.35-.16,5.37-.12,10.75-.12,16.12-.01,9.85,0,19.7,0,29.56h-.14Z"/><path class="cls-30" d="M666.54,245.27c-2.35-2.51-4.7-5.02-7.06-7.51-4.93-5.21-10.13-10.14-15.42-14.99-1.32-1.21-1.55-1.23-2.91-.08-4.41,3.73-8.37,7.91-12.27,12.15-2.69,2.92-5.3,5.91-7.96,8.85-.5.55-.85,1.3-1.73,1.52-.91-.51-.39-1.33-.27-1.95,1.77-9.03,3.65-18.05,5.37-27.09,2.03-10.68,3.94-21.38,5.88-32.07,2.19-12.08,4.39-24.16,6.51-36.25,1.77-10.08,3.43-20.17,5.14-30.26.15-.86.04-1.81.96-2.55.75.36.61,1.19.82,1.8.21.6.32,1.24.41,1.87.75,4.8,1.6,9.59,2.19,14.41,1.04,8.64,2.73,17.18,4.29,25.73,3.24,17.73,6.87,35.4,9.87,53.18,1.51,8.95,3,17.91,5.21,26.72.52,2.08,1.07,4.16,1.6,6.23-.22.1-.43.19-.65.29Z"/><path class="cls-30" d="M584.09,296.01c0-1.15.26-2.38-.05-3.44-.78-2.65.5-4.36,2.19-6.07,6.92-7.01,13.81-14.05,20.7-21.08,11.02-11.23,22.03-22.47,33.05-33.7.71-.73,1.46-1.43,2.23-2.1.28-.24.69-.31,1.04,0,.77.67,1.58,1.3,2.3,2.02,6.99,6.94,14.03,13.83,20.93,20.85,10.85,11.04,21.61,22.16,32.4,33.25.62.64,1.26,1.28,1.85,1.94.43.49.69,1.06.67,1.74-.1,3.96-.19,7.93-.3,11.89,0,.23-.14.53-.32.65-.35.24-.75.08-1.03-.18-1.59-1.48-3.18-2.97-4.75-4.47-11.82-11.33-23.35-22.95-34.84-34.62-3.68-3.73-7.2-7.62-10.85-11.39-1.33-1.38-2.76-2.66-4.22-3.91-1.94-1.66-2.01-1.67-3.82-.06-2.1,1.87-4.19,3.77-6.16,5.76-5.13,5.18-10.16,10.46-15.3,15.63-10.92,10.96-21.89,21.88-32.85,32.81-.54.54-1.11,1.05-1.71,1.53-.15.12-.49.12-.67.03-.18-.1-.34-.37-.36-.58-.05-.76-.05-1.53-.05-2.3,0-1.41,0-2.81,0-4.22-.03,0-.06,0-.08,0Z"/><path class="cls-1" d="M925.09,885.8c-17.29-33.49-31.67-68.04-45.09-103.24-.15-.05-.22-.07-.37-.12-.37,34.45-.73,68.91-1.2,103.36h-77.3v-377.08c40.6,40.52,82.07,80.16,123.64,119.68,19.28,18.15,37.44,37.82,52.39,59.67,12.66,18.5,20.35,34.44,25.32,48.39,4.97,13.95,7.32,25.08,7.31,34.78,0,10.44-3.28,17.05-11.37,22.37-8.09,5.32-20.55,8.4-37.78,8.07,15.5,28.68,32.66,56.15,49.4,84.11h-84.96ZM880.34,714.48c13.28,8.05,20,12.13,33.19,20.02,7.99,4.78,13.96,6.43,18.02,5.4,4.05-1.03,6.22-4.97,6.52-12.09.27-6.42-1.52-12.9-5.47-19.82-3.95-6.92-9.85-13.66-17.75-20-13.47-10.81-20.37-16.4-33.95-27.42-.23,20.86-.34,31.86-.57,53.91Z"/><path class="cls-13" d="M478.99,733.7c8.77,17.45,12.01,41.73,11.94,60.51-.09,24.22-3.12,53.71-21.3,72.18-14.36,14.58-41.91,20.67-61.57,19.41h-129.18v-166.85c41.38-42.74,81.54-86.23,126.31-125.48,16.99-15.37,37.79-40.59,60.39-43.51,12.68-1.64,19.85,15.44,20.11,48.36.17,21.58-3.6,46.73-10.88,67.15-7.38,20.72-17.06,36.95-29.57,48.71,14.74-2.76,25.8,3.74,33.74,19.53ZM357.62,733.85c11.7-7.64,17.46-11.28,28.86-17.96,6.63-3.88,11.64-8.28,15.29-14.05,3.65-5.76,5.46-12.49,5.48-19.76.02-7.56-1.78-11.72-5.46-12.44-3.69-.72-8.68,1.15-15.23,6.14-11.27,8.58-16.98,13.23-28.61,22.98-.13,14.06-.2,21.07-.33,35.09ZM407.08,811.24c3.47-3.89,5.23-9.75,5.26-17.49.07-15.17-7.69-20.05-20.93-16.43-13.6,3.72-20.45,5.85-34.31,10.44-.13,14.01-.2,21.02-.33,35.08,13.93-2.09,20.85-3.03,34.62-4.57,6.82-.76,12.21-3.14,15.69-7.04Z"/><polygon class="cls-29" points="627.08 375.82 508.82 500.09 508.82 706.94 627.08 375.82"/><polygon class="cls-31" points="658.33 375.82 776.59 500.09 776.59 706.94 658.33 375.82"/><polygon class="cls-15" points="646.43 363.32 646.02 362.89 646.02 573.27 701.35 728.19 646.02 710.91 646.02 812.12 696.91 823.18 719.04 885.14 776.58 885.14 776.58 727.75 646.43 363.32"/><polygon class="cls-4" points="584.06 728.19 639.38 573.29 639.38 362.89 638.97 363.32 508.82 727.75 508.82 885.14 566.36 885.14 588.49 823.18 639.38 812.12 639.38 710.91 584.06 728.19"/><path d="M319.49,940.18c1.58,2.67,1.82,5.76.59,9.28-1.88,5.36-5.65,9.52-11.47,12.44-5.82,2.93-13.3,4.4-21.95,4.4-12.96,0-25.92,0-38.89,0,9.57-20.34,19.86-40.32,29.53-60.61,11.46,0,22.93,0,34.39,0,6.87,0,11.75,1.3,14.79,3.93,3.04,2.63,3.78,6.47,1.97,11.56-1.25,3.5-3.42,6.47-6.59,8.88-3.17,2.41-6.85,4.02-10.96,4.81,4.14.87,7.01,2.64,8.59,5.31ZM287.69,928.91c3.43.01,5.16.02,8.63.03,2.02,0,3.68-.33,4.97-1.01,1.28-.68,2.23-1.73,2.85-3.14.64-1.47.63-2.56-.02-3.27-.65-.71-1.97-1.06-3.95-1.07-3.4,0-5.1-.01-8.47-.02-1.58,3.38-2.39,5.07-4.01,8.48ZM293.22,949.8c1.33-.66,2.32-1.74,2.97-3.24,1.27-2.94-.2-4.41-4.32-4.42-4.24-.01-6.33-.02-10.46-.03-1.64,3.45-2.45,5.18-4.07,8.66,4.2,0,6.34.01,10.67.02,2.14,0,3.89-.32,5.23-.99Z"/><path d="M365.6,905.71c-4.19,20.24-8.78,40.38-13.04,60.6-10.75,0-16.17,0-26.86,0,6.11-20.24,12.65-40.35,18.72-60.61,8.47,0,12.71,0,21.19,0Z"/><path d="M417.95,926.37c-.83-1.2-2.03-2.13-3.59-2.79-1.56-.66-3.47-.99-5.73-1-4.25-.01-7.63,1.16-10.19,3.52-2.56,2.36-4.08,5.58-4.46,9.7-.44,4.74.63,8.29,3.26,10.64,2.63,2.35,6.94,3.54,12.69,3.55,5.46.01,9.81-1.75,13.05-5.29-7.19-.02-10.9-.03-18.42-.05.31-5.39.47-8.08.79-13.45,11.92.03,23.84.07,35.76.11v19c-2.92,4.5-7,8.36-12.52,11.59-5.52,3.23-12.79,4.85-22.01,4.85-8.18,0-15.53-1.31-21.55-3.93-6.03-2.62-10.39-6.3-12.95-11.01-2.56-4.72-3.18-10.08-2.1-16.08,1.07-6,3.57-11.31,7.22-15.95,3.65-4.64,8.19-8.24,13.66-10.8,5.47-2.57,11.55-3.85,18.47-3.85,8.82,0,15.98,1.9,21.54,5.72s8.86,9.02,9.87,15.59c-8.9-.03-13.48-.04-22.78-.07Z"/><path d="M515.74,957.16h-22.47l-3.33,9.16h-22.18l24.66-60.6h24.37l24.56,60.6h-22.28l-3.33-9.16ZM510.6,942.87l-6.09-16.86-6.09,16.86h12.19Z"/><path d="M600.18,936.92c-1.97,3.11-4.87,5.58-8.71,7.4-3.84,1.83-8.49,2.74-13.95,2.74h-8.38v19.26h-21.13v-60.6h29.51c8.25,0,14.58,1.88,18.99,5.65,4.41,3.77,6.62,8.82,6.62,15.15,0,3.82-.98,7.29-2.95,10.4ZM581.71,926.52c0-3.71-2.19-5.56-6.57-5.56h-6v11.13h6c4.38,0,6.57-1.85,6.57-5.56Z"/><path d="M663.86,936.92c-1.97,3.11-4.87,5.58-8.71,7.4-3.84,1.83-8.49,2.74-13.95,2.74h-8.38v19.26h-21.13v-60.6h29.51c8.25,0,14.58,1.88,18.99,5.65,4.41,3.77,6.62,8.82,6.62,15.15,0,3.82-.98,7.29-2.95,10.4ZM645.4,926.52c0-3.71-2.19-5.56-6.57-5.56h-6v11.13h6c4.38,0,6.57-1.85,6.57-5.56Z"/><path d="M696.52,951.94h20.37v14.38h-41.5v-60.6h21.13v46.22Z"/><path d="M746.59,920.87v7.45h20.94v14.29h-20.94v8.56h23.8v15.15h-44.93v-60.6h44.93v15.15h-23.8Z"/><path d="M837.19,966.31c-5.56-8.78-8.24-13.16-13.5-21.86-.04,0-.06,0-.1,0,.06,8.73.09,13.11.17,21.86-8.8,0-13.13,0-21.59,0v-60.6c10.48,0,20.95-.01,31.43-.02,5.46,0,10.15.84,14.1,2.54,3.95,1.69,6.97,3.99,9.07,6.92,2.1,2.93,3.25,6.26,3.43,10.01.19,4.03-.94,7.64-3.44,10.82-2.49,3.17-6.2,5.47-11.08,6.88,5.39,7.9,10.91,15.73,16.57,23.45-10.16,0-15.19,0-25.06,0ZM823.51,931.76c3.41-.02,5.12-.04,8.56-.06,2.08-.01,3.64-.44,4.67-1.28,1.03-.83,1.52-2.14,1.49-3.9-.03-1.59-.59-2.84-1.67-3.74-1.08-.9-2.62-1.35-4.62-1.33-3.4.02-5.1.03-8.49.06.03,4.09.04,6.15.07,10.26Z"/><path d="M888.39,962.8c-6.12-2.74-11.01-6.52-14.68-11.32-3.67-4.8-5.61-10.2-5.95-16.17-.34-5.97.99-11.29,3.87-15.98,2.88-4.68,6.87-8.28,11.97-10.84,5.1-2.56,10.76-3.8,17.1-3.8s12.33,1.23,18.07,3.72c5.74,2.48,10.63,5.96,14.66,10.54,4.04,4.58,6.67,9.86,7.8,15.86,1.12,6,.5,11.51-2,16.41-2.5,4.9-6.49,8.76-11.98,11.54-5.49,2.78-11.84,4.16-18.91,4.16s-13.84-1.38-19.96-4.12ZM916.19,944.95c2.13-2.49,2.87-5.84,2.27-9.98-.61-4.2-2.3-7.48-5.02-9.87-2.72-2.39-6.23-3.55-10.57-3.52-4.4.03-7.64,1.24-9.78,3.66-2.13,2.42-3.03,5.72-2.63,9.91.39,4.14,1.91,7.45,4.62,9.91,2.71,2.46,6.4,3.68,11.03,3.66,4.56-.02,7.93-1.28,10.07-3.77Z"/><path d="M977.71,951.26c8.81-.03,13.19-.05,21.87-.09,1.64,6.02,2.46,9.06,4.17,15.12-15.3,0-30.59,0-45.89,0-4.25-20.23-8.12-40.55-12.86-60.67,8.47,0,12.71,0,21.17-.01,4.31,15.09,7.86,30.39,11.53,45.64Z"/><path d="M1030.73,951.05c8.4-.03,12.54-.05,20.68-.09,1.85,6.09,2.79,9.18,4.74,15.32-14.38,0-28.77,0-43.15,0-5.82-20.26-11.11-40.71-17.84-60.69,8.46,0,12.69,0,21.15-.01,5.51,14.91,9.88,30.24,14.41,45.46Z"/></g><g id="Layer_4"><circle class="cls-4" cx="322.96" cy="1078.27" r="95.12"/><circle class="cls-1" cx="536.33" cy="1078.27" r="95.12"/><circle class="cls-4" cx="749.69" cy="1078.27" r="95.12"/><circle class="cls-32" cx="963.06" cy="1078.27" r="95.12"/><path class="cls-28" d="M288.29,1108.13c3.06-7.28,10.3-15,21.7-23.14,9.9-7.08,16.3-12.16,19.22-15.22,4.47-4.77,6.71-10,6.71-15.68,0-4.62-1.28-8.47-3.84-11.53-2.56-3.06-6.23-4.6-11-4.6-6.53,0-10.98,2.44-13.34,7.31-1.36,2.81-2.16,7.29-2.41,13.41h-20.88c.35-9.29,2.04-16.81,5.05-22.53,5.73-10.9,15.92-16.35,30.55-16.35,11.57,0,20.77,3.2,27.61,9.61,6.84,6.41,10.26,14.88,10.26,25.43,0,8.09-2.42,15.27-7.25,21.55-3.17,4.17-8.38,8.82-15.63,13.94l-8.61,6.1c-5.39,3.82-9.07,6.58-11.06,8.29-1.99,1.71-3.66,3.69-5.01,5.95h47.7v18.92h-74.83c.2-7.84,1.88-15,5.05-21.48Z"/><path class="cls-28" d="M565.22,1034.28c5.6,9.8,8.4,23.71,8.4,41.75s-2.8,31.93-8.4,41.68c-5.6,9.75-15.36,14.62-29.28,14.62s-23.68-4.87-29.28-14.62c-5.6-9.75-8.4-23.64-8.4-41.68s2.8-31.95,8.4-41.75c5.6-9.8,15.36-14.7,29.28-14.7s23.68,4.9,29.28,14.7ZM523.29,1104.86c2.06,6.66,6.28,9.99,12.66,9.99s10.56-3.33,12.55-9.99c1.98-6.66,2.98-16.27,2.98-28.83s-.99-22.91-2.98-29.24c-1.98-6.33-6.17-9.5-12.55-9.5s-10.6,3.17-12.66,9.5c-2.06,6.33-3.09,16.08-3.09,29.24s1.03,22.17,3.09,28.83Z"/><path class="cls-28" d="M718.34,1108.13c3.06-7.28,10.3-15,21.7-23.14,9.9-7.08,16.3-12.16,19.22-15.22,4.47-4.77,6.71-10,6.71-15.68,0-4.62-1.28-8.47-3.84-11.53-2.56-3.06-6.23-4.6-11-4.6-6.53,0-10.98,2.44-13.34,7.31-1.36,2.81-2.16,7.29-2.41,13.41h-20.88c.35-9.29,2.04-16.81,5.05-22.53,5.73-10.9,15.92-16.35,30.55-16.35,11.57,0,20.77,3.2,27.61,9.61,6.84,6.41,10.26,14.88,10.26,25.43,0,8.09-2.42,15.27-7.25,21.55-3.17,4.17-8.38,8.82-15.63,13.94l-8.61,6.1c-5.39,3.82-9.07,6.58-11.06,8.29-1.99,1.71-3.66,3.69-5.01,5.95h47.7v18.92h-74.83c.2-7.84,1.88-15,5.05-21.48Z"/><path class="cls-28" d="M948.96,1100.37c.85,4.67,2.48,8.28,4.89,10.81,2.41,2.54,5.91,3.81,10.53,3.81,5.31,0,9.36-1.87,12.14-5.61,2.78-3.74,4.17-8.45,4.17-14.13s-1.3-10.29-3.91-14.13c-2.61-3.84-6.67-5.77-12.18-5.77-2.61,0-4.86.33-6.77.98-3.36,1.21-5.89,3.44-7.59,6.71l-19.25-.9,7.67-60.37h60.12v18.24h-44.63l-3.91,23.89c3.31-2.16,5.89-3.59,7.75-4.3,3.11-1.16,6.9-1.73,11.36-1.73,9.03,0,16.91,3.04,23.63,9.12,6.72,6.08,10.09,14.92,10.09,26.53,0,10.1-3.24,19.12-9.71,27.06-6.48,7.94-16.16,11.91-29.06,11.91-10.39,0-18.92-2.79-25.6-8.37s-10.39-13.49-11.14-23.74h21.4Z"/><g class="cls-33"><path class="cls-14" d="M693.37,306.71c.07-1.22-.33-2.21-1.19-3.1-2.47-2.59-4.83-5.3-7.34-7.85-8.69-8.87-17.43-17.69-26.14-26.53-2.51-2.55-4.97-5.17-7.51-7.69-1.18-1.17-2.49-2.2-3.76-3.27-.43-.36-1.08-.07-1.11.48-.06,1.02-.1,2.04-.1,3.06-.12,25.73-.25,51.45-.34,77.18-.01,3.71.2,7.42.2,11.13,0,1.79.66,3.1,1.89,4.39,10.33,10.84,20.58,21.75,30.9,32.6,4.49,4.72,9.08,9.36,14.01,14.42.67-1.69.45-2.96.44-4.2-.1-29.57-.3-59.13.03-88.7,0-.64-.02-1.28.01-1.92Z"/><path class="cls-12" d="M592.63,394.58c.02.89.09,1.79.16,2.68.04.52.14,1.07.63,1.32.54.27.94-.14,1.3-.49.27-.27.54-.55.8-.82,14.28-14.84,28.55-29.68,42.84-44.5.77-.8,1.16-1.62,1.1-2.72-.05-.89,0-1.79,0-2.69,0-13.94,0-27.88,0-41.82h-.11c0-14.2,0-28.39,0-42.59,0-1.28-.09-2.55-.21-3.82-.07-.73-.86-.97-1.4-.41-2.15,2.19-4.24,4.44-6.41,6.61-8.32,8.32-16.7,16.58-24.97,24.95-4.14,4.18-8.04,8.59-12.16,12.78-1.39,1.42-1.88,2.88-1.68,4.81.21,2.03.21,4.09.21,6.13-.04,24.94-.09,49.88-.13,74.82,0,1.92.01,3.84.05,5.75Z"/><path class="cls-11" d="M553.32,392.68c0,.64,0,1.28,0,1.92.05,13.44.09,26.88.15,40.32,0,1.66.06,3.33.17,4.99.02.31.31.77.58.86.27.09.73-.13.98-.36.67-.59,1.26-1.27,1.9-1.9,10.02-9.9,18.82-20.93,28.67-31,.85-.87,1.39-1.8,1.3-3.05-.05-.76,0-1.53,0-2.3,0-20.35.04-40.7-.03-61.05-.03-8.83-.29-17.66-.46-26.49-.02-.9-.07-1.79-.15-2.68-.02-.22-.17-.48-.34-.61-.38-.3-.71-.02-1.01.21-.2.15-.39.33-.57.52-6.89,7.05-13.82,14.06-20.64,21.16-3.01,3.14-5.76,6.52-8.74,9.69-1.34,1.42-1.91,2.97-1.69,4.86.04.38,0,.77,0,1.15,0,14.59,0,29.18,0,43.77h-.13Z"/><path class="cls-8" d="M699.72,310.96c-.18.09-.36.37-.37.57-.06,1.28-.09,2.56-.09,3.83,0,30.07.02,60.14.04,90.21,0,.77.07,1.54-.01,2.3-.17,1.55.54,2.6,1.59,3.68,4.48,4.57,8.85,9.24,13.3,13.83,4.1,4.22,8.23,8.41,12.4,12.57,1.08,1.08,2.33,1.98,3.53,2.93.36.29,1.11-.12,1.14-.6.07-1.15.12-2.3.12-3.45,0-14.71,0-29.43,0-44.14h.14c0-9.85,0-19.7,0-29.56,0-5.37-.03-10.75.12-16.12.07-2.23-.66-3.81-2.28-5.35-2.87-2.73-5.52-5.69-8.23-8.59-6.1-6.55-12.18-13.14-18.28-19.69-.78-.84-1.64-1.61-2.5-2.37-.14-.12-.49-.14-.66-.05Z"/><path class="cls-7" d="M619.2,245.2c.88-.22,1.23-.97,1.73-1.52,2.67-2.94,5.28-5.93,7.96-8.85,3.9-4.24,7.86-8.42,12.27-12.15,1.36-1.15,1.59-1.13,2.91.09,5.28,4.85,10.49,9.77,15.42,14.98,2.36,2.5,4.7,5.01,7.06,7.52.22-.1.43-.19.65-.29-.54-2.08-1.08-4.15-1.6-6.23-2.21-8.81-3.7-17.78-5.21-26.72-3-17.78-6.63-35.44-9.87-53.18-1.56-8.55-3.25-17.08-4.29-25.73-.58-4.82-1.44-9.61-2.19-14.41-.1-.63-.2-1.27-.41-1.87-.21-.6-.07-1.44-.82-1.8-.91.74-.81,1.69-.96,2.55-1.71,10.09-3.37,20.18-5.14,30.26-2.12,12.09-4.32,24.17-6.51,36.25-1.94,10.7-3.85,21.39-5.88,32.07-1.72,9.04-3.6,18.05-5.37,27.09-.12.62-.64,1.44.27,1.95Z"/><path class="cls-6" d="M584.09,296.01h.08c0,1.41,0,2.81,0,4.22,0,.77,0,1.53.05,2.3.01.21.18.48.36.58.17.09.52.09.67-.03.6-.48,1.17-.99,1.71-1.53,10.96-10.93,21.93-21.85,32.85-32.81,5.14-5.17,10.17-10.45,15.3-15.63,1.98-2,4.06-3.89,6.16-5.76,1.81-1.61,1.88-1.6,3.82.06,1.46,1.24,2.89,2.53,4.22,3.91,3.64,3.77,7.17,7.66,10.85,11.39,11.49,11.66,23.02,23.29,34.84,34.62,1.57,1.5,3.15,2.99,4.75,4.47.28.26.68.42,1.03.18.18-.12.31-.42.32-.65.11-3.96.2-7.93.3-11.89.02-.68-.24-1.25-.67-1.74-.59-.67-1.23-1.3-1.85-1.94-10.8-11.09-21.55-22.22-32.4-33.25-6.9-7.02-13.94-13.91-20.93-20.85-.72-.72-1.53-1.35-2.3-2.02-.35-.31-.76-.23-1.04,0-.77.66-1.52,1.37-2.23,2.1-11.02,11.23-22.03,22.46-33.05,33.7-6.9,7.03-13.78,14.07-20.7,21.08-1.69,1.71-2.97,3.42-2.19,6.07.31,1.06.05,2.29.05,3.44Z"/><path class="cls-5" d="M960.65,801.69c17.24.32,29.69-2.76,37.78-8.07,8.09-5.32,11.36-11.93,11.37-22.37,0-9.7-2.35-20.84-7.31-34.78-4.97-13.95-12.66-29.89-25.32-48.39-14.95-21.85-33.11-41.52-52.39-59.67-41.57-39.52-83.04-79.15-123.64-119.68v377.08h77.3c.47-34.45.84-68.91,1.2-103.36.15.05.22.07.37.12,13.42,35.2,27.8,69.75,45.09,103.24h84.96c-16.74-27.96-33.9-55.43-49.4-84.11ZM938.07,727.81c-.3,7.12-2.47,11.06-6.52,12.09-4.06,1.03-10.03-.62-18.02-5.4-13.19-7.89-19.91-11.97-33.19-20.02.23-22.05.34-33.06.57-53.91,13.59,11.03,20.49,16.61,33.95,27.42,7.9,6.34,13.8,13.08,17.75,20,3.95,6.92,5.74,13.4,5.47,19.82Z"/><path class="cls-10" d="M445.25,714.17c12.5-11.76,22.18-27.99,29.57-48.71,7.28-20.42,11.05-45.57,10.88-67.15-.27-32.92-7.44-50-20.11-48.36-22.61,2.92-43.4,28.14-60.39,43.51-44.77,39.24-84.93,82.74-126.31,125.48v166.85h129.18c19.66,1.26,47.21-4.83,61.57-19.41,18.18-18.46,21.21-47.96,21.3-72.18.07-18.78-3.16-43.06-11.94-60.51-7.94-15.79-19-22.29-33.74-19.53ZM357.95,698.77c11.63-9.76,17.34-14.41,28.61-22.98,6.56-4.99,11.55-6.86,15.23-6.14,3.68.72,5.48,4.88,5.46,12.44-.02,7.27-1.84,14-5.48,19.76-3.65,5.77-8.66,10.17-15.29,14.05-11.41,6.68-17.17,10.32-28.86,17.96.13-14.01.2-21.02.33-35.09ZM407.08,811.24c-3.48,3.9-8.87,6.28-15.69,7.04-13.77,1.53-20.68,2.47-34.62,4.57.13-14.06.2-21.07.33-35.08,13.85-4.59,20.7-6.72,34.31-10.44,13.24-3.62,20.99,1.26,20.93,16.43-.03,7.74-1.79,13.6-5.26,17.49Z"/><polygon class="cls-9" points="508.82 500.09 508.82 706.94 627.08 375.82 508.82 500.09"/><polygon class="cls-22" points="776.59 706.94 776.59 500.09 658.33 375.82 776.59 706.94"/><polygon class="cls-25" points="639.38 573.29 639.38 362.89 638.97 363.32 508.82 727.75 508.82 885.14 566.36 885.14 588.49 823.18 639.38 812.12 639.38 710.91 642.66 709.89 642.66 709.89 584.06 728.19 639.38 573.29"/><polygon class="cls-19" points="642.74 709.89 642.74 709.89 644.19 710.34 642.74 709.89"/><polygon class="cls-21" points="646.43 363.32 646.02 362.89 646.02 561.92 646.15 561.92 646.15 573.64 701.35 728.19 646.02 710.91 646.02 812.12 696.91 823.18 719.04 885.14 776.58 885.14 776.58 727.75 646.43 363.32"/></g><g class="cls-3"><path class="cls-20" d="M647.98,354.5c10.33,10.84,20.58,21.75,30.9,32.6,4.49,4.72,9.08,9.36,14.01,14.42.67-1.69.45-2.96.44-4.2-.1-29.57-.3-59.13.03-88.7,0-.64-.02-1.28.01-1.92.07-1.22-.33-2.21-1.19-3.1-2.47-2.59-4.83-5.3-7.34-7.85-8.69-8.87-17.43-17.69-26.14-26.53-2.51-2.55-4.97-5.17-7.51-7.69-1.18-1.17-2.49-2.2-3.76-3.27-.43-.36-1.08-.07-1.11.48-.06,1.02-.1,2.04-.1,3.06-.12,25.73-.25,51.45-.34,77.18-.01,3.71.2,7.42.2,11.13,0,1.79.66,3.1,1.89,4.39Z"/><path class="cls-27" d="M699.29,407.88c-.17,1.55.54,2.6,1.59,3.68,4.48,4.57,8.85,9.24,13.3,13.83,4.1,4.22,8.23,8.41,12.4,12.57,1.08,1.08,2.33,1.98,3.53,2.93.36.29,1.11-.12,1.14-.6.07-1.15.12-2.3.12-3.45,0-14.71,0-29.43,0-44.14h.14c0-9.85,0-19.7,0-29.56,0-5.37-.03-10.75.12-16.12.07-2.23-.66-3.81-2.28-5.35-2.87-2.73-5.52-5.69-8.23-8.59-6.1-6.55-12.18-13.14-18.28-19.69-.78-.84-1.64-1.61-2.5-2.37-.14-.12-.49-.14-.66-.05-.18.09-.36.37-.37.57-.06,1.28-.09,2.56-.09,3.83,0,30.07.02,60.14.04,90.21,0,.77.07,1.54-.01,2.3Z"/><path class="cls-18" d="M960.65,801.69c17.24.32,29.69-2.76,37.78-8.07,8.09-5.32,11.36-11.93,11.37-22.37,0-9.7-2.35-20.84-7.31-34.78-4.97-13.95-12.66-29.89-25.32-48.39-14.95-21.85-33.11-41.52-52.39-59.67-41.57-39.52-83.04-79.15-123.64-119.68v377.08h77.3c.47-34.45.84-68.91,1.2-103.36.15.05.22.07.37.12,13.42,35.2,27.8,69.75,45.09,103.24h84.96c-16.74-27.96-33.9-55.43-49.4-84.11ZM938.07,727.81c-.3,7.12-2.47,11.06-6.52,12.09-4.06,1.03-10.03-.62-18.02-5.4-13.19-7.89-19.91-11.97-33.19-20.02.23-22.05.34-33.06.57-53.91,13.59,11.03,20.49,16.61,33.95,27.42,7.9,6.34,13.8,13.08,17.75,20,3.95,6.92,5.74,13.4,5.47,19.82Z"/><polygon class="cls-23" points="776.59 706.94 776.59 500.09 658.33 375.82 776.59 706.94"/><polygon class="cls-26" points="642.74 709.89 642.74 709.89 644.19 710.34 642.74 709.89"/><polygon class="cls-24" points="646.43 363.32 646.02 362.89 646.02 564.92 646.15 564.92 646.15 573.64 701.35 728.19 646.02 710.91 646.02 812.12 696.91 823.18 719.04 885.14 776.58 885.14 776.58 727.75 646.43 363.32"/></g><path class="cls-2" d="M619.2,245.2c.88-.22,1.23-.97,1.73-1.52,2.67-2.94,5.28-5.93,7.96-8.85,3.9-4.24,7.86-8.42,12.27-12.15,1.36-1.15,1.59-1.13,2.91.09,5.28,4.85,10.49,9.77,15.42,14.98,2.36,2.5,4.7,5.01,7.06,7.52.22-.1.43-.19.65-.29-.54-2.08-1.08-4.15-1.6-6.23-2.21-8.81-3.7-17.78-5.21-26.72-3-17.78-6.63-35.44-9.87-53.18-1.56-8.55-3.25-17.08-4.29-25.73-.58-4.82-1.44-9.61-2.19-14.41-.1-.63-.2-1.27-.41-1.87-.21-.6-.07-1.44-.82-1.8-.91.74-.81,1.69-.96,2.55-1.71,10.09-3.37,20.18-5.14,30.26-2.12,12.09-4.32,24.17-6.51,36.25-1.94,10.7-3.85,21.39-5.88,32.07-1.72,9.04-3.6,18.05-5.37,27.09-.12.62-.64,1.44.27,1.95Z"/></g><g id="Layer_5"><path class="cls-28" d="M988.79,1177.98c-.45-.12-.89-.23-1.34-.34-.28.97-.55,1.95-1.01,3.56,2.93-.88,3.04-1.91,2.35-3.22Z"/><path class="cls-28" d="M1015.05,1214.74l-.13-2.91c-.25-.03-.51-.06-.76-.09l.14,3.03"/><path class="cls-28" d="M914.24,1211.59l3.09-.14c0-.26.02-.51.03-.77l-3.15.4.03.51Z"/></g></g></svg>