<?xml version="1.0" encoding="UTF-8"?><svg id="Layer_7" xmlns="http://www.w3.org/2000/svg" viewBox="0 0 1024 768"><defs><style>.cls-1{fill:#f20d15;stroke:#f20d15;}.cls-1,.cls-2,.cls-3{stroke-width:2px;}.cls-1,.cls-2,.cls-3,.cls-4{stroke-miterlimit:10;}.cls-2{fill:#0fcb9b;stroke:#0fcb9b;}.cls-3{fill:#f4fa00;stroke:#f4fa00;}.cls-4{stroke:#000;stroke-width:14.51px;}</style></defs><path class="cls-4" d="M642.57,190.14c4.93,4.71,7.99,10.71,9.16,17.99,1.18,7.29.36,15.02-2.44,23.2-2.02,6.05-5.07,11.96-9.16,17.74-4.09,5.77-9.05,11.15-14.88,16.14-5.83,4.99-12.78,9.22-20.85,12.69-8.07,3.47-16.65,5.72-25.73,6.72-4.15.45-8.13.67-11.94.67-3.03,0-5.94-.11-8.74-.34-2.8-.23-5.55-.65-8.24-1.26-2.69-.62-5.04-1.18-7.06-1.68-2.02-.5-4.37-1.26-7.06-2.27-2.69-1.01-4.77-1.79-6.22-2.35-1.46-.56-3.59-1.46-6.39-2.69-1.57-.67-2.86-1.18-3.87-1.51-3.14,3.36-6.42,6.02-9.84,7.99-3.42,1.96-6.56,3.11-9.42,3.45-2.86.34-5.21.42-7.06.25-1.85-.17-3.56-.53-5.13-1.09-4.37-1.46-7.88-3.95-10.51-7.48-2.63-3.53-3.62-7.04-2.94-10.51.56-2.24,1.65-4.06,3.28-5.46,1.62-1.4,3.39-2.27,5.3-2.61,1.9-.34,3.81-.59,5.71-.76s3.31-.14,4.21.08c7.51.78,15.47,2.75,23.88,5.88,2.91-3.92,5.66-8.69,8.24-14.29l51.79-111.64c.45-1.01,1.23-1.74,2.36-2.19,1.12-.45,2.21-.42,3.28.08,1.06.5,1.79,1.32,2.19,2.44.39,1.12.36,2.19-.08,3.19l-51.79,111.64c-2.47,5.27-5.1,9.98-7.9,14.12.67.22,1.23.45,1.68.67,3.14,1.35,5.57,2.35,7.31,3.03,1.74.67,4.12,1.54,7.15,2.61,3.03,1.06,5.72,1.82,8.07,2.27,2.35.45,5.1.9,8.24,1.35,3.14.45,6.42.67,9.84.67s6.98-.23,10.68-.67c8.18-1.01,15.91-3.06,23.2-6.14,7.29-3.08,13.56-6.87,18.83-11.35,5.27-4.48,9.72-9.28,13.37-14.38,3.64-5.1,6.36-10.34,8.15-15.72,2.24-6.61,2.97-12.78,2.19-18.5-.79-5.72-3.03-10.31-6.72-13.79-1.35-1.34-2.92-2.52-4.71-3.53-1.79-1.01-4.29-1.88-7.48-2.61-3.2-.73-6.75-1.09-10.68-1.09s-8.77.65-14.54,1.93c-5.78,1.29-11.97,3.22-18.58,5.8-1.12.45-2.21.45-3.28,0-1.07-.45-1.82-1.2-2.27-2.27-.45-1.06-.48-2.13-.08-3.19.39-1.06,1.15-1.88,2.27-2.44,17.82-8.29,31.58-17.34,41.28-27.15,9.69-9.81,14.21-19.14,13.54-28-.34-4.93-2.38-9.33-6.14-13.2-3.76-3.87-8.72-6.7-14.88-8.49-4.37-1.34-9.05-2.07-14.04-2.19-4.99-.11-10.26.34-15.8,1.34s-11.27,2.77-17.15,5.3c-5.88,2.52-11.74,5.69-17.57,9.5-5.83,3.81-11.74,8.52-17.74,14.12-6,5.61-11.69,11.94-17.07,19-.67.9-1.6,1.43-2.77,1.6-1.18.17-2.21-.11-3.11-.84-.9-.73-1.43-1.68-1.6-2.86-.17-1.18.08-2.21.76-3.11,16.81-21.97,35.81-37.21,57-45.73,18.72-7.51,35.87-8.97,51.45-4.37,5.38,1.57,10.03,3.78,13.96,6.64s7.03,6.22,9.33,10.09c2.3,3.87,3.62,8.04,3.95,12.53.56,7.96-1.91,16.03-7.4,24.21-5.49,8.18-13.73,16.09-24.71,23.71,14.79-1.46,26.12,1.57,33.96,9.08ZM490.4,275.72c6.61,2.13,13.28.17,20.01-5.88-6.39-2.24-12.56-3.64-18.5-4.2-1.01-.11-1.91-.17-2.69-.17-4.04,0-6.22.73-6.56,2.19-.22,1.12.39,2.52,1.85,4.2,1.46,1.68,3.42,2.97,5.88,3.87Z"/><path class="cls-4" d="M712.6,203.25c1.18-.22,2.27-.03,3.28.59,1.01.62,1.65,1.49,1.93,2.61.28,1.12.08,2.19-.59,3.19-5.94,9.53-11.49,17.77-16.64,24.72-2.92,3.92-6.33,7.17-10.26,9.75-3.93,2.58-7.85,3.87-11.77,3.87-2.8,0-5.38-.73-7.73-2.19-3.36-2.02-5.58-4.99-6.64-8.91-1.06-3.92-1.23-7.9-.5-11.94.73-4.04,2.05-8.07,3.95-12.11l16.14-33.96c.45-1.12,1.23-1.88,2.35-2.27,1.12-.39,2.21-.34,3.28.17,1.06.5,1.79,1.32,2.19,2.44.39,1.12.31,2.24-.25,3.36l-15.97,33.96c-2.58,6.05-3.81,10.9-3.7,14.54.11,3.64,1.29,6.14,3.53,7.48,2.13,1.24,4.93,1.09,8.41-.42,3.47-1.51,6.84-4.46,10.09-8.83,5.04-6.73,10.48-14.8,16.31-24.21.56-1.01,1.43-1.62,2.61-1.85ZM694.19,167.77c-.67,0-1.35-.14-2.02-.42-.67-.28-1.24-.64-1.68-1.09-.45-.45-.81-1.01-1.09-1.68-.28-.67-.42-1.35-.42-2.02,0-1.46.5-2.72,1.51-3.78,1.01-1.06,2.24-1.6,3.7-1.6s2.71.53,3.78,1.6c1.06,1.07,1.6,2.33,1.6,3.78s-.53,2.69-1.6,3.7c-1.07,1.01-2.33,1.51-3.78,1.51Z"/><path class="cls-4" d="M804.65,203.33c1.12-.39,2.21-.31,3.28.25,1.06.56,1.79,1.4,2.19,2.52.39,1.12.31,2.19-.25,3.19-2.8,5.49-6.14,10.57-10,15.22-3.87,4.65-7.71,8.55-11.52,11.69-3.81,3.14-8.24,6.17-13.28,9.08-5.04,2.91-9.58,5.27-13.62,7.06-4.04,1.79-8.8,3.75-14.29,5.88l-28.92,60.19c-2.8,5.72-5.8,10.56-9,14.54-3.19,3.98-6.25,6.86-9.16,8.66-2.91,1.79-5.38,3-7.4,3.61-2.02.62-3.92.98-5.72,1.09h-.67c-6.73,0-11.83-3.08-15.3-9.25-3.25-5.72-4.09-12.81-2.52-21.27,1.57-8.46,5.38-17.29,11.43-26.48,2.02-3.25,4.29-6.25,6.81-9,2.52-2.75,5.44-5.27,8.74-7.57,3.31-2.3,6.28-4.26,8.91-5.88,2.63-1.63,6.11-3.36,10.42-5.21s7.76-3.28,10.34-4.29c2.58-1.01,6.33-2.47,11.27-4.37,1.9-.67,3.42-1.23,4.54-1.68l5.55-11.6c-2.92,2.58-5.77,4.51-8.57,5.8-2.8,1.29-5.55,1.99-8.24,2.1-4.26.22-8.04-.7-11.35-2.77-3.31-2.07-5.86-5.02-7.65-8.83-2.91-6.5-3.3-14.09-1.18-22.78,2.13-8.69,6.33-16.45,12.61-23.29,4.04-4.37,8.38-7.73,13.03-10.09,4.65-2.35,9.16-3.47,13.54-3.36,6.95.34,12.83,3.53,17.65,9.58.67.9.95,1.93.84,3.11-.11,1.18-.62,2.13-1.51,2.86-.9.73-1.93,1.01-3.11.84-1.18-.17-2.16-.7-2.94-1.6-3.14-3.92-6.89-6-11.27-6.22-6.62-.22-13.28,3.31-20.01,10.59-2.92,3.25-5.41,7.01-7.48,11.26-2.07,4.26-3.42,8.63-4.04,13.11-.62,4.49-.03,8.58,1.77,12.27,2.13,4.71,5.72,6.95,10.76,6.73,1.57,0,3.22-.42,4.96-1.26,1.74-.84,3.95-2.33,6.64-4.46,2.69-2.13,5.83-5.49,9.42-10.09,3.59-4.59,7.29-10.2,11.1-16.81,1.79-2.91,3.64-6.16,5.55-9.75,1.46-2.91,3.14-6.16,5.04-9.75.56-1.01,1.4-1.68,2.52-2.02,1.12-.34,2.19-.25,3.19.25,1.01.5,1.71,1.32,2.1,2.44.39,1.12.31,2.19-.25,3.2-1.68,3.36-3.36,6.61-5.04,9.75-1.12,2.47-2.52,5.44-4.21,8.91-1.23,2.92-2.24,5.21-3.03,6.89l-14.8,30.43c5.49-2.24,10.4-4.51,14.71-6.81,4.31-2.3,8.69-5.07,13.12-8.32,4.43-3.25,8.49-7.09,12.19-11.52,3.7-4.43,6.95-9.33,9.75-14.71.45-1.01,1.23-1.71,2.35-2.1ZM710.5,314.72l25.05-52.29c-4.71,1.79-8.6,3.33-11.69,4.62-3.08,1.29-6.64,2.91-10.68,4.88-4.04,1.96-7.45,3.92-10.26,5.88-2.8,1.96-5.63,4.34-8.49,7.15-2.86,2.8-5.35,5.77-7.48,8.91-3.81,5.83-6.58,11.43-8.32,16.81-1.74,5.38-2.55,9.84-2.44,13.37.11,3.53.84,6.47,2.19,8.83,1.91,3.36,4.65,4.99,8.24,4.88,3.59-.11,7.54-2.05,11.85-5.8,4.32-3.76,8.32-9.5,12.02-17.23Z"/><path class="cls-1" d="M642.57,190.14c4.93,4.71,7.99,10.71,9.16,17.99,1.18,7.29.36,15.02-2.44,23.2-2.02,6.05-5.07,11.96-9.16,17.74-4.09,5.77-9.05,11.15-14.88,16.14-5.83,4.99-12.78,9.22-20.85,12.69-8.07,3.47-16.65,5.72-25.73,6.72-4.15.45-8.13.67-11.94.67-3.03,0-5.94-.11-8.74-.34-2.8-.23-5.55-.65-8.24-1.26-2.69-.62-5.04-1.18-7.06-1.68-2.02-.5-4.37-1.26-7.06-2.27-2.69-1.01-4.77-1.79-6.22-2.35-1.46-.56-3.59-1.46-6.39-2.69-1.57-.67-2.86-1.18-3.87-1.51-3.14,3.36-6.42,6.02-9.84,7.99-3.42,1.96-6.56,3.11-9.42,3.45-2.86.34-5.21.42-7.06.25-1.85-.17-3.56-.53-5.13-1.09-4.37-1.46-7.88-3.95-10.51-7.48-2.63-3.53-3.62-7.04-2.94-10.51.56-2.24,1.65-4.06,3.28-5.46,1.62-1.4,3.39-2.27,5.3-2.61,1.9-.34,3.81-.59,5.71-.76s3.31-.14,4.21.08c7.51.78,15.47,2.75,23.88,5.88,2.91-3.92,5.66-8.69,8.24-14.29l51.79-111.64c.45-1.01,1.23-1.74,2.36-2.19,1.12-.45,2.21-.42,3.28.08,1.06.5,1.79,1.32,2.19,2.44.39,1.12.36,2.19-.08,3.19l-51.79,111.64c-2.47,5.27-5.1,9.98-7.9,14.12.67.22,1.23.45,1.68.67,3.14,1.35,5.57,2.35,7.31,3.03,1.74.67,4.12,1.54,7.15,2.61,3.03,1.06,5.72,1.82,8.07,2.27,2.35.45,5.1.9,8.24,1.35,3.14.45,6.42.67,9.84.67s6.98-.23,10.68-.67c8.18-1.01,15.91-3.06,23.2-6.14,7.29-3.08,13.56-6.87,18.83-11.35,5.27-4.48,9.72-9.28,13.37-14.38,3.64-5.1,6.36-10.34,8.15-15.72,2.24-6.61,2.97-12.78,2.19-18.5-.79-5.72-3.03-10.31-6.72-13.79-1.35-1.34-2.92-2.52-4.71-3.53-1.79-1.01-4.29-1.88-7.48-2.61-3.2-.73-6.75-1.09-10.68-1.09s-8.77.65-14.54,1.93c-5.78,1.29-11.97,3.22-18.58,5.8-1.12.45-2.21.45-3.28,0-1.07-.45-1.82-1.2-2.27-2.27-.45-1.06-.48-2.13-.08-3.19.39-1.06,1.15-1.88,2.27-2.44,17.82-8.29,31.58-17.34,41.28-27.15,9.69-9.81,14.21-19.14,13.54-28-.34-4.93-2.38-9.33-6.14-13.2-3.76-3.87-8.72-6.7-14.88-8.49-4.37-1.34-9.05-2.07-14.04-2.19-4.99-.11-10.26.34-15.8,1.34s-11.27,2.77-17.15,5.3c-5.88,2.52-11.74,5.69-17.57,9.5-5.83,3.81-11.74,8.52-17.74,14.12-6,5.61-11.69,11.94-17.07,19-.67.9-1.6,1.43-2.77,1.6-1.18.17-2.21-.11-3.11-.84-.9-.73-1.43-1.68-1.6-2.86-.17-1.18.08-2.21.76-3.11,16.81-21.97,35.81-37.21,57-45.73,18.72-7.51,35.87-8.97,51.45-4.37,5.38,1.57,10.03,3.78,13.96,6.64s7.03,6.22,9.33,10.09c2.3,3.87,3.62,8.04,3.95,12.53.56,7.96-1.91,16.03-7.4,24.21-5.49,8.18-13.73,16.09-24.71,23.71,14.79-1.46,26.12,1.57,33.96,9.08ZM490.4,275.72c6.61,2.13,13.28.17,20.01-5.88-6.39-2.24-12.56-3.64-18.5-4.2-1.01-.11-1.91-.17-2.69-.17-4.04,0-6.22.73-6.56,2.19-.22,1.12.39,2.52,1.85,4.2,1.46,1.68,3.42,2.97,5.88,3.87Z"/><path class="cls-1" d="M712.6,203.25c1.18-.22,2.27-.03,3.28.59,1.01.62,1.65,1.49,1.93,2.61.28,1.12.08,2.19-.59,3.19-5.94,9.53-11.49,17.77-16.64,24.72-2.92,3.92-6.33,7.17-10.26,9.75-3.93,2.58-7.85,3.87-11.77,3.87-2.8,0-5.38-.73-7.73-2.19-3.36-2.02-5.58-4.99-6.64-8.91-1.06-3.92-1.23-7.9-.5-11.94.73-4.04,2.05-8.07,3.95-12.11l16.14-33.96c.45-1.12,1.23-1.88,2.35-2.27,1.12-.39,2.21-.34,3.28.17,1.06.5,1.79,1.32,2.19,2.44.39,1.12.31,2.24-.25,3.36l-15.97,33.96c-2.58,6.05-3.81,10.9-3.7,14.54.11,3.64,1.29,6.14,3.53,7.48,2.13,1.24,4.93,1.09,8.41-.42,3.47-1.51,6.84-4.46,10.09-8.83,5.04-6.73,10.48-14.8,16.31-24.21.56-1.01,1.43-1.62,2.61-1.85ZM694.19,167.77c-.67,0-1.35-.14-2.02-.42-.67-.28-1.24-.64-1.68-1.09-.45-.45-.81-1.01-1.09-1.68-.28-.67-.42-1.35-.42-2.02,0-1.46.5-2.72,1.51-3.78,1.01-1.06,2.24-1.6,3.7-1.6s2.71.53,3.78,1.6c1.06,1.07,1.6,2.33,1.6,3.78s-.53,2.69-1.6,3.7c-1.07,1.01-2.33,1.51-3.78,1.51Z"/><path class="cls-1" d="M804.65,203.33c1.12-.39,2.21-.31,3.28.25,1.06.56,1.79,1.4,2.19,2.52.39,1.12.31,2.19-.25,3.19-2.8,5.49-6.14,10.57-10,15.22-3.87,4.65-7.71,8.55-11.52,11.69-3.81,3.14-8.24,6.17-13.28,9.08-5.04,2.91-9.58,5.27-13.62,7.06-4.04,1.79-8.8,3.75-14.29,5.88l-28.92,60.19c-2.8,5.72-5.8,10.56-9,14.54-3.19,3.98-6.25,6.86-9.16,8.66-2.91,1.79-5.38,3-7.4,3.61-2.02.62-3.92.98-5.72,1.09h-.67c-6.73,0-11.83-3.08-15.3-9.25-3.25-5.72-4.09-12.81-2.52-21.27,1.57-8.46,5.38-17.29,11.43-26.48,2.02-3.25,4.29-6.25,6.81-9,2.52-2.75,5.44-5.27,8.74-7.57,3.31-2.3,6.28-4.26,8.91-5.88,2.63-1.63,6.11-3.36,10.42-5.21s7.76-3.28,10.34-4.29c2.58-1.01,6.33-2.47,11.27-4.37,1.9-.67,3.42-1.23,4.54-1.68l5.55-11.6c-2.92,2.58-5.77,4.51-8.57,5.8-2.8,1.29-5.55,1.99-8.24,2.1-4.26.22-8.04-.7-11.35-2.77-3.31-2.07-5.86-5.02-7.65-8.83-2.91-6.5-3.3-14.09-1.18-22.78,2.13-8.69,6.33-16.45,12.61-23.29,4.04-4.37,8.38-7.73,13.03-10.09,4.65-2.35,9.16-3.47,13.54-3.36,6.95.34,12.83,3.53,17.65,9.58.67.9.95,1.93.84,3.11-.11,1.18-.62,2.13-1.51,2.86-.9.73-1.93,1.01-3.11.84-1.18-.17-2.16-.7-2.94-1.6-3.14-3.92-6.89-6-11.27-6.22-6.62-.22-13.28,3.31-20.01,10.59-2.92,3.25-5.41,7.01-7.48,11.26-2.07,4.26-3.42,8.63-4.04,13.11-.62,4.49-.03,8.58,1.77,12.27,2.13,4.71,5.72,6.95,10.76,6.73,1.57,0,3.22-.42,4.96-1.26,1.74-.84,3.95-2.33,6.64-4.46,2.69-2.13,5.83-5.49,9.42-10.09,3.59-4.59,7.29-10.2,11.1-16.81,1.79-2.91,3.64-6.16,5.55-9.75,1.46-2.91,3.14-6.16,5.04-9.75.56-1.01,1.4-1.68,2.52-2.02,1.12-.34,2.19-.25,3.19.25,1.01.5,1.71,1.32,2.1,2.44.39,1.12.31,2.19-.25,3.2-1.68,3.36-3.36,6.61-5.04,9.75-1.12,2.47-2.52,5.44-4.21,8.91-1.23,2.92-2.24,5.21-3.03,6.89l-14.8,30.43c5.49-2.24,10.4-4.51,14.71-6.81,4.31-2.3,8.69-5.07,13.12-8.32,4.43-3.25,8.49-7.09,12.19-11.52,3.7-4.43,6.95-9.33,9.75-14.71.45-1.01,1.23-1.71,2.35-2.1ZM710.5,314.72l25.05-52.29c-4.71,1.79-8.6,3.33-11.69,4.62-3.08,1.29-6.64,2.91-10.68,4.88-4.04,1.96-7.45,3.92-10.26,5.88-2.8,1.96-5.63,4.34-8.49,7.15-2.86,2.8-5.35,5.77-7.48,8.91-3.81,5.83-6.58,11.43-8.32,16.81-1.74,5.38-2.55,9.84-2.44,13.37.11,3.53.84,6.47,2.19,8.83,1.91,3.36,4.65,4.99,8.24,4.88,3.59-.11,7.54-2.05,11.85-5.8,4.32-3.76,8.32-9.5,12.02-17.23Z"/><path class="cls-4" d="M433.23,282.56c-2.69,8.18-10.26,27.86-22.7,59.02-5.94,14.91-10.37,26.06-13.28,33.46,8.97,4.6,17.09,10.37,24.38,17.32.78.79,1.2,1.77,1.26,2.94.06,1.18-.34,2.19-1.18,3.03-.84.84-1.85,1.29-3.03,1.35-1.18.06-2.21-.31-3.11-1.09-6.39-6.16-13.56-11.38-21.52-15.64-5.94,15.58-10.26,27.57-12.95,35.98-1.91,6.05-2.52,10.26-1.85,12.61,3.14-.45,8.41-4.43,15.8-11.94.78-.79,1.77-1.18,2.94-1.18s2.19.42,3.03,1.26c.84.84,1.26,1.85,1.26,3.03s-.39,2.16-1.18,2.94c-12.11,12.22-20.91,16.65-26.4,13.28-5.04-3.03-5.61-10.54-1.68-22.53,2.8-8.86,7.23-21.19,13.28-36.99-11.55-4.93-23.54-7.51-35.98-7.73-1.34,1.79-2.63,3.59-3.87,5.38-14.91,20.07-28.92,35.7-42.03,46.91-13.12,11.21-23.99,16.81-32.62,16.81-1.01,0-1.91-.06-2.69-.17-5.27-.79-8.74-3.59-10.42-8.41-1.57-4.71-1.06-10.31,1.51-16.81,2.58-6.5,6.89-12.95,12.95-19.34,9.64-10.2,20.68-18.13,33.12-23.79,12.44-5.66,25.56-8.66,39.34-9,.11-.11.22-.17.34-.17,25.33-34.07,44.33-58.85,57-74.32,9.19-11.1,15.75-18.16,19.67-21.19s7.17-3.87,9.75-2.52c1.57.79,2.52,2.16,2.86,4.12.34,1.96.31,3.92-.08,5.88-.39,1.96-1.04,4.46-1.93,7.48ZM294.69,421.11c13.56-10.54,28.47-26.84,44.72-48.93-11.32,1.01-22.14,4.06-32.45,9.16-10.31,5.1-19.5,11.97-27.57,20.6-5.16,5.49-8.77,10.76-10.84,15.8-2.08,5.04-2.66,8.91-1.77,11.6.56,1.57,1.79,2.52,3.7,2.86,5.49.9,13.56-2.8,24.21-11.1ZM389.51,371.34c2.69-7.06,7.06-18.05,13.12-32.96,12.44-30.94,19.89-50.44,22.36-58.51.56-1.46.95-2.8,1.18-4.04-4.48,4.15-11.15,11.66-20.01,22.53-11.77,14.57-28.36,36.26-49.77,65.07,11.43.9,22.47,3.53,33.12,7.9Z"/><path class="cls-4" d="M519.57,364.7c1.06-.5,2.16-.53,3.28-.08,1.12.45,1.9,1.21,2.35,2.27.45,1.07.45,2.16,0,3.28-6.95,17.82-17.71,29.59-32.28,35.31-13.23,5.15-28.3,4.82-45.23-1.01-4.15-.78-8.07-2.41-11.77-4.88-1.01-.67-1.62-1.54-1.85-2.61-.22-1.06-.05-2.1.5-3.11.56-1.01,1.37-1.68,2.44-2.02,1.06-.34,2.1-.22,3.11.34,3.36,1.57,6.67,2.97,9.92,4.2,4.04.56,8.13-.11,12.28-2.02,5.49-2.58,10.28-6.92,14.38-13.03,4.09-6.11,6.47-12.41,7.15-18.92.67-6.84-.62-11.6-3.87-14.29-2.13-1.79-4.99-2.13-8.58-1.01-5.04,1.57-11.6,6.75-19.67,15.55-8.07,8.8-13.84,16.56-17.32,23.29l-38.67,84.24c-.78,1.57-2.07,2.35-3.87,2.35-.56,0-1.18-.11-1.85-.34-1.01-.45-1.71-1.24-2.1-2.35-.39-1.12-.36-2.19.08-3.19l37.83-82.22c0-.22.06-.39.17-.5.23-.56.45-1.12.67-1.68l19.17-41.7c.56-1.01,1.37-1.74,2.44-2.19,1.06-.45,2.13-.42,3.2.08,1.06.5,1.82,1.32,2.27,2.44.45,1.12.39,2.19-.17,3.19l-3.53,7.9c7.29-7.06,13.56-11.43,18.83-13.11,6.5-1.91,11.99-1.01,16.48,2.69,2.69,2.13,4.65,5.13,5.88,9,1.23,3.87,1.57,8.1,1.01,12.69-.67,7.4-3.17,14.52-7.48,21.35-4.32,6.84-9.56,12.11-15.72,15.81,7.62.45,14.57-.56,20.85-3.03,12.21-4.71,21.35-14.8,27.41-30.26.45-1.12,1.2-1.93,2.27-2.44Z"/><path class="cls-4" d="M603.97,364.7c1.06-.5,2.16-.53,3.28-.08,1.12.45,1.9,1.21,2.35,2.27.45,1.07.45,2.16,0,3.28-6.95,17.82-17.71,29.59-32.28,35.31-13.23,5.15-28.3,4.82-45.23-1.01-4.15-.78-8.07-2.41-11.77-4.88-1.01-.67-1.62-1.54-1.85-2.61-.22-1.06-.05-2.1.5-3.11.56-1.01,1.37-1.68,2.44-2.02,1.06-.34,2.1-.22,3.11.34,3.36,1.57,6.67,2.97,9.92,4.2,4.04.56,8.13-.11,12.28-2.02,5.49-2.58,10.28-6.92,14.38-13.03,4.09-6.11,6.47-12.41,7.15-18.92.67-6.84-.62-11.6-3.87-14.29-2.13-1.79-4.99-2.13-8.58-1.01-5.04,1.57-11.6,6.75-19.67,15.55-8.07,8.8-13.84,16.56-17.32,23.29l-38.67,84.24c-.78,1.57-2.07,2.35-3.87,2.35-.56,0-1.18-.11-1.85-.34-1.01-.45-1.71-1.24-2.1-2.35-.39-1.12-.36-2.19.08-3.19l37.83-82.22c0-.22.06-.39.17-.5.23-.56.45-1.12.67-1.68l19.17-41.7c.56-1.01,1.37-1.74,2.44-2.19,1.06-.45,2.13-.42,3.2.08,1.06.5,1.82,1.32,2.27,2.44.45,1.12.39,2.19-.17,3.19l-3.53,7.9c7.29-7.06,13.56-11.43,18.83-13.11,6.5-1.91,11.99-1.01,16.48,2.69,2.69,2.13,4.65,5.13,5.88,9,1.23,3.87,1.57,8.1,1.01,12.69-.67,7.4-3.17,14.52-7.48,21.35-4.32,6.84-9.56,12.11-15.72,15.81,7.62.45,14.57-.56,20.85-3.03,12.21-4.71,21.35-14.8,27.41-30.26.45-1.12,1.2-1.93,2.27-2.44Z"/><path class="cls-4" d="M650.97,285.59l-43.04,92.64c-2.58,6.05-3.78,10.93-3.62,14.63s1.35,6.19,3.53,7.48c2.19,1.29,4.99,1.15,8.41-.42,3.42-1.57,6.75-4.54,10-8.91,5.04-6.84,10.48-14.91,16.31-24.21.56-1.01,1.43-1.62,2.61-1.85,1.18-.22,2.27-.03,3.28.59,1.01.62,1.62,1.49,1.85,2.61.22,1.12.06,2.19-.5,3.19-5.94,9.53-11.49,17.77-16.64,24.72-2.92,3.92-6.33,7.17-10.26,9.75s-7.85,3.87-11.77,3.87c-2.8,0-5.38-.67-7.73-2.02-3.36-2.02-5.57-4.99-6.64-8.91-1.06-3.92-1.23-7.9-.5-11.94.73-4.04,2.05-8.13,3.95-12.27l43.04-92.47c.45-1.01,1.23-1.74,2.35-2.19,1.12-.45,2.21-.42,3.28.08,1.06.5,1.79,1.32,2.19,2.44.39,1.12.36,2.19-.08,3.19Z"/><path class="cls-4" d="M709.06,364.7c1.18-.28,2.27-.11,3.28.5,1.01.62,1.65,1.49,1.93,2.61.28,1.12.09,2.19-.59,3.19-7.4,12.33-15.58,21.94-24.55,28.84-8.97,6.89-17.71,10.34-26.23,10.34h-.84c-4.48-.11-8.44-1.21-11.85-3.28-3.42-2.08-6.08-4.96-7.99-8.66-2.69-5.04-3.5-10.93-2.44-17.65,1.07-6.73,3.9-13.62,8.49-20.68,3.81-5.72,7.45-10.34,10.93-13.87s6.53-5.8,9.16-6.81c2.63-1.01,4.82-1.54,6.56-1.6,1.74-.05,3.33.31,4.79,1.09,3.03,1.57,4.99,4.32,5.88,8.24.9,3.92.5,8.07-1.18,12.44-2.35,5.94-6.5,10.31-12.44,13.11-6.05,2.8-13.17,3.31-21.35,1.51-3.36,8.18-3.64,14.96-.84,20.34,2.35,4.6,6.5,7.01,12.44,7.23h.67c7.62,0,15.33-3.42,23.12-10.26,7.79-6.84,14.6-15.07,20.43-24.72.56-1.01,1.43-1.65,2.61-1.93ZM655.51,364.61c-.34.45-.62.95-.84,1.51,3.03.67,5.74.76,8.15.25,2.41-.5,4.37-1.09,5.88-1.77s2.86-1.62,4.04-2.86c1.18-1.23,2.02-2.24,2.52-3.03.5-.78.92-1.62,1.26-2.52.9-2.46,1.23-4.62,1.01-6.47-.23-1.85-.79-3-1.68-3.45-.79-.34-1.93-.22-3.45.34-1.51.56-3.84,2.35-6.98,5.38-3.14,3.03-6.45,7.23-9.92,12.61Z"/><path class="cls-3" d="M433.23,282.56c-2.69,8.18-10.26,27.86-22.7,59.02-5.94,14.91-10.37,26.06-13.28,33.46,8.97,4.6,17.09,10.37,24.38,17.32.78.79,1.2,1.77,1.26,2.94.06,1.18-.34,2.19-1.18,3.03-.84.84-1.85,1.29-3.03,1.35-1.18.06-2.21-.31-3.11-1.09-6.39-6.16-13.56-11.38-21.52-15.64-5.94,15.58-10.26,27.57-12.95,35.98-1.91,6.05-2.52,10.26-1.85,12.61,3.14-.45,8.41-4.43,15.8-11.94.78-.79,1.77-1.18,2.94-1.18s2.19.42,3.03,1.26c.84.84,1.26,1.85,1.26,3.03s-.39,2.16-1.18,2.94c-12.11,12.22-20.91,16.65-26.4,13.28-5.04-3.03-5.61-10.54-1.68-22.53,2.8-8.86,7.23-21.19,13.28-36.99-11.55-4.93-23.54-7.51-35.98-7.73-1.34,1.79-2.63,3.59-3.87,5.38-14.91,20.07-28.92,35.7-42.03,46.91-13.12,11.21-23.99,16.81-32.62,16.81-1.01,0-1.91-.06-2.69-.17-5.27-.79-8.74-3.59-10.42-8.41-1.57-4.71-1.06-10.31,1.51-16.81,2.58-6.5,6.89-12.95,12.95-19.34,9.64-10.2,20.68-18.13,33.12-23.79,12.44-5.66,25.56-8.66,39.34-9,.11-.11.22-.17.34-.17,25.33-34.07,44.33-58.85,57-74.32,9.19-11.1,15.75-18.16,19.67-21.19s7.17-3.87,9.75-2.52c1.57.79,2.52,2.16,2.86,4.12.34,1.96.31,3.92-.08,5.88-.39,1.96-1.04,4.46-1.93,7.48ZM294.69,421.11c13.56-10.54,28.47-26.84,44.72-48.93-11.32,1.01-22.14,4.06-32.45,9.16-10.31,5.1-19.5,11.97-27.57,20.6-5.16,5.49-8.77,10.76-10.84,15.8-2.08,5.04-2.66,8.91-1.77,11.6.56,1.57,1.79,2.52,3.7,2.86,5.49.9,13.56-2.8,24.21-11.1ZM389.51,371.34c2.69-7.06,7.06-18.05,13.12-32.96,12.44-30.94,19.89-50.44,22.36-58.51.56-1.46.95-2.8,1.18-4.04-4.48,4.15-11.15,11.66-20.01,22.53-11.77,14.57-28.36,36.26-49.77,65.07,11.43.9,22.47,3.53,33.12,7.9Z"/><path class="cls-3" d="M519.57,364.7c1.06-.5,2.16-.53,3.28-.08,1.12.45,1.9,1.21,2.35,2.27.45,1.07.45,2.16,0,3.28-6.95,17.82-17.71,29.59-32.28,35.31-13.23,5.15-28.3,4.82-45.23-1.01-4.15-.78-8.07-2.41-11.77-4.88-1.01-.67-1.62-1.54-1.85-2.61-.22-1.06-.05-2.1.5-3.11.56-1.01,1.37-1.68,2.44-2.02,1.06-.34,2.1-.22,3.11.34,3.36,1.57,6.67,2.97,9.92,4.2,4.04.56,8.13-.11,12.28-2.02,5.49-2.58,10.28-6.92,14.38-13.03,4.09-6.11,6.47-12.41,7.15-18.92.67-6.84-.62-11.6-3.87-14.29-2.13-1.79-4.99-2.13-8.58-1.01-5.04,1.57-11.6,6.75-19.67,15.55-8.07,8.8-13.84,16.56-17.32,23.29l-38.67,84.24c-.78,1.57-2.07,2.35-3.87,2.35-.56,0-1.18-.11-1.85-.34-1.01-.45-1.71-1.24-2.1-2.35-.39-1.12-.36-2.19.08-3.19l37.83-82.22c0-.22.06-.39.17-.5.23-.56.45-1.12.67-1.68l19.17-41.7c.56-1.01,1.37-1.74,2.44-2.19,1.06-.45,2.13-.42,3.2.08,1.06.5,1.82,1.32,2.27,2.44.45,1.12.39,2.19-.17,3.19l-3.53,7.9c7.29-7.06,13.56-11.43,18.83-13.11,6.5-1.91,11.99-1.01,16.48,2.69,2.69,2.13,4.65,5.13,5.88,9,1.23,3.87,1.57,8.1,1.01,12.69-.67,7.4-3.17,14.52-7.48,21.35-4.32,6.84-9.56,12.11-15.72,15.81,7.62.45,14.57-.56,20.85-3.03,12.21-4.71,21.35-14.8,27.41-30.26.45-1.12,1.2-1.93,2.27-2.44Z"/><path class="cls-3" d="M603.97,364.7c1.06-.5,2.16-.53,3.28-.08,1.12.45,1.9,1.21,2.35,2.27.45,1.07.45,2.16,0,3.28-6.95,17.82-17.71,29.59-32.28,35.31-13.23,5.15-28.3,4.82-45.23-1.01-4.15-.78-8.07-2.41-11.77-4.88-1.01-.67-1.62-1.54-1.85-2.61-.22-1.06-.05-2.1.5-3.11.56-1.01,1.37-1.68,2.44-2.02,1.06-.34,2.1-.22,3.11.34,3.36,1.57,6.67,2.97,9.92,4.2,4.04.56,8.13-.11,12.28-2.02,5.49-2.58,10.28-6.92,14.38-13.03,4.09-6.11,6.47-12.41,7.15-18.92.67-6.84-.62-11.6-3.87-14.29-2.13-1.79-4.99-2.13-8.58-1.01-5.04,1.57-11.6,6.75-19.67,15.55-8.07,8.8-13.84,16.56-17.32,23.29l-38.67,84.24c-.78,1.57-2.07,2.35-3.87,2.35-.56,0-1.18-.11-1.85-.34-1.01-.45-1.71-1.24-2.1-2.35-.39-1.12-.36-2.19.08-3.19l37.83-82.22c0-.22.06-.39.17-.5.23-.56.45-1.12.67-1.68l19.17-41.7c.56-1.01,1.37-1.74,2.44-2.19,1.06-.45,2.13-.42,3.2.08,1.06.5,1.82,1.32,2.27,2.44.45,1.12.39,2.19-.17,3.19l-3.53,7.9c7.29-7.06,13.56-11.43,18.83-13.11,6.5-1.91,11.99-1.01,16.48,2.69,2.69,2.13,4.65,5.13,5.88,9,1.23,3.87,1.57,8.1,1.01,12.69-.67,7.4-3.17,14.52-7.48,21.35-4.32,6.84-9.56,12.11-15.72,15.81,7.62.45,14.57-.56,20.85-3.03,12.21-4.71,21.35-14.8,27.41-30.26.45-1.12,1.2-1.93,2.27-2.44Z"/><path class="cls-3" d="M650.97,285.59l-43.04,92.64c-2.58,6.05-3.78,10.93-3.62,14.63s1.35,6.19,3.53,7.48c2.19,1.29,4.99,1.15,8.41-.42,3.42-1.57,6.75-4.54,10-8.91,5.04-6.84,10.48-14.91,16.31-24.21.56-1.01,1.43-1.62,2.61-1.85,1.18-.22,2.27-.03,3.28.59,1.01.62,1.62,1.49,1.85,2.61.22,1.12.06,2.19-.5,3.19-5.94,9.53-11.49,17.77-16.64,24.72-2.92,3.92-6.33,7.17-10.26,9.75s-7.85,3.87-11.77,3.87c-2.8,0-5.38-.67-7.73-2.02-3.36-2.02-5.57-4.99-6.64-8.91-1.06-3.92-1.23-7.9-.5-11.94.73-4.04,2.05-8.13,3.95-12.27l43.04-92.47c.45-1.01,1.23-1.74,2.35-2.19,1.12-.45,2.21-.42,3.28.08,1.06.5,1.79,1.32,2.19,2.44.39,1.12.36,2.19-.08,3.19Z"/><path class="cls-3" d="M709.06,364.7c1.18-.28,2.27-.11,3.28.5,1.01.62,1.65,1.49,1.93,2.61.28,1.12.09,2.19-.59,3.19-7.4,12.33-15.58,21.94-24.55,28.84-8.97,6.89-17.71,10.34-26.23,10.34h-.84c-4.48-.11-8.44-1.21-11.85-3.28-3.42-2.08-6.08-4.96-7.99-8.66-2.69-5.04-3.5-10.93-2.44-17.65,1.07-6.73,3.9-13.62,8.49-20.68,3.81-5.72,7.45-10.34,10.93-13.87s6.53-5.8,9.16-6.81c2.63-1.01,4.82-1.54,6.56-1.6,1.74-.05,3.33.31,4.79,1.09,3.03,1.57,4.99,4.32,5.88,8.24.9,3.92.5,8.07-1.18,12.44-2.35,5.94-6.5,10.31-12.44,13.11-6.05,2.8-13.17,3.31-21.35,1.51-3.36,8.18-3.64,14.96-.84,20.34,2.35,4.6,6.5,7.01,12.44,7.23h.67c7.62,0,15.33-3.42,23.12-10.26,7.79-6.84,14.6-15.07,20.43-24.72.56-1.01,1.43-1.65,2.61-1.93ZM655.51,364.61c-.34.45-.62.95-.84,1.51,3.03.67,5.74.76,8.15.25,2.41-.5,4.37-1.09,5.88-1.77s2.86-1.62,4.04-2.86c1.18-1.23,2.02-2.24,2.52-3.03.5-.78.92-1.62,1.26-2.52.9-2.46,1.23-4.62,1.01-6.47-.23-1.85-.79-3-1.68-3.45-.79-.34-1.93-.22-3.45.34-1.51.56-3.84,2.35-6.98,5.38-3.14,3.03-6.45,7.23-9.92,12.61Z"/><path class="cls-4" d="M589.79,567.86c1.18-.34,2.27-.22,3.28.34,1.01.56,1.68,1.4,2.02,2.52.34,1.12.22,2.24-.34,3.36-13.45,25.11-27.63,37.66-42.54,37.66h-.17c-3.36,0-6.7-.67-10-2.02-3.31-1.34-6.28-2.97-8.91-4.88-2.64-1.91-5.36-4.43-8.16-7.57-2.8-3.14-5.13-5.97-6.98-8.49-1.85-2.52-3.93-5.72-6.22-9.58-2.3-3.87-3.98-6.78-5.04-8.74-1.07-1.96-2.44-4.57-4.12-7.82-1.91-3.47-3.08-5.6-3.53-6.39-1.68-2.58-3.42-4.99-5.21-7.23-1.79.34-3.64.67-5.55,1.01-3.36.56-6.62,1.01-9.75,1.34l-11.94,26.4c-2.92,6.28-6.03,11.8-9.33,16.56-3.31,4.76-6.39,8.46-9.25,11.1-2.86,2.63-5.77,4.79-8.74,6.47-2.97,1.68-5.41,2.77-7.31,3.28-1.91.5-3.7.81-5.38.92h-1.68c-7.51,0-13.17-2.97-16.98-8.91-2.24-3.59-3.31-7.68-3.2-12.27.11-4.6,1.46-9.19,4.04-13.79.56-1.12,1.43-1.82,2.61-2.1,1.18-.28,2.27-.14,3.28.42,1.01.56,1.68,1.4,2.02,2.52.34,1.12.22,2.19-.34,3.19-3.81,6.95-4.2,12.78-1.18,17.49,2.36,3.59,5.94,5.21,10.76,4.88,5.72-.34,11.49-3.48,17.32-9.42,5.83-5.94,11.04-13.9,15.64-23.88l9.92-22.19c-18.27.56-28.7-3.3-31.27-11.6-.9-3.03-.45-6.05,1.34-9.08s4.65-5.44,8.58-7.23c2.58-1.23,5.49-2.07,8.74-2.52,3.25-.45,7.06-.31,11.43.42,4.37.73,8.69,2.21,12.95,4.46l29.59-65.57c.45-1.01,1.23-1.74,2.35-2.19,1.12-.45,2.21-.42,3.28.08,1.06.5,1.82,1.32,2.27,2.44.45,1.12.39,2.19-.17,3.2l-30.1,66.58c3.25,2.47,6.39,5.38,9.42,8.74,12.67-2.58,24.07-5.94,34.22-10.09,10.14-4.15,18.38-8.6,24.71-13.37,6.33-4.76,11.35-9.58,15.05-14.46s6.16-9.72,7.4-14.54c1.57-6.16,1.23-12.05-1.01-17.65-2.24-5.6-6.28-10.54-12.11-14.8-7.51-5.72-17.04-9.5-28.58-11.35-11.55-1.85-24.1-1.54-37.66.92-11.77,2.13-22.76,5.61-32.96,10.42-10.2,4.82-17.71,10.09-22.53,15.8-6.05,7.17-6.05,13.56,0,19.17.9.79,1.35,1.76,1.35,2.94s-.39,2.21-1.18,3.11c-.79.9-1.77,1.34-2.94,1.34s-2.21-.39-3.11-1.18c-4.71-4.37-7.12-9.25-7.23-14.63-.11-5.38,2.07-10.82,6.56-16.31,5.49-6.39,13.73-12.25,24.71-17.57,10.98-5.32,22.92-9.16,35.81-11.52,14.68-2.58,28.38-2.83,41.11-.76,12.72,2.08,23.34,6.3,31.86,12.69,7.06,5.38,12.02,11.69,14.88,18.92,2.86,7.23,3.33,14.71,1.43,22.45-3.47,13.68-13.34,25.84-29.59,36.49-14.46,9.42-32.56,16.54-54.31,21.35,1.12,1.46,2.13,2.92,3.03,4.37.67,1.01,2.02,3.42,4.04,7.23,1.46,2.92,2.66,5.27,3.62,7.06.95,1.79,2.46,4.43,4.54,7.9,2.07,3.47,3.92,6.36,5.55,8.66,1.62,2.3,3.64,4.88,6.05,7.73,2.41,2.86,4.71,5.15,6.89,6.89,2.19,1.74,4.62,3.19,7.31,4.37,2.69,1.18,5.32,1.82,7.9,1.93h.17c11.43,0,23.09-11.1,34.97-33.29.56-1.12,1.43-1.85,2.61-2.19ZM472.85,543.31l4.2-9.08c-5.38-2.91-10.76-4.37-16.14-4.37-3.7,0-7.01.67-9.92,2.02-1.91.9-3.34,1.93-4.29,3.11-.95,1.18-1.26,2.16-.92,2.94.22,1.01,1.12,1.96,2.69,2.86,1.57.9,4.48,1.65,8.74,2.27,4.26.62,9.47.7,15.64.25ZM486.97,541.63h.17c-1.01-.9-2.02-1.74-3.03-2.52l-1.35,3.19c1.35-.22,2.74-.45,4.2-.67Z"/><path class="cls-4" d="M681.17,536.42c1.12-.34,2.19-.19,3.2.42,1.01.62,1.68,1.49,2.02,2.61.34,1.12.17,2.19-.51,3.19-3.47,6.17-7.9,10.82-13.28,13.96-5.38,3.14-10.99,4.43-16.81,3.87-3.14-.34-6.11-1.29-8.91-2.86-1.57,2.47-3.36,4.99-5.38,7.57-3.93,4.93-8.3,8.8-13.12,11.6-4.82,2.8-9.47,4.2-13.96,4.2-2.24,0-4.32-.39-6.22-1.18-3.25-1.23-6.03-3.61-8.32-7.15-2.29-3.53-3.22-8.77-2.77-15.72.23-6.05,2.3-13.11,6.22-21.19,3.92-8.07,9.3-15.64,16.14-22.7.9-.9,1.93-1.34,3.11-1.34s2.16.39,2.94,1.18c.34.34.61.73.84,1.18,8.41-4.93,15.8-5.6,22.19-2.02,2.58,1.46,4.62,3.56,6.14,6.31,1.51,2.75,2.24,6.47,2.19,11.18-.06,4.71-1.26,9.92-3.62,15.64-.67,1.79-1.4,3.48-2.19,5.04,1.68.9,3.59,1.46,5.72,1.68,2.69.34,5.38.03,8.07-.92,2.69-.95,5.21-2.49,7.57-4.62,2.35-2.13,4.37-4.76,6.05-7.9.67-1.01,1.57-1.68,2.69-2.02ZM645.36,541.96c2.24-5.38,3.25-10.11,3.03-14.21-.22-4.09-1.57-6.86-4.04-8.32-3.14-1.68-7.31-1.23-12.53,1.34-5.21,2.58-10.34,7.29-15.38,14.12-1.01,1.34-2.3,1.91-3.87,1.68-2.24,4.15-3.95,8.04-5.13,11.69-1.18,3.64-1.82,6.64-1.93,9-.45,8.07,1.46,12.95,5.72,14.63,2.8,1.01,6.45.5,10.93-1.51,4.48-2.02,8.69-5.49,12.61-10.42,2.02-2.58,3.75-5.1,5.21-7.57-2.58-2.91-4.43-6.33-5.55-10.26-.45-1.12-.39-2.19.17-3.19.56-1.01,1.4-1.68,2.52-2.02.78-.22,1.54-.28,2.27-.17.73.11,1.37.45,1.93,1.01.56.56.95,1.18,1.18,1.85.45,1.57,1.12,3.03,2.02,4.37.34-.67.62-1.35.84-2.02Z"/><path class="cls-4" d="M727.91,457.22l-43.04,92.64c-2.58,6.05-3.78,10.93-3.62,14.63s1.35,6.19,3.53,7.48c2.19,1.29,4.99,1.15,8.41-.42,3.42-1.57,6.75-4.54,10-8.91,5.04-6.84,10.48-14.91,16.31-24.21.56-1.01,1.43-1.62,2.61-1.85,1.18-.22,2.27-.03,3.28.59,1.01.62,1.62,1.49,1.85,2.61.22,1.12.06,2.19-.5,3.19-5.94,9.53-11.49,17.77-16.64,24.72-2.92,3.92-6.33,7.17-10.26,9.75s-7.85,3.87-11.77,3.87c-2.8,0-5.38-.67-7.73-2.02-3.36-2.02-5.57-4.99-6.64-8.91-1.06-3.92-1.23-7.9-.5-11.94.73-4.04,2.05-8.13,3.95-12.27l43.04-92.47c.45-1.01,1.23-1.74,2.35-2.19,1.12-.45,2.21-.42,3.28.08,1.06.5,1.79,1.32,2.19,2.44.39,1.12.36,2.19-.08,3.19Z"/><path class="cls-4" d="M768.44,457.22l-43.04,92.64c-2.58,6.05-3.78,10.93-3.62,14.63s1.35,6.19,3.53,7.48c2.19,1.29,4.99,1.15,8.41-.42,3.42-1.57,6.75-4.54,10-8.91,5.04-6.84,10.48-14.91,16.31-24.21.56-1.01,1.43-1.62,2.61-1.85,1.18-.22,2.27-.03,3.28.59,1.01.62,1.62,1.49,1.85,2.61.22,1.12.06,2.19-.5,3.19-5.94,9.53-11.49,17.77-16.64,24.72-2.92,3.92-6.33,7.17-10.26,9.75s-7.85,3.87-11.77,3.87c-2.8,0-5.38-.67-7.73-2.02-3.36-2.02-5.57-4.99-6.64-8.91-1.06-3.92-1.23-7.9-.5-11.94.73-4.04,2.05-8.13,3.95-12.27l43.04-92.47c.45-1.01,1.23-1.74,2.35-2.19,1.12-.45,2.21-.42,3.28.08,1.06.5,1.79,1.32,2.19,2.44.39,1.12.36,2.19-.08,3.19Z"/><path class="cls-2" d="M589.79,567.86c1.18-.34,2.27-.22,3.28.34,1.01.56,1.68,1.4,2.02,2.52.34,1.12.22,2.24-.34,3.36-13.45,25.11-27.63,37.66-42.54,37.66h-.17c-3.36,0-6.7-.67-10-2.02-3.31-1.34-6.28-2.97-8.91-4.88-2.64-1.91-5.36-4.43-8.16-7.57-2.8-3.14-5.13-5.97-6.98-8.49-1.85-2.52-3.93-5.72-6.22-9.58-2.3-3.87-3.98-6.78-5.04-8.74-1.07-1.96-2.44-4.57-4.12-7.82-1.91-3.47-3.08-5.6-3.53-6.39-1.68-2.58-3.42-4.99-5.21-7.23-1.79.34-3.64.67-5.55,1.01-3.36.56-6.62,1.01-9.75,1.34l-11.94,26.4c-2.92,6.28-6.03,11.8-9.33,16.56-3.31,4.76-6.39,8.46-9.25,11.1-2.86,2.63-5.77,4.79-8.74,6.47-2.97,1.68-5.41,2.77-7.31,3.28-1.91.5-3.7.81-5.38.92h-1.68c-7.51,0-13.17-2.97-16.98-8.91-2.24-3.59-3.31-7.68-3.2-12.27.11-4.6,1.46-9.19,4.04-13.79.56-1.12,1.43-1.82,2.61-2.1,1.18-.28,2.27-.14,3.28.42,1.01.56,1.68,1.4,2.02,2.52.34,1.12.22,2.19-.34,3.19-3.81,6.95-4.2,12.78-1.18,17.49,2.36,3.59,5.94,5.21,10.76,4.88,5.72-.34,11.49-3.48,17.32-9.42,5.83-5.94,11.04-13.9,15.64-23.88l9.92-22.19c-18.27.56-28.7-3.3-31.27-11.6-.9-3.03-.45-6.05,1.34-9.08s4.65-5.44,8.58-7.23c2.58-1.23,5.49-2.07,8.74-2.52,3.25-.45,7.06-.31,11.43.42,4.37.73,8.69,2.21,12.95,4.46l29.59-65.57c.45-1.01,1.23-1.74,2.35-2.19,1.12-.45,2.21-.42,3.28.08,1.06.5,1.82,1.32,2.27,2.44.45,1.12.39,2.19-.17,3.2l-30.1,66.58c3.25,2.47,6.39,5.38,9.42,8.74,12.67-2.58,24.07-5.94,34.22-10.09,10.14-4.15,18.38-8.6,24.71-13.37,6.33-4.76,11.35-9.58,15.05-14.46s6.16-9.72,7.4-14.54c1.57-6.16,1.23-12.05-1.01-17.65-2.24-5.6-6.28-10.54-12.11-14.8-7.51-5.72-17.04-9.5-28.58-11.35-11.55-1.85-24.1-1.54-37.66.92-11.77,2.13-22.76,5.61-32.96,10.42-10.2,4.82-17.71,10.09-22.53,15.8-6.05,7.17-6.05,13.56,0,19.17.9.79,1.35,1.76,1.35,2.94s-.39,2.21-1.18,3.11c-.79.9-1.77,1.34-2.94,1.34s-2.21-.39-3.11-1.18c-4.71-4.37-7.12-9.25-7.23-14.63-.11-5.38,2.07-10.82,6.56-16.31,5.49-6.39,13.73-12.25,24.71-17.57,10.98-5.32,22.92-9.16,35.81-11.52,14.68-2.58,28.38-2.83,41.11-.76,12.72,2.08,23.34,6.3,31.86,12.69,7.06,5.38,12.02,11.69,14.88,18.92,2.86,7.23,3.33,14.71,1.43,22.45-3.47,13.68-13.34,25.84-29.59,36.49-14.46,9.42-32.56,16.54-54.31,21.35,1.12,1.46,2.13,2.92,3.03,4.37.67,1.01,2.02,3.42,4.04,7.23,1.46,2.92,2.66,5.27,3.62,7.06.95,1.79,2.46,4.43,4.54,7.9,2.07,3.47,3.92,6.36,5.55,8.66,1.62,2.3,3.64,4.88,6.05,7.73,2.41,2.86,4.71,5.15,6.89,6.89,2.19,1.74,4.62,3.19,7.31,4.37,2.69,1.18,5.32,1.82,7.9,1.93h.17c11.43,0,23.09-11.1,34.97-33.29.56-1.12,1.43-1.85,2.61-2.19ZM472.85,543.31l4.2-9.08c-5.38-2.91-10.76-4.37-16.14-4.37-3.7,0-7.01.67-9.92,2.02-1.91.9-3.34,1.93-4.29,3.11-.95,1.18-1.26,2.16-.92,2.94.22,1.01,1.12,1.96,2.69,2.86,1.57.9,4.48,1.65,8.74,2.27,4.26.62,9.47.7,15.64.25ZM486.97,541.63h.17c-1.01-.9-2.02-1.74-3.03-2.52l-1.35,3.19c1.35-.22,2.74-.45,4.2-.67Z"/><path class="cls-2" d="M681.17,536.42c1.12-.34,2.19-.19,3.2.42,1.01.62,1.68,1.49,2.02,2.61.34,1.12.17,2.19-.51,3.19-3.47,6.17-7.9,10.82-13.28,13.96-5.38,3.14-10.99,4.43-16.81,3.87-3.14-.34-6.11-1.29-8.91-2.86-1.57,2.47-3.36,4.99-5.38,7.57-3.93,4.93-8.3,8.8-13.12,11.6-4.82,2.8-9.47,4.2-13.96,4.2-2.24,0-4.32-.39-6.22-1.18-3.25-1.23-6.03-3.61-8.32-7.15-2.29-3.53-3.22-8.77-2.77-15.72.23-6.05,2.3-13.11,6.22-21.19,3.92-8.07,9.3-15.64,16.14-22.7.9-.9,1.93-1.34,3.11-1.34s2.16.39,2.94,1.18c.34.34.61.73.84,1.18,8.41-4.93,15.8-5.6,22.19-2.02,2.58,1.46,4.62,3.56,6.14,6.31,1.51,2.75,2.24,6.47,2.19,11.18-.06,4.71-1.26,9.92-3.62,15.64-.67,1.79-1.4,3.48-2.19,5.04,1.68.9,3.59,1.46,5.72,1.68,2.69.34,5.38.03,8.07-.92,2.69-.95,5.21-2.49,7.57-4.62,2.35-2.13,4.37-4.76,6.05-7.9.67-1.01,1.57-1.68,2.69-2.02ZM645.36,541.96c2.24-5.38,3.25-10.11,3.03-14.21-.22-4.09-1.57-6.86-4.04-8.32-3.14-1.68-7.31-1.23-12.53,1.34-5.21,2.58-10.34,7.29-15.38,14.12-1.01,1.34-2.3,1.91-3.87,1.68-2.24,4.15-3.95,8.04-5.13,11.69-1.18,3.64-1.82,6.64-1.93,9-.45,8.07,1.46,12.95,5.72,14.63,2.8,1.01,6.45.5,10.93-1.51,4.48-2.02,8.69-5.49,12.61-10.42,2.02-2.58,3.75-5.1,5.21-7.57-2.58-2.91-4.43-6.33-5.55-10.26-.45-1.12-.39-2.19.17-3.19.56-1.01,1.4-1.68,2.52-2.02.78-.22,1.54-.28,2.27-.17.73.11,1.37.45,1.93,1.01.56.56.95,1.18,1.18,1.85.45,1.57,1.12,3.03,2.02,4.37.34-.67.62-1.35.84-2.02Z"/><path class="cls-2" d="M727.91,457.22l-43.04,92.64c-2.58,6.05-3.78,10.93-3.62,14.63s1.35,6.19,3.53,7.48c2.19,1.29,4.99,1.15,8.41-.42,3.42-1.57,6.75-4.54,10-8.91,5.04-6.84,10.48-14.91,16.31-24.21.56-1.01,1.43-1.62,2.61-1.85,1.18-.22,2.27-.03,3.28.59,1.01.62,1.62,1.49,1.85,2.61.22,1.12.06,2.19-.5,3.19-5.94,9.53-11.49,17.77-16.64,24.72-2.92,3.92-6.33,7.17-10.26,9.75s-7.85,3.87-11.77,3.87c-2.8,0-5.38-.67-7.73-2.02-3.36-2.02-5.57-4.99-6.64-8.91-1.06-3.92-1.23-7.9-.5-11.94.73-4.04,2.05-8.13,3.95-12.27l43.04-92.47c.45-1.01,1.23-1.74,2.35-2.19,1.12-.45,2.21-.42,3.28.08,1.06.5,1.79,1.32,2.19,2.44.39,1.12.36,2.19-.08,3.19Z"/><path class="cls-2" d="M768.44,457.22l-43.04,92.64c-2.58,6.05-3.78,10.93-3.62,14.63s1.35,6.19,3.53,7.48c2.19,1.29,4.99,1.15,8.41-.42,3.42-1.57,6.75-4.54,10-8.91,5.04-6.84,10.48-14.91,16.31-24.21.56-1.01,1.43-1.62,2.61-1.85,1.18-.22,2.27-.03,3.28.59,1.01.62,1.62,1.49,1.85,2.61.22,1.12.06,2.19-.5,3.19-5.94,9.53-11.49,17.77-16.64,24.72-2.92,3.92-6.33,7.17-10.26,9.75s-7.85,3.87-11.77,3.87c-2.8,0-5.38-.67-7.73-2.02-3.36-2.02-5.57-4.99-6.64-8.91-1.06-3.92-1.23-7.9-.5-11.94.73-4.04,2.05-8.13,3.95-12.27l43.04-92.47c.45-1.01,1.23-1.74,2.35-2.19,1.12-.45,2.21-.42,3.28.08,1.06.5,1.79,1.32,2.19,2.44.39,1.12.36,2.19-.08,3.19Z"/></svg>