<?xml version="1.0" encoding="UTF-8"?><svg id="Layer_7" xmlns="http://www.w3.org/2000/svg" viewBox="0 0 1024 768"><defs><style>.cls-1{fill:#fff;stroke:#fff;stroke-miterlimit:10;stroke-width:2px;}</style></defs><path d="M566.63,289.46c-3.02,0-5.99-.11-8.82-.33-2.99-.24-5.95-.68-8.82-1.33-2.73-.62-5.13-1.19-7.14-1.68-2.16-.54-4.68-1.34-7.5-2.39-2.71-1.01-4.79-1.79-6.26-2.35-1.54-.59-3.75-1.52-6.57-2.75-.43-.18-.84-.35-1.23-.51-2.83,2.76-5.8,5.05-8.86,6.81-3.88,2.23-7.56,3.57-10.93,3.97-2.08.25-3.95.38-5.58.38-.82,0-1.6-.03-2.31-.1-2.18-.19-4.24-.63-6.11-1.3-5.07-1.68-9.27-4.66-12.39-8.83-3.33-4.45-4.57-9.04-3.69-13.65l.05-.21c.76-3.05,2.28-5.59,4.54-7.54,2.16-1.87,4.58-3.06,7.2-3.53,2.02-.36,4.05-.63,6.06-.81.96-.09,1.8-.13,2.57-.13,1.02,0,1.88.08,2.64.23,6.86.72,14.15,2.4,21.71,5,2.12-3.21,4.17-6.96,6.1-11.18l51.56-111.76c.84-1.9,2.4-3.38,4.49-4.23,1.01-.4,2.04-.61,3.06-.61,1.17,0,2.31.26,3.41.78,2.04.96,3.51,2.59,4.26,4.72.73,2.08.67,4.2-.19,6.14l-51.58,111.81c-1.76,3.79-3.63,7.33-5.58,10.58,1.84.77,3.35,1.38,4.51,1.83,1.66.64,3.96,1.47,7.04,2.55,2.82.99,5.35,1.69,7.5,2.1,2.29.43,5,.87,8.06,1.3,2.9.41,5.97.61,9.12.61h.15c3.23,0,6.66-.23,10.2-.66,7.76-.97,15.2-2.96,22.11-5.9,6.87-2.92,12.85-6.54,17.77-10.75,4.99-4.26,9.25-8.87,12.68-13.68,3.38-4.76,5.94-9.7,7.58-14.68,2.02-6.01,2.69-11.62,1.98-16.69-.67-4.82-2.48-8.55-5.52-11.4l-.09-.09c-1.08-1.08-2.38-2.04-3.85-2.87-1.45-.81-3.6-1.54-6.41-2.18-2.86-.65-6.12-.97-9.67-.97h-.12c-3.61,0-8.2.64-13.67,1.87-5.54,1.25-11.6,3.15-17.99,5.66-1,.4-2.07.62-3.13.62s-2.14-.22-3.16-.65c-2.03-.85-3.56-2.37-4.42-4.41-.84-1.98-.9-4.1-.16-6.12.74-2.01,2.2-3.62,4.22-4.64l.1-.05c17.29-8.09,30.77-16.98,40.07-26.42,8.78-8.92,12.93-17.3,12.34-24.91-.28-4.02-1.93-7.51-5.04-10.7-3.26-3.34-7.68-5.83-13.14-7.41-4.06-1.24-8.42-1.91-13.02-2-.42,0-.85-.01-1.27-.01-4.33,0-8.94.45-13.72,1.32-5.22.96-10.7,2.67-16.28,5.07-5.64,2.43-11.34,5.53-16.94,9.21-5.6,3.68-11.38,8.3-17.17,13.73-5.8,5.44-11.38,11.68-16.58,18.54-1.28,1.72-3.15,2.82-5.38,3.14-.42.06-.83.09-1.23.09-1.82,0-3.54-.62-4.98-1.78-1.67-1.34-2.72-3.21-3.04-5.38-.32-2.23.2-4.33,1.5-6.08,17.15-22.51,36.87-38.37,58.61-47.16,12.08-4.88,23.74-7.35,34.66-7.35,6.67,0,13.2.92,19.41,2.74,5.8,1.68,10.91,4.11,15.19,7.21,4.35,3.16,7.86,6.94,10.44,11.26,2.62,4.38,4.14,9.18,4.53,14.26.64,8.85-2.06,17.84-8.01,26.76-3.96,5.92-9.3,11.73-15.97,17.37,10.12.83,18.42,4.28,24.71,10.28,5.56,5.29,9.06,12.09,10.39,20.22,1.29,7.91.43,16.37-2.55,25.14-2.11,6.37-5.36,12.7-9.64,18.77-4.25,6.03-9.47,11.71-15.51,16.9-6.1,5.24-13.45,9.74-21.84,13.37-8.4,3.63-17.43,6.02-26.85,7.08-4.3.47-8.46.71-12.38.72h-.24Z"/><path d="M594.95,101.36c6.32,0,12.41.86,18.29,2.58,5.38,1.56,10.04,3.76,13.97,6.61,3.93,2.85,7.05,6.21,9.35,10.07,2.3,3.86,3.63,8.04,3.98,12.52.58,7.96-1.87,16.03-7.35,24.23-5.48,8.19-13.7,16.11-24.67,23.76,2.45-.25,4.8-.37,7.06-.37,11.39,0,20.36,3.13,26.92,9.38,4.94,4.7,8.01,10.69,9.2,17.97,1.19,7.29.39,15.02-2.39,23.21-2,6.06-5.05,11.97-9.13,17.76-4.08,5.78-9.03,11.17-14.85,16.17-5.82,5-12.76,9.24-20.82,12.74-8.06,3.49-16.63,5.75-25.71,6.78-4.15.46-8.13.69-11.94.7-.08,0-.17,0-.25,0-2.93,0-5.77-.11-8.49-.32-2.8-.22-5.55-.64-8.24-1.25-2.69-.61-5.05-1.17-7.07-1.67-2.02-.5-4.37-1.25-7.07-2.26-2.69-1-4.77-1.78-6.23-2.34-1.46-.56-3.59-1.45-6.39-2.68-1.57-.67-2.86-1.17-3.87-1.5-3.13,3.37-6.41,6.04-9.82,8.01-3.42,1.97-6.55,3.12-9.41,3.47-1.93.23-3.63.35-5.1.35-.71,0-1.36-.03-1.96-.08-1.85-.17-3.56-.53-5.13-1.08-4.37-1.45-7.88-3.94-10.52-7.46-2.64-3.53-3.63-7.03-2.96-10.5.56-2.24,1.64-4.07,3.27-5.47,1.62-1.41,3.38-2.28,5.29-2.62,1.9-.34,3.81-.6,5.71-.77.83-.08,1.57-.11,2.21-.11.82,0,1.49.06,1.99.19,7.51.77,15.47,2.71,23.89,5.84,2.9-3.93,5.64-8.7,8.21-14.31l51.56-111.75c.45-1.01,1.23-1.74,2.35-2.19.53-.21,1.05-.32,1.57-.32.58,0,1.15.13,1.71.4,1.07.5,1.8,1.31,2.19,2.43.4,1.12.37,2.18-.08,3.19l-51.56,111.75c-2.46,5.27-5.08,9.99-7.87,14.14.67.22,1.23.44,1.68.67,3.14,1.34,5.58,2.34,7.32,3.01,1.74.67,4.12,1.53,7.15,2.59,3.03,1.06,5.72,1.81,8.08,2.25,2.35.44,5.1.89,8.24,1.33,3.09.43,6.31.65,9.67.65h.17c3.42,0,6.98-.24,10.68-.69,8.18-1.03,15.91-3.09,23.19-6.18,7.28-3.1,13.55-6.9,18.81-11.39,5.26-4.5,9.71-9.3,13.34-14.4,3.63-5.11,6.34-10.35,8.12-15.74,2.23-6.62,2.94-12.78,2.15-18.5-.8-5.71-3.05-10.31-6.75-13.77-1.35-1.34-2.92-2.52-4.71-3.52-1.8-1.01-4.29-1.87-7.49-2.59-3.16-.71-6.68-1.07-10.55-1.07h-.13c-3.92,0-8.77.66-14.54,1.96-5.77,1.3-11.96,3.25-18.57,5.84-.56.23-1.12.34-1.67.34s-1.08-.11-1.61-.33c-1.07-.45-1.83-1.2-2.27-2.27-.45-1.06-.48-2.13-.09-3.19.39-1.06,1.14-1.88,2.26-2.44,17.81-8.33,31.54-17.41,41.22-27.24,9.67-9.83,14.17-19.17,13.48-28.02-.35-4.93-2.4-9.33-6.16-13.19-3.77-3.86-8.73-6.68-14.9-8.46-4.37-1.34-9.06-2.05-14.04-2.16-.45,0-.9-.01-1.35-.01-4.59,0-9.4.46-14.45,1.39-5.55,1.02-11.26,2.8-17.14,5.33-5.88,2.53-11.73,5.71-17.55,9.54-5.82,3.82-11.73,8.54-17.71,14.16-5.99,5.62-11.66,11.96-17.03,19.03-.67.9-1.6,1.43-2.77,1.6-.22.03-.44.05-.66.05-.91,0-1.73-.29-2.46-.88-.9-.73-1.43-1.68-1.6-2.85-.17-1.18.08-2.21.75-3.11,16.77-22,35.74-37.29,56.9-45.85,11.66-4.7,22.71-7.05,33.15-7.05M495.65,276.85c4.92,0,9.88-2.25,14.85-6.75-6.4-2.23-12.56-3.62-18.5-4.17-.99-.11-1.88-.16-2.66-.16h-.03c-4.04,0-6.22.74-6.55,2.2-.22,1.12.4,2.52,1.86,4.2,1.46,1.68,3.42,2.96,5.89,3.85,1.71.55,3.43.82,5.14.82M594.95,93.36c-11.43,0-23.59,2.57-36.15,7.64-22.43,9.07-42.7,25.36-60.27,48.42l-.02.03-.02.03c-1.96,2.62-2.74,5.75-2.26,9.04.47,3.2,2.02,5.94,4.5,7.94,2.13,1.73,4.73,2.66,7.48,2.66.6,0,1.2-.04,1.8-.13,3.24-.47,6.09-2.14,8.01-4.7,5.07-6.67,10.49-12.74,16.11-18.02,5.62-5.27,11.21-9.75,16.63-13.31,5.41-3.55,10.9-6.54,16.32-8.88,5.3-2.29,10.49-3.9,15.42-4.81,4.54-.83,8.92-1.26,13-1.26.4,0,.79,0,1.19.01,4.23.09,8.22.7,11.87,1.81l.06.02.06.02c4.79,1.39,8.63,3.53,11.39,6.36,2.45,2.52,3.7,5.11,3.91,8.16v.03s0,.03,0,.03c.5,6.4-3.27,13.73-11.2,21.79-8.93,9.07-21.95,17.65-38.71,25.51l17.42-37.75.03-.06.03-.06c1.27-2.89,1.38-6.03.3-9.08-1.1-3.12-3.35-5.61-6.33-7.01-1.63-.77-3.35-1.16-5.11-1.16-1.54,0-3.07.3-4.55.89-3.06,1.23-5.35,3.41-6.66,6.31l-51.54,111.7c-1.36,2.96-2.76,5.66-4.2,8.09-6.71-2.11-13.2-3.51-19.38-4.18-.97-.19-2.04-.28-3.24-.28-.89,0-1.85.05-2.93.15-2.12.19-4.27.48-6.4.86-3.34.6-6.41,2.09-9.13,4.45-2.88,2.48-4.83,5.71-5.79,9.59l-.05.21-.04.21c-.76,3.96-.61,10.1,4.42,16.8,3.6,4.81,8.43,8.26,14.33,10.23,2.17.76,4.53,1.26,7.01,1.48.84.07,1.73.11,2.67.11,1.81,0,3.79-.13,6.05-.4,3.97-.47,8.04-1.94,12.45-4.48,2.64-1.52,5.21-3.39,7.69-5.58,2.31,1,4.17,1.77,5.54,2.3,1.48.57,3.58,1.35,6.3,2.37,3.01,1.12,5.6,1.95,7.93,2.52,2.04.5,4.47,1.08,7.22,1.7,3.05.69,6.2,1.17,9.38,1.42,2.94.23,6.01.34,9.12.34h.27c4.07,0,8.37-.26,12.79-.75,9.84-1.11,19.26-3.6,28.01-7.39,8.76-3.8,16.45-8.51,22.86-14.01,6.29-5.41,11.73-11.33,16.17-17.63,4.51-6.4,7.93-13.07,10.18-19.83,3.19-9.4,4.1-18.5,2.7-27.04-1.48-9.01-5.37-16.57-11.58-22.48-5.1-4.86-11.35-8.21-18.65-10.01,4.14-4.09,7.64-8.27,10.48-12.52,6.46-9.67,9.38-19.51,8.68-29.25-.44-5.74-2.15-11.12-5.09-16.04-2.86-4.78-6.73-8.97-11.52-12.45-4.66-3.38-10.19-6.01-16.44-7.82-6.56-1.92-13.46-2.89-20.51-2.89h0ZM536.45,262.67c1.19-2.2,2.35-4.5,3.46-6.89l27.33-59.24c.13.44.29.88.48,1.31,1.26,2.99,3.53,5.26,6.56,6.52,1.5.63,3.08.95,4.69.95s3.11-.3,4.61-.9c6.2-2.43,12.05-4.27,17.39-5.47,5.18-1.17,9.48-1.76,12.8-1.77h.12c3.26,0,6.21.29,8.79.88,3.19.72,4.71,1.42,5.34,1.77,1.15.64,2.15,1.39,2.98,2.21l.09.09.09.08c2.35,2.2,3.75,5.15,4.3,9.04.62,4.45.01,9.44-1.81,14.84-1.54,4.64-3.91,9.22-7.06,13.65-3.23,4.55-7.28,8.91-12.02,12.96-4.61,3.94-10.25,7.34-16.74,10.11-6.57,2.79-13.65,4.68-21.05,5.61-3.36.41-6.63.63-9.7.63h-.15c-2.96,0-5.84-.19-8.56-.58-2.99-.42-5.64-.85-7.87-1.27-1.95-.37-4.28-1.02-6.92-1.94-3.03-1.06-5.3-1.88-6.92-2.51-.07-.03-.14-.05-.21-.08h0Z"/><path d="M678.57,251.9c-3.52,0-6.82-.93-9.8-2.76-4.22-2.52-7.07-6.31-8.42-11.25-1.22-4.48-1.43-9.09-.61-13.7.78-4.37,2.21-8.78,4.24-13.11l16.03-33.91c.89-2.13,2.5-3.66,4.67-4.43.93-.33,1.87-.49,2.8-.49,1.2,0,2.39.27,3.52.8,2.03.96,3.5,2.59,4.26,4.72.76,2.16.61,4.39-.43,6.48l-15.83,33.84c-2.87,6.79-3.39,10.7-3.33,12.79.11,3.28,1.23,3.95,1.6,4.17.29.17.7.26,1.21.26.93,0,2.16-.32,3.54-.93,2.81-1.23,5.65-3.78,8.46-7.56,4.93-6.6,10.32-14.63,16.03-23.89,1.14-2,2.97-3.3,5.29-3.75.57-.11,1.14-.16,1.69-.16,1.57,0,3.05.42,4.42,1.25,1.91,1.16,3.2,2.9,3.74,5.04.55,2.22.17,4.4-1.09,6.34-5.94,9.56-11.57,17.96-16.75,24.97-3.18,4.29-6.96,7.9-11.25,10.74-4.57,3.01-9.26,4.54-13.96,4.55h-.04ZM694.06,171.67c-1.2,0-2.39-.24-3.54-.72-1.15-.47-2.16-1.13-2.98-1.96-.8-.8-1.47-1.8-1.95-2.96-.49-1.16-.73-2.35-.73-3.56,0-2.47.89-4.73,2.6-6.54,1.76-1.86,4.04-2.85,6.6-2.86,2.52,0,4.8.95,6.62,2.75,1.82,1.82,2.78,4.1,2.79,6.61,0,2.55-.97,4.84-2.83,6.61-1.81,1.71-4.07,2.62-6.53,2.62h-.02Z"/><path d="M694.06,157.07c1.45,0,2.71.53,3.77,1.59,1.06,1.06,1.6,2.32,1.6,3.78,0,1.46-.53,2.69-1.59,3.7-1.07,1.01-2.32,1.52-3.78,1.52h-.01c-.67,0-1.34-.14-2.01-.42-.67-.28-1.24-.64-1.68-1.09-.45-.45-.82-1.01-1.1-1.68-.28-.67-.42-1.34-.42-2.02,0-1.46.5-2.72,1.51-3.79,1.01-1.07,2.24-1.6,3.7-1.6h.01M687.48,176.25c.61,0,1.22.14,1.82.42,1.07.5,1.79,1.32,2.19,2.43.4,1.12.31,2.24-.25,3.36l-15.9,34c-2.57,6.06-3.79,10.91-3.67,14.55.12,3.64,1.3,6.13,3.55,7.47.95.55,2.04.82,3.26.82,1.51,0,3.23-.42,5.15-1.26,3.47-1.52,6.83-4.47,10.07-8.85,5.03-6.74,10.45-14.82,16.26-24.25.56-1.01,1.42-1.63,2.6-1.85.32-.06.63-.09.93-.09.83,0,1.61.22,2.35.67,1.01.62,1.66,1.48,1.94,2.6.28,1.12.09,2.19-.58,3.2-5.92,9.54-11.45,17.79-16.59,24.75-2.91,3.93-6.32,7.19-10.24,9.77-3.92,2.58-7.84,3.88-11.76,3.89h-.03c-2.79,0-5.36-.73-7.71-2.17-3.37-2.01-5.59-4.97-6.66-8.9-1.07-3.92-1.25-7.9-.53-11.94.72-4.04,2.03-8.07,3.93-12.11l16.07-34c.44-1.12,1.23-1.88,2.35-2.27.49-.17.98-.26,1.46-.26M694.06,149.07h-.01c-3.65,0-7.02,1.47-9.52,4.12-2.42,2.57-3.69,5.78-3.69,9.29,0,1.74.36,3.45,1.05,5.1.24.57.51,1.11.81,1.63-2.89,1.21-5.12,3.42-6.35,6.32l-15.99,33.82c-2.19,4.67-3.73,9.42-4.57,14.12-.93,5.2-.7,10.4.69,15.46,1.61,5.86,5.14,10.57,10.23,13.63,3.61,2.21,7.6,3.33,11.85,3.33h.06c5.48-.01,10.91-1.76,16.14-5.21,4.69-3.09,8.81-7.03,12.26-11.69,5.23-7.09,10.92-15.56,16.91-25.21,1.84-2.84,2.41-6.19,1.6-9.43-.81-3.2-2.72-5.78-5.54-7.5-1.99-1.21-4.24-1.84-6.51-1.84-.81,0-1.62.08-2.43.23-3.45.67-6.27,2.67-7.99,5.64-5.64,9.14-10.95,17.06-15.78,23.53-2.37,3.2-4.74,5.37-6.87,6.31-.28.12-.52.22-.73.29,0-.08,0-.17-.01-.27-.04-1.37.29-4.64,2.98-11.03l15.81-33.79c1.47-3.01,1.67-6.38.58-9.48-.18-.51-.39-1.01-.63-1.48,1.82-.62,3.5-1.63,4.96-3.01,2.65-2.52,4.09-5.9,4.08-9.52,0-3.59-1.37-6.85-3.95-9.42-2.6-2.58-5.85-3.93-9.43-3.93h0Z"/><path d="M686.49,350.24c-8.1,0-14.59-3.89-18.75-11.24-3.72-6.51-4.74-14.58-3.02-23.96,1.64-8.95,5.66-18.35,11.94-27.93,2.13-3.44,4.55-6.65,7.22-9.56,2.69-2.95,5.85-5.7,9.39-8.16,3.35-2.34,6.4-4.36,9.08-6.02,2.79-1.73,6.47-3.58,10.94-5.51,4.33-1.87,7.85-3.33,10.45-4.36,1.37-.54,3.08-1.21,5.12-2.01-.14,0-.27,0-.41,0-4.49,0-8.59-1.14-12.2-3.39-3.96-2.47-7.04-6-9.17-10.5-3.32-7.36-3.81-15.89-1.49-25.43,2.27-9.32,6.81-17.75,13.5-25.07,4.34-4.72,9.1-8.41,14.15-10.98,5-2.54,9.98-3.83,14.8-3.83.21,0,.42,0,.63,0,8.21.38,15.14,4.09,20.71,11.05l.03.04c1.03-1.22,2.36-2.09,3.93-2.56.82-.25,1.66-.38,2.48-.38,1.27,0,2.5.29,3.65.87,1.93.96,3.35,2.58,4.09,4.68.77,2.18.6,4.38-.47,6.38-1.66,3.34-3.34,6.59-4.98,9.68-1.14,2.51-2.53,5.47-4.13,8.8-1.22,2.9-2.24,5.24-3.03,6.94l-10,20.68c1.56-.76,3.04-1.51,4.45-2.26,4.12-2.2,8.36-4.91,12.61-8.04,4.14-3.05,8-6.72,11.46-10.88,3.47-4.17,6.56-8.85,9.2-13.92.9-1.95,2.49-3.38,4.61-4.13.9-.32,1.8-.47,2.71-.47,1.29,0,2.56.32,3.76.95,1.96,1.03,3.37,2.66,4.11,4.72.77,2.2.6,4.4-.47,6.4-2.91,5.72-6.42,11.08-10.43,15.93-4,4.83-8.04,8.95-12.02,12.24-3.96,3.28-8.61,6.47-13.81,9.48-5.13,2.98-9.84,5.43-13.98,7.28-3.71,1.66-8.07,3.47-12.98,5.41l-28.12,58.83c-2.92,5.99-6.1,11.14-9.45,15.34-3.51,4.39-6.83,7.52-10.17,9.58-3.24,2-5.96,3.32-8.32,4.05-2.31.71-4.54,1.14-6.63,1.27h-.12s-.85.01-.85.01ZM727.65,269.69c-.75.31-1.47.61-2.15.89-3,1.26-6.51,2.88-10.46,4.8-3.82,1.86-7.08,3.74-9.7,5.58-2.61,1.83-5.29,4.1-7.97,6.74-2.65,2.6-4.99,5.4-6.96,8.32-3.55,5.45-6.18,10.79-7.79,15.81-1.58,4.92-2.32,8.96-2.22,12.02.1,2.85.66,5.2,1.68,6.96,1.44,2.52,3.04,2.86,4.42,2.86h.23c2.62-.09,5.77-1.72,9.34-4.84,3.87-3.38,7.58-8.76,11.01-15.96l20.58-43.18ZM747.69,188.87c-5.24,0-10.78,3.15-16.49,9.35-2.61,2.92-4.91,6.41-6.8,10.32-1.87,3.87-3.1,7.88-3.65,11.92-.5,3.72-.04,6.98,1.42,9.98l.05.1c1.39,3.07,3.32,4.38,6.42,4.38.17,0,.35,0,.52-.01h.18c.95,0,2.03-.3,3.22-.87,1.01-.49,2.85-1.58,5.89-4,2.42-1.92,5.36-5.1,8.73-9.43,3.45-4.44,7.06-9.94,10.75-16.37l.06-.1c1.39-2.26,2.82-4.76,4.28-7.45-.12-.01-.24-.03-.36-.04-2.12-.3-3.99-1.31-5.4-2.92l-.11-.13c-2.42-3.01-5.15-4.55-8.36-4.71-.07,0-.21,0-.36,0Z"/><path d="M748.02,176.29c.18,0,.36,0,.54,0,6.95.32,12.84,3.51,17.67,9.55.68.9.96,1.93.85,3.11-.11,1.18-.61,2.13-1.51,2.86-.73.6-1.55.89-2.47.89-.21,0-.42-.02-.64-.05-1.18-.17-2.16-.69-2.94-1.59-3.15-3.92-6.91-5.98-11.28-6.2-.19,0-.37,0-.56,0-6.43,0-12.91,3.55-19.43,10.64-2.91,3.26-5.4,7.02-7.46,11.28-2.07,4.27-3.4,8.64-4.01,13.12-.61,4.49-.01,8.58,1.79,12.27,2.04,4.48,5.39,6.72,10.06,6.72.23,0,.47,0,.71-.02,1.57,0,3.22-.43,4.96-1.27,1.73-.84,3.95-2.33,6.63-4.47,2.69-2.13,5.82-5.5,9.4-10.11,3.58-4.6,7.26-10.21,11.06-16.84,1.79-2.92,3.63-6.17,5.53-9.76,1.45-2.92,3.12-6.17,5.02-9.76.56-1.01,1.4-1.68,2.52-2.02.45-.14.89-.21,1.33-.21.64,0,1.27.15,1.87.45,1.01.5,1.71,1.31,2.11,2.43.4,1.12.31,2.19-.25,3.2-1.67,3.37-3.35,6.62-5.02,9.76-1.12,2.47-2.51,5.44-4.19,8.92-1.23,2.92-2.23,5.22-3.01,6.9l-14.73,30.46c5.49-2.26,10.39-4.53,14.7-6.84,4.31-2.3,8.68-5.09,13.1-8.35,4.42-3.26,8.48-7.1,12.17-11.54,3.69-4.43,6.93-9.35,9.72-14.73.44-1.01,1.23-1.71,2.35-2.11.46-.16.92-.24,1.38-.24.64,0,1.28.16,1.9.49,1.06.56,1.79,1.4,2.19,2.52.39,1.12.31,2.19-.25,3.19-2.79,5.5-6.12,10.58-9.97,15.24-3.86,4.66-7.69,8.56-11.49,11.71-3.81,3.15-8.23,6.18-13.26,9.11-5.04,2.92-9.57,5.29-13.6,7.09-4.03,1.8-8.79,3.77-14.28,5.91l-28.8,60.25c-2.79,5.72-5.78,10.58-8.97,14.56-3.19,3.98-6.23,6.88-9.14,8.68-2.91,1.8-5.37,3.01-7.39,3.63-2.02.62-3.92.99-5.71,1.1-.22,0-.45,0-.67,0h-.04c-6.71,0-11.8-3.07-15.28-9.22-3.26-5.71-4.12-12.8-2.57-21.26,1.55-8.47,5.35-17.3,11.38-26.5,2.01-3.26,4.27-6.26,6.79-9.01,2.52-2.75,5.43-5.28,8.73-7.58,3.3-2.31,6.27-4.27,8.9-5.9,2.63-1.63,6.1-3.38,10.41-5.23s7.75-3.29,10.33-4.31c2.58-1.01,6.33-2.48,11.26-4.4,1.9-.68,3.42-1.24,4.54-1.69l5.52-11.61c-2.91,2.58-5.76,4.52-8.56,5.82-2.8,1.29-5.54,2-8.23,2.12-.43.02-.85.04-1.27.04-3.75,0-7.11-.93-10.08-2.79-3.31-2.07-5.87-5-7.67-8.81-2.93-6.49-3.33-14.09-1.22-22.78,2.11-8.69,6.3-16.46,12.56-23.31,4.03-4.38,8.36-7.75,13.01-10.12,4.45-2.27,8.78-3.4,12.99-3.4M735.63,262.24c-4.71,1.8-8.6,3.35-11.68,4.65-3.08,1.29-6.64,2.93-10.67,4.9-4.03,1.97-7.45,3.94-10.24,5.91-2.8,1.97-5.62,4.35-8.48,7.16-2.85,2.81-5.34,5.78-7.46,8.93-3.8,5.83-6.56,11.45-8.29,16.83-1.73,5.38-2.53,9.84-2.41,13.37.12,3.53.85,6.47,2.2,8.82,1.85,3.24,4.48,4.87,7.89,4.87.12,0,.24,0,.36,0,3.59-.12,7.54-2.06,11.84-5.83,4.31-3.77,8.3-9.52,11.99-17.26l24.95-52.34M748.02,168.29c-5.46,0-11.05,1.44-16.61,4.27-5.48,2.79-10.62,6.77-15.27,11.83-7.17,7.83-12.02,16.86-14.45,26.84-2.53,10.43-1.96,19.83,1.7,27.96l.03.06.03.06c2.46,5.2,6.05,9.3,10.67,12.18.54.34,1.09.65,1.64.95-1.27.54-2.63,1.12-4.07,1.74-4.72,2.04-8.47,3.93-11.46,5.78-2.74,1.7-5.85,3.76-9.26,6.14-3.78,2.64-7.16,5.58-10.05,8.75-2.81,3.07-5.38,6.47-7.63,10.11-6.56,10.02-10.76,19.9-12.5,29.36-1.89,10.33-.72,19.31,3.49,26.68,4.9,8.66,12.59,13.25,22.22,13.25h.73s.25,0,.25,0l.25-.02c2.4-.15,4.94-.64,7.55-1.44,2.7-.83,5.72-2.29,9.25-4.47,3.73-2.31,7.39-5.74,11.19-10.49,3.54-4.43,6.87-9.83,9.91-16.05v-.03s.03-.03.03-.03l27.44-57.41c4.37-1.74,8.29-3.38,11.68-4.9,4.27-1.91,9.1-4.42,14.36-7.47,5.39-3.13,10.22-6.45,14.35-9.86,4.18-3.45,8.4-7.75,12.56-12.77,4.19-5.06,7.86-10.66,10.9-16.63,1.58-2.96,1.83-6.35.71-9.55-1.08-3.05-3.16-5.45-6.02-6.95-1.8-.94-3.69-1.41-5.63-1.41-1.36,0-2.71.23-4.03.7-3.1,1.1-5.53,3.27-6.88,6.14-2.5,4.79-5.42,9.21-8.68,13.13-3.26,3.92-6.88,7.36-10.76,10.22-1.86,1.37-3.72,2.66-5.57,3.85l4.45-9.2.03-.06.03-.06c.8-1.73,1.83-4.08,3.05-6.97,1.59-3.3,2.96-6.22,4.07-8.67,1.64-3.09,3.31-6.32,4.95-9.62,1.57-2.96,1.81-6.34.69-9.53-1.1-3.11-3.21-5.51-6.1-6.94-1.71-.85-3.53-1.28-5.42-1.28-1.22,0-2.45.19-3.65.55-.79.24-1.54.55-2.25.92-5.84-6.01-12.88-9.24-20.97-9.61h-.09s-.09,0-.09,0c-.24,0-.49,0-.73,0h0ZM734.19,200.88c4.9-5.32,9.44-8.01,13.5-8.01.08,0,.15,0,.23,0,1.38.08,3.22.54,5.37,3.22l.1.13.11.13c.87,1,1.87,1.84,2.96,2.51-.64,1.11-1.27,2.17-1.89,3.18l-.06.1-.06.1c-3.6,6.27-7.11,11.62-10.44,15.91-3.95,5.09-6.56,7.57-8.05,8.75-2.91,2.31-4.48,3.21-5.16,3.54-.88.43-1.35.46-1.47.46h-.18s-.18,0-.18,0c-.11,0-.23,0-.34,0-1.19,0-1.9-.09-2.78-2.03l-.04-.1-.05-.1c-1.1-2.26-1.45-4.78-1.05-7.69.49-3.62,1.59-7.22,3.28-10.71,1.72-3.55,3.8-6.71,6.19-9.4h0ZM693.77,298.21c1.82-2.68,3.97-5.25,6.41-7.65,2.53-2.49,5.04-4.62,7.47-6.32,2.45-1.72,5.53-3.49,9.15-5.26.89-.43,1.75-.85,2.59-1.25l-15.93,33.42c-3.2,6.72-6.57,11.65-10.03,14.68-3.89,3.4-6.08,3.83-6.85,3.85h-.09c-.21,0-.32-.02-.35-.03h0s-.24-.17-.59-.79c-.69-1.2-1.08-2.97-1.16-5.13-.06-1.77.25-5.07,2.04-10.66,1.5-4.67,3.97-9.66,7.33-14.85h0Z"/><path class="cls-1" d="M642.57,190.14c4.93,4.71,7.99,10.71,9.16,17.99,1.18,7.29.36,15.02-2.44,23.2-2.02,6.05-5.07,11.96-9.16,17.74-4.09,5.77-9.05,11.15-14.88,16.14-5.83,4.99-12.78,9.22-20.85,12.69-8.07,3.47-16.65,5.72-25.73,6.72-4.15.45-8.13.67-11.94.67-3.03,0-5.94-.11-8.74-.34-2.8-.23-5.55-.65-8.24-1.26-2.69-.62-5.04-1.18-7.06-1.68-2.02-.5-4.37-1.26-7.06-2.27-2.69-1.01-4.77-1.79-6.22-2.35-1.46-.56-3.59-1.46-6.39-2.69-1.57-.67-2.86-1.18-3.87-1.51-3.14,3.36-6.42,6.02-9.84,7.99-3.42,1.96-6.56,3.11-9.42,3.45-2.86.34-5.21.42-7.06.25-1.85-.17-3.56-.53-5.13-1.09-4.37-1.46-7.88-3.95-10.51-7.48-2.63-3.53-3.62-7.04-2.94-10.51.56-2.24,1.65-4.06,3.28-5.46,1.62-1.4,3.39-2.27,5.3-2.61,1.9-.34,3.81-.59,5.71-.76s3.31-.14,4.21.08c7.51.78,15.47,2.75,23.88,5.88,2.91-3.92,5.66-8.69,8.24-14.29l51.79-111.64c.45-1.01,1.23-1.74,2.36-2.19,1.12-.45,2.21-.42,3.28.08,1.06.5,1.79,1.32,2.19,2.44.39,1.12.36,2.19-.08,3.19l-51.79,111.64c-2.47,5.27-5.1,9.98-7.9,14.12.67.22,1.23.45,1.68.67,3.14,1.35,5.57,2.35,7.31,3.03,1.74.67,4.12,1.54,7.15,2.61,3.03,1.06,5.72,1.82,8.07,2.27,2.35.45,5.1.9,8.24,1.35,3.14.45,6.42.67,9.84.67s6.98-.23,10.68-.67c8.18-1.01,15.91-3.06,23.2-6.14,7.29-3.08,13.56-6.87,18.83-11.35,5.27-4.48,9.72-9.28,13.37-14.38,3.64-5.1,6.36-10.34,8.15-15.72,2.24-6.61,2.97-12.78,2.19-18.5-.79-5.72-3.03-10.31-6.72-13.79-1.35-1.34-2.92-2.52-4.71-3.53-1.79-1.01-4.29-1.88-7.48-2.61-3.2-.73-6.75-1.09-10.68-1.09s-8.77.65-14.54,1.93c-5.78,1.29-11.97,3.22-18.58,5.8-1.12.45-2.21.45-3.28,0-1.07-.45-1.82-1.2-2.27-2.27-.45-1.06-.48-2.13-.08-3.19.39-1.06,1.15-1.88,2.27-2.44,17.82-8.29,31.58-17.34,41.28-27.15,9.69-9.81,14.21-19.14,13.54-28-.34-4.93-2.38-9.33-6.14-13.2-3.76-3.87-8.72-6.7-14.88-8.49-4.37-1.34-9.05-2.07-14.04-2.19-4.99-.11-10.26.34-15.8,1.34s-11.27,2.77-17.15,5.3c-5.88,2.52-11.74,5.69-17.57,9.5-5.83,3.81-11.74,8.52-17.74,14.12-6,5.61-11.69,11.94-17.07,19-.67.9-1.6,1.43-2.77,1.6-1.18.17-2.21-.11-3.11-.84-.9-.73-1.43-1.68-1.6-2.86-.17-1.18.08-2.21.76-3.11,16.81-21.97,35.81-37.21,57-45.73,18.72-7.51,35.87-8.97,51.45-4.37,5.38,1.57,10.03,3.78,13.96,6.64s7.03,6.22,9.33,10.09c2.3,3.87,3.62,8.04,3.95,12.53.56,7.96-1.91,16.03-7.4,24.21-5.49,8.18-13.73,16.09-24.71,23.71,14.79-1.46,26.12,1.57,33.96,9.08ZM490.4,275.72c6.61,2.13,13.28.17,20.01-5.88-6.39-2.24-12.56-3.64-18.5-4.2-1.01-.11-1.91-.17-2.69-.17-4.04,0-6.22.73-6.56,2.19-.22,1.12.39,2.52,1.85,4.2,1.46,1.68,3.42,2.97,5.88,3.87Z"/><path class="cls-1" d="M712.6,203.25c1.18-.22,2.27-.03,3.28.59,1.01.62,1.65,1.49,1.93,2.61.28,1.12.08,2.19-.59,3.19-5.94,9.53-11.49,17.77-16.64,24.72-2.92,3.92-6.33,7.17-10.26,9.75-3.93,2.58-7.85,3.87-11.77,3.87-2.8,0-5.38-.73-7.73-2.19-3.36-2.02-5.58-4.99-6.64-8.91-1.06-3.92-1.23-7.9-.5-11.94.73-4.04,2.05-8.07,3.95-12.11l16.14-33.96c.45-1.12,1.23-1.88,2.35-2.27,1.12-.39,2.21-.34,3.28.17,1.06.5,1.79,1.32,2.19,2.44.39,1.12.31,2.24-.25,3.36l-15.97,33.96c-2.58,6.05-3.81,10.9-3.7,14.54.11,3.64,1.29,6.14,3.53,7.48,2.13,1.24,4.93,1.09,8.41-.42,3.47-1.51,6.84-4.46,10.09-8.83,5.04-6.73,10.48-14.8,16.31-24.21.56-1.01,1.43-1.62,2.61-1.85ZM694.19,167.77c-.67,0-1.35-.14-2.02-.42-.67-.28-1.24-.64-1.68-1.09-.45-.45-.81-1.01-1.09-1.68-.28-.67-.42-1.35-.42-2.02,0-1.46.5-2.72,1.51-3.78,1.01-1.06,2.24-1.6,3.7-1.6s2.71.53,3.78,1.6c1.06,1.07,1.6,2.33,1.6,3.78s-.53,2.69-1.6,3.7c-1.07,1.01-2.33,1.51-3.78,1.51Z"/><path class="cls-1" d="M804.65,203.33c1.12-.39,2.21-.31,3.28.25,1.06.56,1.79,1.4,2.19,2.52.39,1.12.31,2.19-.25,3.19-2.8,5.49-6.14,10.57-10,15.22-3.87,4.65-7.71,8.55-11.52,11.69-3.81,3.14-8.24,6.17-13.28,9.08-5.04,2.91-9.58,5.27-13.62,7.06-4.04,1.79-8.8,3.75-14.29,5.88l-28.92,60.19c-2.8,5.72-5.8,10.56-9,14.54-3.19,3.98-6.25,6.86-9.16,8.66-2.91,1.79-5.38,3-7.4,3.61-2.02.62-3.92.98-5.72,1.09h-.67c-6.73,0-11.83-3.08-15.3-9.25-3.25-5.72-4.09-12.81-2.52-21.27,1.57-8.46,5.38-17.29,11.43-26.48,2.02-3.25,4.29-6.25,6.81-9,2.52-2.75,5.44-5.27,8.74-7.57,3.31-2.3,6.28-4.26,8.91-5.88,2.63-1.63,6.11-3.36,10.42-5.21s7.76-3.28,10.34-4.29c2.58-1.01,6.33-2.47,11.27-4.37,1.9-.67,3.42-1.23,4.54-1.68l5.55-11.6c-2.92,2.58-5.77,4.51-8.57,5.8-2.8,1.29-5.55,1.99-8.24,2.1-4.26.22-8.04-.7-11.35-2.77-3.31-2.07-5.86-5.02-7.65-8.83-2.91-6.5-3.3-14.09-1.18-22.78,2.13-8.69,6.33-16.45,12.61-23.29,4.04-4.37,8.38-7.73,13.03-10.09,4.65-2.35,9.16-3.47,13.54-3.36,6.95.34,12.83,3.53,17.65,9.58.67.9.95,1.93.84,3.11-.11,1.18-.62,2.13-1.51,2.86-.9.73-1.93,1.01-3.11.84-1.18-.17-2.16-.7-2.94-1.6-3.14-3.92-6.89-6-11.27-6.22-6.62-.22-13.28,3.31-20.01,10.59-2.92,3.25-5.41,7.01-7.48,11.26-2.07,4.26-3.42,8.63-4.04,13.11-.62,4.49-.03,8.58,1.77,12.27,2.13,4.71,5.72,6.95,10.76,6.73,1.57,0,3.22-.42,4.96-1.26,1.74-.84,3.95-2.33,6.64-4.46,2.69-2.13,5.83-5.49,9.42-10.09,3.59-4.59,7.29-10.2,11.1-16.81,1.79-2.91,3.64-6.16,5.55-9.75,1.46-2.91,3.14-6.16,5.04-9.75.56-1.01,1.4-1.68,2.52-2.02,1.12-.34,2.19-.25,3.19.25,1.01.5,1.71,1.32,2.1,2.44.39,1.12.31,2.19-.25,3.2-1.68,3.36-3.36,6.61-5.04,9.75-1.12,2.47-2.52,5.44-4.21,8.91-1.23,2.92-2.24,5.21-3.03,6.89l-14.8,30.43c5.49-2.24,10.4-4.51,14.71-6.81,4.31-2.3,8.69-5.07,13.12-8.32,4.43-3.25,8.49-7.09,12.19-11.52,3.7-4.43,6.95-9.33,9.75-14.71.45-1.01,1.23-1.71,2.35-2.1ZM710.5,314.72l25.05-52.29c-4.71,1.79-8.6,3.33-11.69,4.62-3.08,1.29-6.64,2.91-10.68,4.88-4.04,1.96-7.45,3.92-10.26,5.88-2.8,1.96-5.63,4.34-8.49,7.15-2.86,2.8-5.35,5.77-7.48,8.91-3.81,5.83-6.58,11.43-8.32,16.81-1.74,5.38-2.55,9.84-2.44,13.37.11,3.53.84,6.47,2.19,8.83,1.91,3.36,4.65,4.99,8.24,4.88,3.59-.11,7.54-2.05,11.85-5.8,4.32-3.76,8.32-9.5,12.02-17.23Z"/><path d="M271.82,454.78c-1.18,0-2.27-.07-3.25-.21-6.77-1.01-11.47-4.83-13.64-11.05-1.88-5.66-1.35-12.24,1.57-19.6,2.75-6.95,7.38-13.88,13.76-20.61,9.95-10.53,21.51-18.83,34.37-24.68,12.35-5.62,25.52-8.74,39.16-9.3,24.78-33.31,43.64-57.88,56.08-73.08,9.48-11.45,16.12-18.58,20.32-21.82,3.47-2.68,6.62-3.98,9.62-3.98,1.57,0,3.05.36,4.42,1.07,1.84.92,4.25,2.91,4.95,6.99.42,2.44.38,4.91-.1,7.34-.42,2.1-1.08,4.66-2.02,7.83l-.04.12c-2.71,8.22-10.37,28.16-22.78,59.25-5.18,13.01-9.12,22.92-11.97,30.13,8.03,4.46,15.46,9.93,22.11,16.27l.07.07c1.48,1.49,2.32,3.41,2.42,5.57.11,2.31-.7,4.4-2.34,6.05-1.54,1.54-3.5,2.41-5.67,2.51-.14,0-.28.01-.43.01-2.04,0-3.95-.72-5.51-2.09l-.14-.13c-5.02-4.84-10.6-9.11-16.66-12.74-5.05,13.35-8.82,23.9-11.22,31.42-.56,1.76-.96,3.24-1.25,4.48,2.04-1.6,4.82-4.05,8.54-7.83,1.55-1.56,3.55-2.37,5.79-2.37s4.26.84,5.86,2.43c1.59,1.59,2.43,3.61,2.43,5.85s-.81,4.23-2.35,5.77c-10.51,10.6-18.52,15.55-25.21,15.55-2.23,0-4.29-.56-6.11-1.68-6.81-4.08-7.96-13.24-3.39-27.19,2.57-8.12,6.59-19.39,11.95-33.5-9.3-3.53-18.99-5.52-28.87-5.92-.88,1.21-1.74,2.41-2.54,3.59l-.08.12c-15.02,20.21-29.36,36.21-42.65,47.57-14,11.96-25.52,17.77-35.22,17.77ZM270.57,438.08s.16.11.6.19c.27.04.62.07.99.07h0c3.08,0,9.05-1.8,20.07-10.38,11.6-9.01,24.41-22.59,38.16-40.43-7.46,1.5-14.71,3.98-21.65,7.41-9.83,4.86-18.72,11.5-26.43,19.74-4.8,5.12-8.19,10.02-10.07,14.59-2.22,5.39-2,7.83-1.67,8.81h0ZM363.77,370.23c8,1.13,15.85,3.12,23.46,5.93,2.73-7.02,6.65-16.83,11.7-29.27,7.75-19.28,13.59-34.19,17.46-44.56-2.19,2.58-4.57,5.44-7.12,8.58-10.9,13.5-26.2,33.44-45.5,59.33Z"/><path d="M429.82,274.46c.92,0,1.78.21,2.57.62,1.57.79,2.52,2.16,2.86,4.12.34,1.96.31,3.92-.08,5.88-.39,1.96-1.04,4.46-1.93,7.48-2.69,8.18-10.26,27.86-22.7,59.02-5.94,14.91-10.37,26.06-13.28,33.46,8.97,4.6,17.09,10.37,24.38,17.32.78.79,1.2,1.77,1.26,2.94.06,1.18-.34,2.19-1.18,3.03-.84.84-1.85,1.29-3.03,1.35-.08,0-.16,0-.24,0-1.08,0-2.04-.37-2.87-1.1-6.39-6.16-13.56-11.38-21.52-15.64-5.94,15.58-10.26,27.57-12.95,35.98-1.91,6.05-2.52,10.26-1.85,12.61,3.14-.45,8.41-4.43,15.8-11.94.78-.79,1.77-1.18,2.94-1.18s2.19.42,3.03,1.26c.84.84,1.26,1.85,1.26,3.03s-.39,2.16-1.18,2.94c-9.49,9.58-16.95,14.37-22.38,14.37-1.49,0-2.83-.36-4.02-1.09-5.04-3.03-5.61-10.54-1.68-22.53,2.8-8.86,7.23-21.19,13.28-36.99-11.55-4.93-23.54-7.51-35.98-7.73-1.34,1.79-2.63,3.59-3.87,5.38-14.91,20.07-28.92,35.7-42.03,46.91-13.12,11.21-23.99,16.81-32.62,16.81-1.01,0-1.91-.06-2.69-.17-5.27-.79-8.74-3.59-10.42-8.41-1.57-4.71-1.06-10.31,1.51-16.81,2.58-6.5,6.89-12.95,12.95-19.34,9.64-10.2,20.68-18.13,33.12-23.79,12.44-5.66,25.56-8.66,39.34-9,.11-.11.22-.17.34-.17,25.33-34.07,44.33-58.85,57-74.32,9.19-11.1,15.75-18.16,19.67-21.19,2.72-2.1,5.11-3.14,7.18-3.14M426.17,285.84c-4.48,4.15-11.15,11.66-20.01,22.53-11.77,14.57-28.36,36.26-49.77,65.07,11.43.9,22.47,3.53,33.12,7.9,2.69-7.06,7.06-18.05,13.12-32.96,12.44-30.94,19.89-50.44,22.36-58.51.56-1.46.95-2.8,1.18-4.04M339.41,382.18c-11.32,1.01-22.14,4.06-32.45,9.16-10.31,5.1-19.5,11.97-27.57,20.6-5.16,5.49-8.77,10.76-10.84,15.8-2.08,5.04-2.66,8.91-1.77,11.6.56,1.57,1.79,2.52,3.7,2.86.53.09,1.1.13,1.68.13,5.41,0,12.92-3.74,22.53-11.23,13.56-10.54,28.47-26.84,44.72-48.93M429.82,266.46h0c-3.92,0-7.87,1.57-12.07,4.81-4.44,3.42-11.29,10.76-20.95,22.42-12.32,15.04-30.84,39.16-55.1,71.74-13.47.78-26.48,3.99-38.73,9.56-13.33,6.07-25.32,14.67-35.62,25.58-6.72,7.1-11.63,14.46-14.57,21.88-3.28,8.27-3.84,15.77-1.67,22.29l.02.05.02.05c2.65,7.61,8.62,12.47,16.8,13.69h.03s.03,0,.03,0c1.16.16,2.44.25,3.81.25,10.7,0,23.07-6.13,37.82-18.73,13.51-11.55,28.06-27.77,43.26-48.22l.09-.12.08-.12c.4-.58.8-1.16,1.22-1.75,7.39.48,14.66,1.89,21.72,4.21-4.66,12.39-8.21,22.42-10.58,29.89-2.3,7.05-3.25,12.83-2.89,17.67.6,8.04,4.69,12.13,8.03,14.15,2.45,1.49,5.19,2.25,8.16,2.25,7.83,0,16.75-5.32,28.06-16.74,2.25-2.25,3.5-5.3,3.5-8.57s-1.28-6.36-3.61-8.69c-2.32-2.32-5.4-3.6-8.68-3.6-2.21,0-4.31.57-6.15,1.63,1.74-4.98,3.84-10.77,6.29-17.31,4.25,2.86,8.22,6.07,11.87,9.6l.14.13.14.12c2.3,2.02,5.12,3.09,8.15,3.09.21,0,.42,0,.63-.02,3.16-.15,6.03-1.42,8.29-3.68,2.43-2.43,3.68-5.65,3.51-9.07-.15-3.17-1.39-6-3.58-8.2l-.07-.07-.07-.07c-6.05-5.77-12.72-10.84-19.88-15.12,2.71-6.85,6.24-15.74,10.7-26.91,12.62-31.6,20.1-51.06,22.87-59.48l.04-.12.03-.12c.97-3.29,1.66-5.96,2.1-8.17.58-2.93.63-5.89.13-8.81-.76-4.44-3.28-7.95-7.1-9.89-1.93-1-4.02-1.5-6.22-1.5h0ZM370.88,367.38c12.81-17.13,23.73-31.45,32.64-42.83-2.46,6.25-5.24,13.2-8.31,20.84-4.24,10.44-7.69,19.05-10.3,25.7-4.6-1.53-9.28-2.77-14.02-3.72h0ZM274.87,433.79c.23-.81.57-1.8,1.07-3,1.69-4.12,4.81-8.62,9.28-13.37,7.39-7.9,15.89-14.25,25.29-18.9,2.97-1.47,6-2.75,9.08-3.86-10.65,12.91-20.63,23-29.81,30.13-7.47,5.82-12.19,8.11-14.91,9h0Z"/><path d="M391.87,486.56c-.99,0-2.04-.18-3.11-.54l-.18-.06-.18-.08c-2.02-.9-3.49-2.52-4.25-4.68-.73-2.08-.66-4.2.2-6.14l37.63-81.78c.1-.42.26-.81.46-1.18.17-.43.56-1.4.56-1.4l19.28-41.94.07-.13c.99-1.78,2.5-3.14,4.38-3.93,1-.42,2.02-.63,3.06-.63,1.16,0,2.3.26,3.4.78,1.97.94,3.45,2.51,4.27,4.56.11.28.21.57.29.85,3.55-2.49,6.83-4.21,9.92-5.19,2.66-.78,5.15-1.16,7.5-1.16,4.77,0,9.06,1.54,12.74,4.58,3.25,2.57,5.67,6.24,7.15,10.87,1.4,4.38,1.79,9.21,1.18,14.33-.74,7.98-3.45,15.74-8.08,23.07-2.1,3.33-4.43,6.33-6.97,8.99,2.53-.48,4.95-1.17,7.25-2.07,11.09-4.28,19.55-13.69,25.14-28,.83-2.08,2.3-3.66,4.28-4.6,1.1-.52,2.25-.78,3.42-.78,1.02,0,2.04.2,3.04.6,2.12.85,3.7,2.38,4.56,4.43.85,2.05.86,4.23.03,6.31-7.33,18.8-18.96,31.44-34.54,37.55-6.65,2.59-13.82,3.91-21.31,3.91-8.27,0-17.15-1.6-26.41-4.76-4.55-.9-8.91-2.72-12.96-5.42-.73-.49-1.37-1.06-1.9-1.69l-32.49,70.77c-1.47,2.94-4.11,4.57-7.45,4.57ZM451.02,402.48c.59.07,1.19.1,1.79.1,2.54,0,5.18-.62,7.84-1.84,4.77-2.24,9.06-6.15,12.72-11.62,3.7-5.53,5.89-11.29,6.49-17.1.53-5.38-.29-9.02-2.44-10.8-.61-.51-1.29-.74-2.21-.74-.75,0-1.64.16-2.62.46-2.98.93-8.51,4.19-17.92,14.44-7.74,8.44-13.34,15.94-16.64,22.28.05,0,.11,0,.17,0,1.29,0,2.54.32,3.73.95,3.07,1.43,6.13,2.73,9.1,3.87Z"/><path d="M475.16,347.92c3.84,0,7.24,1.22,10.2,3.66,2.69,2.13,4.65,5.13,5.88,9,1.23,3.87,1.57,8.1,1.01,12.69-.67,7.4-3.17,14.52-7.48,21.35-4.32,6.84-9.56,12.11-15.72,15.81,1.17.07,2.33.1,3.47.1,6.27,0,12.06-1.04,17.38-3.13,12.21-4.71,21.35-14.8,27.41-30.26.45-1.12,1.2-1.93,2.27-2.44.56-.27,1.13-.4,1.71-.4.52,0,1.04.1,1.57.32,1.12.45,1.9,1.21,2.35,2.27.45,1.07.45,2.16,0,3.28-6.95,17.82-17.71,29.59-32.28,35.31-6.21,2.42-12.82,3.63-19.85,3.63-7.94,0-16.4-1.55-25.38-4.64-4.15-.78-8.07-2.41-11.77-4.88-1.01-.67-1.62-1.54-1.85-2.61-.22-1.06-.05-2.1.5-3.11.56-1.01,1.37-1.68,2.44-2.02.4-.13.79-.19,1.18-.19.65,0,1.29.18,1.92.53,3.36,1.57,6.67,2.97,9.92,4.2.92.13,1.84.19,2.77.19,3.14,0,6.31-.74,9.51-2.21,5.49-2.58,10.28-6.92,14.38-13.03,4.09-6.11,6.47-12.41,7.15-18.92.67-6.84-.62-11.6-3.87-14.29-1.31-1.1-2.9-1.65-4.76-1.65-1.16,0-2.44.22-3.81.65-5.04,1.57-11.6,6.75-19.67,15.55-8.07,8.8-13.84,16.56-17.32,23.29l-38.67,84.24c-.78,1.57-2.07,2.35-3.87,2.35-.56,0-1.18-.11-1.85-.34-1.01-.45-1.71-1.24-2.1-2.35-.39-1.12-.36-2.19.08-3.19l37.83-82.22c0-.22.06-.39.17-.5.23-.56.45-1.12.67-1.68l19.17-41.7c.56-1.01,1.37-1.74,2.44-2.19.5-.21,1-.32,1.5-.32.56,0,1.13.13,1.69.4,1.06.5,1.82,1.32,2.27,2.44.45,1.12.39,2.19-.17,3.19l-3.53,7.9c7.29-7.06,13.56-11.43,18.83-13.11,2.21-.65,4.3-.97,6.28-.97M475.16,339.92c-2.73,0-5.6.44-8.53,1.29l-.09.03-.09.03c-2.32.74-4.73,1.84-7.25,3.31-1.15-1.41-2.6-2.53-4.3-3.34-1.65-.78-3.37-1.17-5.12-1.17-1.57,0-3.11.32-4.6.94-2.72,1.15-4.91,3.11-6.34,5.68l-.15.27-.13.28-19.17,41.7-.09.2-.08.2c-.14.36-.28.71-.42,1.06-.25.48-.46.99-.61,1.52l-37.46,81.42-.02.05-.02.05c-1.28,2.89-1.39,6.03-.32,9.08,1.12,3.19,3.39,5.68,6.4,7.02l.36.16.37.12c1.49.49,2.96.75,4.38.75,4.85,0,8.87-2.47,11.02-6.78l.06-.12.05-.12,30.35-66.12c3.87,2.3,7.98,3.91,12.25,4.78,9.59,3.25,18.83,4.89,27.46,4.89,7.99,0,15.64-1.4,22.75-4.17,16.68-6.54,29.06-19.94,36.82-39.83,1.21-3.07,1.19-6.28-.06-9.29-1.28-3.04-3.68-5.38-6.76-6.61-1.5-.59-3.02-.89-4.55-.89-1.77,0-3.5.39-5.14,1.17-2.91,1.38-5.08,3.7-6.28,6.71-4.25,10.85-9.93,18.43-17.29,22.99,4.32-7.34,6.88-15.09,7.63-23.06.67-5.68.22-11.05-1.34-15.97-1.71-5.37-4.56-9.67-8.48-12.79-4.4-3.61-9.52-5.44-15.23-5.44h0ZM444.08,395.2c3.21-5.06,7.75-10.8,13.54-17.12,9.61-10.47,14.5-12.81,16.16-13.32.63-.2,1.05-.26,1.28-.28.66.82,1.22,3.08.82,7.16-.54,5.19-2.45,10.19-5.83,15.25-3.25,4.84-6.98,8.29-11.1,10.23-2.15.99-4.16,1.46-6.14,1.46-.29,0-.58-.01-.87-.03-2.57-1-5.21-2.12-7.87-3.35h0Z"/><path d="M476.27,486.56c-.99,0-2.04-.18-3.11-.54l-.18-.06-.18-.08c-2.02-.9-3.49-2.52-4.25-4.68-.73-2.08-.66-4.2.2-6.14l37.63-81.78c.1-.42.26-.81.46-1.18.17-.43.56-1.4.56-1.4l19.28-41.94.07-.13c.99-1.78,2.5-3.14,4.38-3.93,1-.42,2.02-.63,3.06-.63,1.16,0,2.3.26,3.4.78,1.97.94,3.45,2.51,4.27,4.56.11.28.21.57.29.85,3.55-2.49,6.83-4.21,9.92-5.19,2.66-.78,5.15-1.16,7.5-1.16,4.77,0,9.06,1.54,12.74,4.58,3.25,2.57,5.67,6.24,7.15,10.87,1.4,4.38,1.79,9.21,1.18,14.33-.74,7.98-3.45,15.74-8.08,23.07-2.1,3.33-4.43,6.33-6.97,8.99,2.53-.48,4.95-1.17,7.25-2.07,11.09-4.28,19.55-13.69,25.14-28,.83-2.08,2.3-3.66,4.28-4.6,1.1-.52,2.25-.78,3.42-.78,1.02,0,2.04.2,3.04.6,2.12.85,3.7,2.38,4.56,4.43.85,2.05.86,4.23.03,6.31-7.33,18.8-18.96,31.44-34.54,37.55-6.65,2.59-13.82,3.91-21.31,3.91-8.27,0-17.15-1.6-26.41-4.76-4.55-.9-8.91-2.72-12.96-5.42-.73-.49-1.37-1.06-1.9-1.69l-32.49,70.77c-1.47,2.94-4.11,4.57-7.45,4.57ZM535.42,402.48c.59.07,1.19.1,1.79.1,2.54,0,5.18-.62,7.84-1.84,4.77-2.24,9.06-6.15,12.72-11.62,3.7-5.53,5.89-11.29,6.49-17.1.53-5.38-.29-9.02-2.44-10.8-.61-.51-1.29-.74-2.21-.74-.75,0-1.64.16-2.62.46-2.98.93-8.51,4.19-17.92,14.44-7.74,8.44-13.34,15.94-16.64,22.28.05,0,.11,0,.17,0,1.29,0,2.54.32,3.73.95,3.07,1.43,6.13,2.73,9.1,3.87Z"/><path d="M559.56,347.92c3.84,0,7.24,1.22,10.2,3.66,2.69,2.13,4.65,5.13,5.88,9,1.23,3.87,1.57,8.1,1.01,12.69-.67,7.4-3.17,14.52-7.48,21.35-4.32,6.84-9.56,12.11-15.72,15.81,1.17.07,2.33.1,3.47.1,6.27,0,12.06-1.04,17.38-3.13,12.21-4.71,21.35-14.8,27.41-30.26.45-1.12,1.2-1.93,2.27-2.44.56-.27,1.13-.4,1.71-.4.52,0,1.04.1,1.57.32,1.12.45,1.9,1.21,2.35,2.27.45,1.07.45,2.16,0,3.28-6.95,17.82-17.71,29.59-32.28,35.31-6.21,2.42-12.82,3.63-19.85,3.63-7.94,0-16.4-1.55-25.38-4.64-4.15-.78-8.07-2.41-11.77-4.88-1.01-.67-1.62-1.54-1.85-2.61-.22-1.06-.05-2.1.5-3.11.56-1.01,1.37-1.68,2.44-2.02.4-.13.79-.19,1.18-.19.65,0,1.29.18,1.92.53,3.36,1.57,6.67,2.97,9.92,4.2.92.13,1.84.19,2.77.19,3.14,0,6.31-.74,9.51-2.21,5.49-2.58,10.28-6.92,14.38-13.03,4.09-6.11,6.47-12.41,7.15-18.92.67-6.84-.62-11.6-3.87-14.29-1.31-1.1-2.9-1.65-4.76-1.65-1.16,0-2.44.22-3.81.65-5.04,1.57-11.6,6.75-19.67,15.55-8.07,8.8-13.84,16.56-17.32,23.29l-38.67,84.24c-.78,1.57-2.07,2.35-3.87,2.35-.56,0-1.18-.11-1.85-.34-1.01-.45-1.71-1.24-2.1-2.35-.39-1.12-.36-2.19.08-3.19l37.83-82.22c0-.22.06-.39.17-.5.23-.56.45-1.12.67-1.68l19.17-41.7c.56-1.01,1.37-1.74,2.44-2.19.5-.21,1-.32,1.5-.32.56,0,1.13.13,1.69.4,1.06.5,1.82,1.32,2.27,2.44.45,1.12.39,2.19-.17,3.19l-3.53,7.9c7.29-7.06,13.56-11.43,18.83-13.11,2.21-.65,4.3-.97,6.28-.97M559.56,339.92c-2.73,0-5.6.44-8.53,1.29l-.09.03-.09.03c-2.32.74-4.73,1.84-7.25,3.31-1.15-1.41-2.6-2.53-4.3-3.34-1.65-.78-3.37-1.17-5.12-1.17-1.57,0-3.11.32-4.6.94-2.72,1.15-4.91,3.11-6.34,5.68l-.15.27-.13.28-19.17,41.7-.09.2-.08.2c-.14.36-.28.71-.42,1.06-.25.48-.46.99-.61,1.52l-37.46,81.42-.02.05-.02.05c-1.28,2.89-1.39,6.03-.32,9.08,1.12,3.19,3.39,5.68,6.4,7.02l.36.16.37.12c1.49.49,2.96.75,4.38.75,4.85,0,8.87-2.47,11.02-6.78l.06-.12.05-.12,30.35-66.12c3.87,2.3,7.98,3.91,12.25,4.78,9.59,3.25,18.83,4.89,27.46,4.89,7.99,0,15.64-1.4,22.75-4.17,16.68-6.54,29.06-19.94,36.82-39.83,1.21-3.07,1.19-6.28-.06-9.29-1.28-3.04-3.68-5.38-6.76-6.61-1.5-.59-3.02-.89-4.55-.89-1.77,0-3.5.39-5.14,1.17-2.91,1.38-5.08,3.7-6.28,6.71-4.25,10.85-9.93,18.43-17.29,22.99,4.32-7.34,6.88-15.09,7.63-23.06.67-5.68.22-11.05-1.34-15.97-1.71-5.37-4.56-9.67-8.48-12.79-4.4-3.61-9.52-5.44-15.23-5.44h0ZM528.48,395.2c3.21-5.06,7.75-10.8,13.54-17.12,9.61-10.47,14.5-12.81,16.16-13.32.63-.2,1.05-.26,1.28-.28.66.82,1.22,3.08.82,7.16-.54,5.19-2.45,10.19-5.83,15.25-3.25,4.84-6.98,8.29-11.1,10.23-2.15.99-4.16,1.46-6.14,1.46-.29,0-.58-.01-.87-.03-2.57-1-5.21-2.12-7.87-3.35h0Z"/><path d="M611.12,423.67c-3.49,0-6.76-.86-9.72-2.54-4.34-2.6-7.18-6.4-8.52-11.34-1.22-4.48-1.41-9.09-.58-13.7.79-4.35,2.22-8.8,4.25-13.23l43.05-92.49c.84-1.9,2.4-3.38,4.49-4.21,1-.4,2.03-.6,3.05-.6,1.17,0,2.33.26,3.43.79,2.03.96,3.5,2.59,4.25,4.72.73,2.09.66,4.21-.2,6.14l-43.05,92.66c-2.88,6.77-3.37,10.71-3.27,12.82.07,1.54.4,3.53,1.57,4.22.37.22.78.32,1.3.32.9,0,2.08-.32,3.4-.93,2.78-1.28,5.63-3.86,8.46-7.66,4.94-6.69,10.35-14.72,16.08-23.87,1.15-2,2.97-3.28,5.29-3.73.57-.11,1.13-.16,1.68-.16,1.57,0,3.07.42,4.44,1.26,1.97,1.2,3.24,3.01,3.69,5.23.41,2.04.09,4.09-.93,5.92l-.1.17c-5.97,9.57-11.63,17.98-16.83,24.98-3.19,4.29-6.98,7.89-11.27,10.71-4.57,3-9.27,4.52-13.97,4.52Z"/><path d="M647.15,289.56c.58,0,1.15.13,1.72.4,1.06.5,1.79,1.32,2.19,2.44.39,1.12.36,2.19-.08,3.19l-43.04,92.64c-2.58,6.05-3.78,10.93-3.62,14.63s1.35,6.19,3.53,7.48c.99.58,2.1.87,3.33.87,1.5,0,3.19-.43,5.07-1.29,3.42-1.57,6.75-4.54,10-8.91,5.04-6.84,10.48-14.91,16.31-24.21.56-1.01,1.43-1.62,2.61-1.85.31-.06.62-.09.92-.09.83,0,1.62.23,2.36.68,1.01.62,1.62,1.49,1.85,2.61.22,1.12.06,2.19-.5,3.19-5.94,9.53-11.49,17.77-16.64,24.72-2.92,3.92-6.33,7.17-10.26,9.75s-7.85,3.87-11.77,3.87c-2.8,0-5.38-.67-7.73-2.02-3.36-2.02-5.57-4.99-6.64-8.91-1.06-3.92-1.23-7.9-.5-11.94.73-4.04,2.05-8.13,3.95-12.27l43.04-92.47c.45-1.01,1.23-1.74,2.35-2.19.53-.21,1.05-.32,1.56-.32M647.15,281.56h0c-1.53,0-3.05.3-4.53.88-3.06,1.23-5.36,3.4-6.67,6.29l-43.02,92.42c-2.19,4.77-3.72,9.55-4.57,14.23-.94,5.2-.72,10.4.66,15.46,1.6,5.88,5.14,10.61,10.24,13.68l.07.04.08.04c3.57,2.04,7.5,3.07,11.7,3.07,5.49,0,10.93-1.74,16.16-5.18,4.69-3.08,8.82-7.01,12.29-11.67,5.26-7.09,10.99-15.59,17.01-25.25l.11-.17.1-.18c1.49-2.67,1.95-5.66,1.36-8.65-.66-3.3-2.62-6.09-5.52-7.86-1.99-1.21-4.24-1.85-6.53-1.85-.8,0-1.61.08-2.41.23-3.44.66-6.26,2.64-7.98,5.59-5.67,9.04-11.01,16.97-15.88,23.58-2.38,3.19-4.77,5.41-6.9,6.39-.22.1-.41.18-.58.25-.01-.12-.02-.26-.03-.4-.06-1.39.24-4.65,2.93-11.01l42.99-92.52.03-.07.03-.07c1.27-2.88,1.38-6.01.32-9.06-1.11-3.14-3.34-5.63-6.31-7.04-1.64-.78-3.37-1.17-5.14-1.17h0Z"/><path d="M661.96,424.18c-5.17-.13-9.82-1.43-13.83-3.86-4.04-2.45-7.23-5.9-9.47-10.25-3.07-5.75-4.03-12.53-2.83-20.11,1.15-7.26,4.21-14.74,9.09-22.24,3.95-5.93,7.79-10.79,11.43-14.5,3.92-3.98,7.38-6.51,10.58-7.74,3.07-1.18,5.64-1.79,7.85-1.86.16,0,.32,0,.47,0,2.26,0,4.4.53,6.35,1.57,4.05,2.1,6.72,5.77,7.89,10.87,1.07,4.7.62,9.67-1.34,14.77-2.74,6.93-7.61,12.06-14.47,15.3-4.23,1.96-8.92,2.95-13.97,2.95-2.09,0-4.26-.17-6.5-.5-1.81,5.64-1.77,10.32.12,13.95,1.07,2.08,3.14,4.84,8.97,5.08h.59c6.59,0,13.48-3.12,20.48-9.26,7.43-6.52,14.03-14.51,19.61-23.73,1.11-1.95,2.88-3.27,5.13-3.81.67-.16,1.35-.24,2-.24,1.52,0,2.96.41,4.29,1.22,1.91,1.17,3.2,2.91,3.73,5.05.55,2.19.17,4.37-1.08,6.29-7.61,12.67-16.19,22.72-25.5,29.88-9.64,7.41-19.29,11.17-28.67,11.17h-.94ZM673.59,360.47c-.55.28-2.09,1.23-5.38,4.41-2.04,1.96-4.19,4.52-6.43,7.63.08-.01.15-.03.23-.04,2.12-.45,3.83-.95,5.08-1.51,1.04-.46,1.95-1.11,2.76-1.96,1.31-1.37,1.85-2.11,2.06-2.43.35-.54.64-1.13.88-1.76.61-1.67.89-3.17.81-4.34Z"/><path d="M675.26,347.62c1.61,0,3.09.37,4.46,1.1,3.03,1.57,4.99,4.32,5.88,8.24.9,3.92.5,8.07-1.18,12.44-2.35,5.94-6.5,10.31-12.44,13.11-3.69,1.71-7.78,2.56-12.26,2.56-2.87,0-5.9-.35-9.09-1.05-3.36,8.18-3.64,14.96-.84,20.34,2.35,4.6,6.5,7.01,12.44,7.23h.67c7.62,0,15.33-3.42,23.12-10.26,7.79-6.84,14.6-15.07,20.43-24.72.56-1.01,1.43-1.65,2.61-1.93.37-.09.73-.13,1.08-.13.77,0,1.51.21,2.2.64,1.01.62,1.65,1.49,1.93,2.61.28,1.12.09,2.19-.59,3.19-7.4,12.33-15.58,21.94-24.55,28.84-8.97,6.89-17.71,10.34-26.23,10.34h-.84c-4.48-.11-8.44-1.21-11.85-3.28-3.42-2.08-6.08-4.96-7.99-8.66-2.69-5.04-3.5-10.93-2.44-17.65,1.07-6.73,3.9-13.62,8.49-20.68,3.81-5.72,7.45-10.34,10.93-13.87s6.53-5.8,9.16-6.81c2.63-1.01,4.82-1.54,6.56-1.6.11,0,.23,0,.34,0M659.55,376.7c1.15,0,2.24-.11,3.27-.32,2.41-.5,4.37-1.09,5.88-1.77s2.86-1.62,4.04-2.86c1.18-1.23,2.02-2.24,2.52-3.03.5-.78.92-1.62,1.26-2.52.9-2.46,1.23-4.62,1.01-6.47-.23-1.85-.79-3-1.68-3.45-.29-.13-.64-.19-1.03-.19-.66,0-1.47.18-2.41.53-1.51.56-3.84,2.35-6.98,5.38-3.14,3.03-6.45,7.23-9.92,12.61-.34.45-.62.95-.84,1.51,1.73.38,3.36.58,4.89.58M675.26,339.62c-.2,0-.39,0-.59,0-2.68.09-5.67.78-9.17,2.12-3.75,1.44-7.68,4.27-12,8.67-3.82,3.88-7.82,8.94-11.88,15.05l-.02.04-.02.04c-5.19,7.97-8.45,15.97-9.69,23.79-1.33,8.44-.24,16.05,3.25,22.62,2.58,4.99,6.26,8.96,10.92,11.78,4.61,2.8,9.93,4.29,15.8,4.44h.1s.1,0,.1,0h.84c10.28,0,20.75-4.04,31.11-12,9.69-7.45,18.59-17.86,26.45-30.93,1.81-2.83,2.37-6.15,1.57-9.37-.79-3.18-2.7-5.78-5.52-7.5-1.94-1.18-4.14-1.81-6.37-1.81-.97,0-1.95.12-2.92.35-3.3.79-6.01,2.8-7.67,5.67-5.36,8.85-11.69,16.51-18.8,22.75-6.25,5.49-12.25,8.27-17.84,8.27h-.51c-3.79-.17-4.82-1.57-5.49-2.88v-.03s-.03-.03-.03-.03c-1.05-2.02-1.28-4.61-.68-7.74,1.19.09,2.37.14,3.52.14,5.63,0,10.89-1.11,15.62-3.3h.03s.03-.02.03-.02c7.81-3.68,13.35-9.54,16.47-17.4v-.04s.03-.04.03-.04c2.25-5.86,2.76-11.61,1.51-17.1-1.79-7.81-6.38-11.67-9.95-13.53-2.52-1.34-5.28-2.03-8.19-2.03h0Z"/><path class="cls-1" d="M433.23,292.56c-2.69,8.18-10.26,27.86-22.7,59.02-5.94,14.91-10.37,26.06-13.28,33.46,8.97,4.6,17.09,10.37,24.38,17.32.78.79,1.2,1.77,1.26,2.94.06,1.18-.34,2.19-1.18,3.03-.84.84-1.85,1.29-3.03,1.35-1.18.06-2.21-.31-3.11-1.09-6.39-6.16-13.56-11.38-21.52-15.64-5.94,15.58-10.26,27.57-12.95,35.98-1.91,6.05-2.52,10.26-1.85,12.61,3.14-.45,8.41-4.43,15.8-11.94.78-.79,1.77-1.18,2.94-1.18s2.19.42,3.03,1.26c.84.84,1.26,1.85,1.26,3.03s-.39,2.16-1.18,2.94c-12.11,12.22-20.91,16.65-26.4,13.28-5.04-3.03-5.61-10.54-1.68-22.53,2.8-8.86,7.23-21.19,13.28-36.99-11.55-4.93-23.54-7.51-35.98-7.73-1.34,1.79-2.63,3.59-3.87,5.38-14.91,20.07-28.92,35.7-42.03,46.91-13.12,11.21-23.99,16.81-32.62,16.81-1.01,0-1.91-.06-2.69-.17-5.27-.79-8.74-3.59-10.42-8.41-1.57-4.71-1.06-10.31,1.51-16.81,2.58-6.5,6.89-12.95,12.95-19.34,9.64-10.2,20.68-18.13,33.12-23.79,12.44-5.66,25.56-8.66,39.34-9,.11-.11.22-.17.34-.17,25.33-34.07,44.33-58.85,57-74.32,9.19-11.1,15.75-18.16,19.67-21.19s7.17-3.87,9.75-2.52c1.57.79,2.52,2.16,2.86,4.12.34,1.96.31,3.92-.08,5.88-.39,1.96-1.04,4.46-1.93,7.48ZM294.69,431.11c13.56-10.54,28.47-26.84,44.72-48.93-11.32,1.01-22.14,4.06-32.45,9.16-10.31,5.1-19.5,11.97-27.57,20.6-5.16,5.49-8.77,10.76-10.84,15.8-2.08,5.04-2.66,8.91-1.77,11.6.56,1.57,1.79,2.52,3.7,2.86,5.49.9,13.56-2.8,24.21-11.1ZM389.51,381.34c2.69-7.06,7.06-18.05,13.12-32.96,12.44-30.94,19.89-50.44,22.36-58.51.56-1.46.95-2.8,1.18-4.04-4.48,4.15-11.15,11.66-20.01,22.53-11.77,14.57-28.36,36.26-49.77,65.07,11.43.9,22.47,3.53,33.12,7.9Z"/><path class="cls-1" d="M519.57,374.7c1.06-.5,2.16-.53,3.28-.08,1.12.45,1.9,1.21,2.35,2.27.45,1.07.45,2.16,0,3.28-6.95,17.82-17.71,29.59-32.28,35.31-13.23,5.15-28.3,4.82-45.23-1.01-4.15-.78-8.07-2.41-11.77-4.88-1.01-.67-1.62-1.54-1.85-2.61-.22-1.06-.05-2.1.5-3.11.56-1.01,1.37-1.68,2.44-2.02,1.06-.34,2.1-.22,3.11.34,3.36,1.57,6.67,2.97,9.92,4.2,4.04.56,8.13-.11,12.28-2.02,5.49-2.58,10.28-6.92,14.38-13.03,4.09-6.11,6.47-12.41,7.15-18.92.67-6.84-.62-11.6-3.87-14.29-2.13-1.79-4.99-2.13-8.58-1.01-5.04,1.57-11.6,6.75-19.67,15.55-8.07,8.8-13.84,16.56-17.32,23.29l-38.67,84.24c-.78,1.57-2.07,2.35-3.87,2.35-.56,0-1.18-.11-1.85-.34-1.01-.45-1.71-1.24-2.1-2.35-.39-1.12-.36-2.19.08-3.19l37.83-82.22c0-.22.06-.39.17-.5.23-.56.45-1.12.67-1.68l19.17-41.7c.56-1.01,1.37-1.74,2.44-2.19,1.06-.45,2.13-.42,3.2.08,1.06.5,1.82,1.32,2.27,2.44.45,1.12.39,2.19-.17,3.19l-3.53,7.9c7.29-7.06,13.56-11.43,18.83-13.11,6.5-1.91,11.99-1.01,16.48,2.69,2.69,2.13,4.65,5.13,5.88,9,1.23,3.87,1.57,8.1,1.01,12.69-.67,7.4-3.17,14.52-7.48,21.35-4.32,6.84-9.56,12.11-15.72,15.81,7.62.45,14.57-.56,20.85-3.03,12.21-4.71,21.35-14.8,27.41-30.26.45-1.12,1.2-1.93,2.27-2.44Z"/><path class="cls-1" d="M603.97,374.7c1.06-.5,2.16-.53,3.28-.08,1.12.45,1.9,1.21,2.35,2.27.45,1.07.45,2.16,0,3.28-6.95,17.82-17.71,29.59-32.28,35.31-13.23,5.15-28.3,4.82-45.23-1.01-4.15-.78-8.07-2.41-11.77-4.88-1.01-.67-1.62-1.54-1.85-2.61-.22-1.06-.05-2.1.5-3.11.56-1.01,1.37-1.68,2.44-2.02,1.06-.34,2.1-.22,3.11.34,3.36,1.57,6.67,2.97,9.92,4.2,4.04.56,8.13-.11,12.28-2.02,5.49-2.58,10.28-6.92,14.38-13.03,4.09-6.11,6.47-12.41,7.15-18.92.67-6.84-.62-11.6-3.87-14.29-2.13-1.79-4.99-2.13-8.58-1.01-5.04,1.57-11.6,6.75-19.67,15.55-8.07,8.8-13.84,16.56-17.32,23.29l-38.67,84.24c-.78,1.57-2.07,2.35-3.87,2.35-.56,0-1.18-.11-1.85-.34-1.01-.45-1.71-1.24-2.1-2.35-.39-1.12-.36-2.19.08-3.19l37.83-82.22c0-.22.06-.39.17-.5.23-.56.45-1.12.67-1.68l19.17-41.7c.56-1.01,1.37-1.74,2.44-2.19,1.06-.45,2.13-.42,3.2.08,1.06.5,1.82,1.32,2.27,2.44.45,1.12.39,2.19-.17,3.19l-3.53,7.9c7.29-7.06,13.56-11.43,18.83-13.11,6.5-1.91,11.99-1.01,16.48,2.69,2.69,2.13,4.65,5.13,5.88,9,1.23,3.87,1.57,8.1,1.01,12.69-.67,7.4-3.17,14.52-7.48,21.35-4.32,6.84-9.56,12.11-15.72,15.81,7.62.45,14.57-.56,20.85-3.03,12.21-4.71,21.35-14.8,27.41-30.26.45-1.12,1.2-1.93,2.27-2.44Z"/><path class="cls-1" d="M650.97,295.59l-43.04,92.64c-2.58,6.05-3.78,10.93-3.62,14.63s1.35,6.19,3.53,7.48c2.19,1.29,4.99,1.15,8.41-.42,3.42-1.57,6.75-4.54,10-8.91,5.04-6.84,10.48-14.91,16.31-24.21.56-1.01,1.43-1.62,2.61-1.85,1.18-.22,2.27-.03,3.28.59,1.01.62,1.62,1.49,1.85,2.61.22,1.12.06,2.19-.5,3.19-5.94,9.53-11.49,17.77-16.64,24.72-2.92,3.92-6.33,7.17-10.26,9.75s-7.85,3.87-11.77,3.87c-2.8,0-5.38-.67-7.73-2.02-3.36-2.02-5.57-4.99-6.64-8.91-1.06-3.92-1.23-7.9-.5-11.94.73-4.04,2.05-8.13,3.95-12.27l43.04-92.47c.45-1.01,1.23-1.74,2.35-2.19,1.12-.45,2.21-.42,3.28.08,1.06.5,1.79,1.32,2.19,2.44.39,1.12.36,2.19-.08,3.19Z"/><path class="cls-1" d="M709.06,374.7c1.18-.28,2.27-.11,3.28.5,1.01.62,1.65,1.49,1.93,2.61.28,1.12.09,2.19-.59,3.19-7.4,12.33-15.58,21.94-24.55,28.84-8.97,6.89-17.71,10.34-26.23,10.34h-.84c-4.48-.11-8.44-1.21-11.85-3.28-3.42-2.08-6.08-4.96-7.99-8.66-2.69-5.04-3.5-10.93-2.44-17.65,1.07-6.73,3.9-13.62,8.49-20.68,3.81-5.72,7.45-10.34,10.93-13.87s6.53-5.8,9.16-6.81c2.63-1.01,4.82-1.54,6.56-1.6,1.74-.05,3.33.31,4.79,1.09,3.03,1.57,4.99,4.32,5.88,8.24.9,3.92.5,8.07-1.18,12.44-2.35,5.94-6.5,10.31-12.44,13.11-6.05,2.8-13.17,3.31-21.35,1.51-3.36,8.18-3.64,14.96-.84,20.34,2.35,4.6,6.5,7.01,12.44,7.23h.67c7.62,0,15.33-3.42,23.12-10.26,7.79-6.84,14.6-15.07,20.43-24.72.56-1.01,1.43-1.65,2.61-1.93ZM655.51,374.61c-.34.45-.62.95-.84,1.51,3.03.67,5.74.76,8.15.25,2.41-.5,4.37-1.09,5.88-1.77s2.86-1.62,4.04-2.86c1.18-1.23,2.02-2.24,2.52-3.03.5-.78.92-1.62,1.26-2.52.9-2.46,1.23-4.62,1.01-6.47-.23-1.85-.79-3-1.68-3.45-.79-.34-1.93-.22-3.45.34-1.51.56-3.84,2.35-6.98,5.38-3.14,3.03-6.45,7.23-9.92,12.61Z"/><path d="M424.93,620.11c-8.93,0-15.77-3.62-20.35-10.75-2.68-4.28-3.96-9.16-3.83-14.53.13-5.21,1.64-10.45,4.5-15.57,1.1-2.14,2.9-3.56,5.21-4.11.69-.16,1.39-.25,2.08-.25,1.43,0,2.81.36,4.08,1.07,1.91,1.06,3.26,2.75,3.9,4.87.65,2.15.42,4.32-.67,6.28-4.57,8.32-2.12,12.13-1.31,13.39,1.39,2.12,3.31,3.08,6.19,3.08.3,0,.62-.01.93-.03,4.71-.28,9.66-3.04,14.74-8.23,5.48-5.59,10.48-13.24,14.86-22.75l7.38-16.51c-16.37-.48-26.09-5.33-28.92-14.43-1.24-4.17-.65-8.29,1.72-12.3,2.21-3.73,5.69-6.7,10.36-8.83,2.87-1.38,6.21-2.34,9.86-2.85,1.42-.2,2.93-.29,4.51-.29,2.49,0,5.22.25,8.13.73,3.46.58,6.92,1.6,10.32,3.04l27.92-61.86c.86-1.94,2.42-3.42,4.51-4.25,1-.4,2.03-.6,3.05-.6,1.17,0,2.33.26,3.43.79,1.97.93,3.45,2.51,4.27,4.56.86,2.17.76,4.45-.29,6.46l-28.76,63.63c2.01,1.69,3.98,3.54,5.89,5.55,11.5-2.46,22.02-5.62,31.31-9.41,9.78-4,17.79-8.32,23.82-12.86,6.01-4.52,10.81-9.12,14.27-13.68,3.36-4.42,5.61-8.84,6.71-13.12,1.37-5.37,1.09-10.33-.85-15.18-1.95-4.87-5.57-9.26-10.75-13.05-7.01-5.33-16.02-8.89-26.85-10.63-4.71-.75-9.68-1.14-14.76-1.14-6.82,0-14.07.69-21.55,2.05-11.37,2.06-22.12,5.46-31.96,10.11-9.63,4.55-16.76,9.52-21.18,14.77-5.8,6.87-3.62,10.61-.37,13.62,1.74,1.55,2.66,3.59,2.66,5.91,0,2.13-.75,4.12-2.17,5.74-1.55,1.77-3.61,2.71-5.95,2.71-2.14,0-4.13-.75-5.75-2.17l-.09-.08c-5.51-5.12-8.37-11-8.51-17.48-.13-6.33,2.38-12.69,7.46-18.92l.06-.08c5.82-6.78,14.57-13.02,26-18.56,11.27-5.46,23.66-9.45,36.84-11.85,8.36-1.47,16.5-2.21,24.23-2.21,6.25,0,12.38.48,18.24,1.44,13.31,2.17,24.62,6.69,33.62,13.44,7.64,5.82,13.08,12.76,16.2,20.64,3.16,7.98,3.69,16.35,1.59,24.87-3.72,14.64-14.24,27.71-31.28,38.88-13.51,8.79-30.26,15.7-49.88,20.56.56.89,1.61,2.7,3.98,7.17,1.47,2.95,2.67,5.3,3.61,7.05.93,1.76,2.42,4.36,4.44,7.73,2.01,3.37,3.82,6.2,5.38,8.4,1.56,2.21,3.53,4.72,5.84,7.46,2.22,2.64,4.35,4.77,6.33,6.34,1.91,1.51,4.07,2.81,6.43,3.84,2.19.96,4.34,1.5,6.39,1.6h.08c9.78,0,20.36-10.48,31.42-31.14,1.07-2.1,2.81-3.54,5.06-4.18.8-.23,1.6-.34,2.39-.34,1.38,0,2.7.35,3.93,1.03,1.92,1.07,3.27,2.75,3.91,4.87.63,2.1.42,4.28-.59,6.3l-.05.1c-14.14,26.39-29.64,39.77-46.06,39.77h-.17c-3.87,0-7.74-.78-11.51-2.31-3.59-1.46-6.87-3.26-9.75-5.34-2.86-2.07-5.81-4.81-8.79-8.14-2.87-3.21-5.3-6.17-7.22-8.79-1.93-2.64-4.1-5.97-6.43-9.91-2.35-3.95-4.02-6.85-5.12-8.88-1.04-1.91-2.39-4.48-4.13-7.84-1.8-3.27-2.94-5.34-3.42-6.19-1.12-1.71-2.28-3.36-3.46-4.94-1.04.19-2.11.38-3.18.57-2.63.44-5.21.81-7.74,1.12l-11,24.33c-3.01,6.49-6.27,12.26-9.69,17.19-3.51,5.06-6.73,8.9-9.82,11.76-3.07,2.83-6.26,5.19-9.48,7.01-3.3,1.87-6,3.07-8.26,3.67-2.15.57-4.21.92-6.14,1.05h-.13s-1.82,0-1.82,0ZM450.15,537.13c.09.06.19.12.3.18.51.29,2.24,1.05,7.33,1.78,2.27.33,4.88.5,7.78.5,1.47,0,3.03-.04,4.66-.13l1.54-3.33c-3.64-1.51-7.28-2.27-10.85-2.27-3.1,0-5.87.55-8.24,1.65-1.07.51-1.94,1.06-2.52,1.63Z"/><path d="M521.25,433.9c6.06,0,11.93.46,17.6,1.39,12.72,2.08,23.34,6.3,31.86,12.69,7.06,5.38,12.02,11.69,14.88,18.92,2.86,7.23,3.33,14.71,1.43,22.45-3.47,13.68-13.34,25.84-29.59,36.49-14.46,9.42-32.56,16.54-54.31,21.35,1.12,1.46,2.13,2.92,3.03,4.37.67,1.01,2.02,3.42,4.04,7.23,1.46,2.92,2.66,5.27,3.62,7.06.95,1.79,2.46,4.43,4.54,7.9,2.07,3.47,3.92,6.36,5.55,8.66,1.62,2.3,3.64,4.88,6.05,7.73,2.41,2.86,4.71,5.15,6.89,6.89,2.19,1.74,4.62,3.19,7.31,4.37,2.69,1.18,5.32,1.82,7.9,1.93h.17c11.43,0,23.09-11.1,34.97-33.29.56-1.12,1.43-1.85,2.61-2.19.44-.13.87-.19,1.29-.19.7,0,1.36.18,1.99.53,1.01.56,1.68,1.4,2.02,2.52.34,1.12.22,2.24-.34,3.36-13.45,25.11-27.63,37.66-42.54,37.66h-.17c-3.36,0-6.7-.67-10-2.02-3.31-1.34-6.28-2.97-8.91-4.88-2.64-1.91-5.36-4.43-8.16-7.57-2.8-3.14-5.13-5.97-6.98-8.49-1.85-2.52-3.93-5.72-6.22-9.58-2.3-3.87-3.98-6.78-5.04-8.74-1.07-1.96-2.44-4.57-4.12-7.82-1.91-3.47-3.08-5.6-3.53-6.39-1.68-2.58-3.42-4.99-5.21-7.23-1.79.34-3.64.67-5.55,1.01-3.36.56-6.62,1.01-9.75,1.34l-11.94,26.4c-2.92,6.28-6.03,11.8-9.33,16.56-3.31,4.76-6.39,8.46-9.25,11.1-2.86,2.63-5.77,4.79-8.74,6.47-2.97,1.68-5.41,2.77-7.31,3.28-1.91.5-3.7.81-5.38.92h-1.68c-7.51,0-13.17-2.97-16.98-8.91-2.24-3.59-3.31-7.68-3.2-12.27.11-4.6,1.46-9.19,4.04-13.79.56-1.12,1.43-1.82,2.61-2.1.39-.09.78-.14,1.15-.14.75,0,1.46.19,2.13.56,1.01.56,1.68,1.4,2.02,2.52.34,1.12.22,2.19-.34,3.19-3.81,6.95-4.2,12.78-1.18,17.49,2.15,3.28,5.34,4.92,9.55,4.92.39,0,.8-.01,1.21-.04,5.72-.34,11.49-3.48,17.32-9.42,5.83-5.94,11.04-13.9,15.64-23.88l9.92-22.19c-1.16.04-2.29.05-3.39.05-16.18,0-25.48-3.89-27.89-11.66-.9-3.03-.45-6.05,1.34-9.08s4.65-5.44,8.58-7.23c2.58-1.23,5.49-2.07,8.74-2.52,1.24-.17,2.56-.26,3.96-.26,2.28,0,4.77.23,7.47.68,4.37.73,8.69,2.21,12.95,4.46l29.59-65.57c.45-1.01,1.23-1.74,2.35-2.19.53-.21,1.05-.32,1.56-.32.58,0,1.15.13,1.71.4,1.06.5,1.82,1.32,2.27,2.44.45,1.12.39,2.19-.17,3.2l-30.1,66.58c3.25,2.47,6.39,5.38,9.42,8.74,12.67-2.58,24.07-5.94,34.22-10.09,10.14-4.15,18.38-8.6,24.71-13.37,6.33-4.76,11.35-9.58,15.05-14.46s6.16-9.72,7.4-14.54c1.57-6.16,1.23-12.05-1.01-17.65-2.24-5.6-6.28-10.54-12.11-14.8-7.51-5.72-17.04-9.5-28.58-11.35-4.95-.79-10.08-1.19-15.4-1.19-7.09,0-14.52.71-22.27,2.11-11.77,2.13-22.76,5.61-32.96,10.42-10.2,4.82-17.71,10.09-22.53,15.8-6.05,7.17-6.05,13.56,0,19.17.9.79,1.35,1.76,1.35,2.94s-.39,2.21-1.18,3.11c-.79.9-1.77,1.34-2.94,1.34s-2.21-.39-3.11-1.18c-4.71-4.37-7.12-9.25-7.23-14.63-.11-5.38,2.07-10.82,6.56-16.31,5.49-6.39,13.73-12.25,24.71-17.57,10.98-5.32,22.92-9.16,35.81-11.52,8.14-1.43,15.98-2.14,23.51-2.14M465.57,543.59c2.26,0,4.69-.09,7.28-.28l4.2-9.08c-5.38-2.91-10.76-4.37-16.14-4.37-3.7,0-7.01.67-9.92,2.02-1.91.9-3.34,1.93-4.29,3.11-.95,1.18-1.26,2.16-.92,2.94.22,1.01,1.12,1.96,2.69,2.86,1.57.9,4.48,1.65,8.74,2.27,2.46.36,5.25.54,8.35.54M482.77,542.3c1.35-.22,2.74-.45,4.2-.67h.17c-1.01-.9-2.02-1.74-3.03-2.52l-1.35,3.19M521.25,425.9c-7.96,0-16.34.76-24.89,2.26h-.03s-.03,0-.03,0c-13.54,2.47-26.28,6.57-37.87,12.19-11.93,5.78-21.11,12.36-27.29,19.56l-.07.08-.06.08c-5.7,6.98-8.51,14.23-8.36,21.54.16,7.6,3.45,14.44,9.78,20.32l.09.08.09.08c2.36,2.07,5.26,3.16,8.38,3.16,3.48,0,6.67-1.45,8.97-4.08,2.06-2.36,3.15-5.26,3.15-8.37,0-3.43-1.41-6.57-3.97-8.87-1.99-1.84-3.37-3.21.74-8.08,4.05-4.81,10.72-9.43,19.83-13.73,9.52-4.5,19.94-7.79,30.96-9.79,3.44-.62,6.82-1.1,10.13-1.43-.42.12-.83.26-1.25.43-3.07,1.23-5.38,3.42-6.68,6.34l-26.36,58.41c-2.5-.85-5.03-1.49-7.56-1.91-3.13-.52-6.09-.78-8.79-.78-1.76,0-3.46.11-5.05.33-4.04.56-7.75,1.63-11.04,3.2-5.39,2.47-9.45,5.97-12.07,10.4-2.93,4.94-3.66,10.27-2.13,15.43v.05s.03.05.03.05c3,9.68,11.98,15.33,26.74,16.86l-5.03,11.26c-4.19,9.07-8.92,16.33-14.06,21.58-4.37,4.45-8.43,6.82-12.08,7.03h-.04s-.04,0-.04,0c-.23.02-.45.02-.65.02-1.83,0-2.36-.55-2.84-1.28-.51-.8-1.89-3.13,1.49-9.28,1.58-2.85,1.93-6.18.98-9.34-.94-3.14-2.95-5.64-5.8-7.22-1.85-1.03-3.88-1.56-6-1.56-1,0-2.01.12-3.01.36-3.4.8-6.16,2.97-7.8,6.1-3.16,5.68-4.84,11.52-4.98,17.37-.15,6.16,1.33,11.79,4.41,16.71l.02.04.02.04c5.28,8.24,13.48,12.59,23.72,12.59h1.95l.27-.02c2.18-.15,4.5-.54,6.89-1.17,2.6-.69,5.61-2.01,9.21-4.05,3.49-1.97,6.93-4.51,10.22-7.55,3.32-3.06,6.72-7.12,10.4-12.42,3.56-5.13,6.92-11.1,10.02-17.75l.02-.04.02-.04,10.08-22.3c1.86-.25,3.74-.54,5.64-.85h.04s.04-.01.04-.01c.25-.04.49-.09.74-.13.61.86,1.21,1.74,1.8,2.64.58,1.03,1.98,3.58,3.31,5.99,1.74,3.37,3.1,5.95,4.15,7.88,1.12,2.06,2.82,5.01,5.2,9.01,2.4,4.05,4.64,7.49,6.65,10.23,2,2.72,4.51,5.78,7.46,9.09,3.17,3.55,6.35,6.49,9.44,8.72,3.14,2.27,6.7,4.22,10.58,5.8,4.25,1.73,8.63,2.61,13.02,2.61h.17c9.43,0,18.55-3.84,27.12-11.43,7.77-6.88,15.33-17.13,22.47-30.46l.05-.1.05-.1c1.48-2.95,1.77-6.15.85-9.24-.94-3.14-2.95-5.63-5.79-7.22-1.83-1.02-3.81-1.53-5.88-1.53-1.16,0-2.33.17-3.48.5-3.28.94-5.94,3.13-7.5,6.17-10.01,18.68-19.9,28.97-27.85,29-1.53-.09-3.18-.51-4.89-1.26-2.04-.89-3.91-2.01-5.55-3.31-1.76-1.4-3.7-3.35-5.75-5.78-2.25-2.67-4.15-5.09-5.64-7.2-1.5-2.12-3.25-4.86-5.21-8.14-1.99-3.32-3.44-5.86-4.34-7.55-.93-1.74-2.11-4.05-3.53-6.89l-.04-.09-.05-.09c-.55-1.05-1.04-1.95-1.47-2.74,17.89-4.88,33.32-11.5,46.01-19.77,17.92-11.74,29.01-25.61,32.98-41.22v-.03s.01-.03.01-.03c2.3-9.35,1.71-18.53-1.76-27.3-3.39-8.57-9.26-16.08-17.47-22.34l-.02-.02-.02-.02c-9.52-7.14-21.42-11.91-35.37-14.19-6.07-.99-12.42-1.49-18.89-1.49h0ZM515.54,450.51c2.03-.12,4.02-.18,5.98-.18,4.87,0,9.62.37,14.13,1.09,10.17,1.63,18.59,4.93,25,9.82l.06.05.06.05c4.64,3.39,7.71,7.09,9.4,11.31,1.61,4.03,1.83,8.19.68,12.71-.96,3.75-2.99,7.68-6.02,11.68-3.23,4.26-7.77,8.6-13.48,12.9-5.76,4.33-13.47,8.49-22.93,12.35-8.49,3.47-18.05,6.4-28.48,8.74-.77-.76-1.55-1.5-2.33-2.22l27.5-60.83c1.55-3.03,1.69-6.45.41-9.67-1.21-3.02-3.38-5.33-6.28-6.71-1.19-.56-2.43-.93-3.7-1.08h0Z"/><path d="M614.42,584.97c-2.73,0-5.32-.49-7.69-1.46-4.02-1.54-7.46-4.46-10.21-8.68-2.8-4.31-3.92-10.23-3.42-18.11.26-6.57,2.48-14.22,6.62-22.73,4.09-8.41,9.76-16.4,16.86-23.73,1.69-1.69,3.75-2.56,5.99-2.56,1.7,0,3.26.47,4.59,1.37,4.45-2.19,8.74-3.3,12.78-3.3,3.73,0,7.28.93,10.56,2.78,3.23,1.83,5.82,4.47,7.68,7.87,1.87,3.39,2.75,7.7,2.68,13.16-.06,5.18-1.37,10.92-3.89,17.05-.15.4-.31.8-.46,1.19.23.04.46.06.69.09.61.08,1.16.11,1.69.11,1.52,0,3.08-.28,4.63-.83,2.18-.77,4.27-2.05,6.22-3.82,2-1.81,3.75-4.1,5.21-6.82l.09-.17.11-.16c1.18-1.78,2.87-3.03,4.87-3.63.76-.23,1.54-.35,2.31-.35,1.44,0,2.83.4,4.11,1.18,1.85,1.13,3.15,2.81,3.77,4.87.67,2.24.35,4.45-.92,6.43-3.8,6.71-8.74,11.87-14.69,15.33-5.16,3.01-10.61,4.54-16.19,4.54-1,0-2.01-.05-3.02-.15-2.47-.26-4.84-.85-7.11-1.75-1.13,1.63-2.35,3.28-3.64,4.94-4.24,5.33-9.03,9.56-14.25,12.59-5.42,3.15-10.79,4.75-15.96,4.75ZM612.64,568.15c.48.16,1.04.25,1.67.25,1.66,0,3.75-.56,6.21-1.67,3.88-1.75,7.62-4.86,11.12-9.27,1.26-1.61,2.42-3.22,3.46-4.8-1.97-2.76-3.47-5.86-4.46-9.26-.8-2.16-.64-4.43.47-6.41,1.06-1.92,2.75-3.27,4.87-3.9.92-.26,1.81-.39,2.68-.39.45,0,.89.03,1.33.1,1.36.21,2.62.79,3.68,1.69.59-2.39.83-4.56.72-6.51-.14-2.6-.82-4.3-2.01-5.06-.64-.32-1.37-.48-2.23-.48-1.76,0-3.97.65-6.55,1.93-4.61,2.28-9.3,6.63-13.94,12.91-1.22,1.63-2.8,2.7-4.58,3.13-1.63,3.2-2.91,6.25-3.83,9.09-1.06,3.29-1.65,5.97-1.74,7.95-.23,4.21.12,9.45,3.13,10.7Z"/><path d="M639.95,509.77c3.05,0,5.92.75,8.61,2.26,2.58,1.46,4.62,3.56,6.14,6.31,1.51,2.75,2.24,6.47,2.19,11.18-.06,4.71-1.26,9.92-3.62,15.64-.67,1.79-1.4,3.48-2.19,5.04,1.68.9,3.59,1.46,5.72,1.68.7.09,1.4.13,2.11.13,1.99,0,3.97-.35,5.96-1.06,2.69-.95,5.21-2.49,7.57-4.62,2.35-2.13,4.37-4.76,6.05-7.9.67-1.01,1.57-1.68,2.69-2.02.39-.12.78-.18,1.16-.18.7,0,1.38.2,2.03.6,1.01.62,1.68,1.49,2.02,2.61.34,1.12.17,2.19-.51,3.19-3.47,6.17-7.9,10.82-13.28,13.96-4.56,2.66-9.29,4-14.18,4-.87,0-1.75-.04-2.64-.13-3.14-.34-6.11-1.29-8.91-2.86-1.57,2.47-3.36,4.99-5.38,7.57-3.93,4.93-8.3,8.8-13.12,11.6-4.82,2.8-9.47,4.2-13.96,4.2-2.24,0-4.32-.39-6.22-1.18-3.25-1.23-6.03-3.61-8.32-7.15-2.29-3.53-3.22-8.77-2.77-15.72.23-6.05,2.3-13.11,6.22-21.19,3.92-8.07,9.3-15.64,16.14-22.7.9-.9,1.93-1.34,3.11-1.34s2.16.39,2.94,1.18c.34.34.61.73.84,1.18,4.87-2.85,9.4-4.28,13.59-4.28M613.23,536.63c-.21,0-.43-.02-.66-.05-2.24,4.15-3.95,8.04-5.13,11.69-1.18,3.64-1.82,6.64-1.93,9-.45,8.07,1.46,12.95,5.72,14.63.93.34,1.96.5,3.08.5,2.24,0,4.86-.67,7.85-2.02,4.48-2.02,8.69-5.49,12.61-10.42,2.02-2.58,3.75-5.1,5.21-7.57-2.58-2.91-4.43-6.33-5.55-10.26-.45-1.12-.39-2.19.17-3.19.56-1.01,1.4-1.68,2.52-2.02.52-.15,1.03-.22,1.53-.22.25,0,.49.02.74.06.73.11,1.37.45,1.93,1.01.56.56.95,1.18,1.18,1.85.45,1.57,1.12,3.03,2.02,4.37.34-.67.62-1.35.84-2.02,2.24-5.38,3.25-10.11,3.03-14.21-.22-4.09-1.57-6.86-4.04-8.32-1.24-.66-2.64-1-4.2-1-2.4,0-5.17.78-8.32,2.34-5.21,2.58-10.34,7.29-15.38,14.12-.86,1.15-1.93,1.73-3.21,1.73M639.95,501.77c-4.07,0-8.31.95-12.66,2.84-1.46-.6-3.04-.91-4.71-.91-3.32,0-6.35,1.27-8.77,3.69l-.05.05-.05.05c-7.4,7.64-13.31,15.97-17.59,24.77-4.43,9.12-6.73,17.06-7.02,24.27-.55,8.74.78,15.45,4.06,20.49,3.21,4.93,7.28,8.37,12.09,10.23,2.84,1.15,5.92,1.74,9.16,1.74,5.89,0,11.94-1.78,17.97-5.29,5.66-3.29,10.83-7.84,15.36-13.54l.02-.02.02-.02c.7-.89,1.37-1.78,2.03-2.67,1.67.47,3.37.8,5.11.98h.04s.04,0,.04,0c1.13.11,2.28.17,3.4.17,6.3,0,12.43-1.71,18.21-5.09,6.53-3.81,11.95-9.44,16.1-16.73,1.84-2.93,2.31-6.33,1.32-9.63-.91-3.03-2.81-5.49-5.5-7.13-1.91-1.17-4.05-1.78-6.21-1.78-1.16,0-2.32.17-3.46.52-2.9.87-5.34,2.68-7.05,5.25l-.21.32-.18.34c-1.24,2.31-2.71,4.25-4.37,5.75-1.5,1.36-3.01,2.31-4.61,2.92,1.56-4.83,2.37-9.42,2.42-13.7.07-6.18-.97-11.13-3.18-15.14-2.23-4.05-5.33-7.22-9.21-9.41-3.91-2.19-8.12-3.3-12.54-3.3h0ZM617.93,543.66c1.89-.83,3.56-2.16,4.9-3.96l.02-.03.02-.03c4.26-5.77,8.46-9.71,12.5-11.7,2.73-1.35,4.23-1.51,4.76-1.51.1.33.21.88.26,1.76.01.2.02.41.02.62-.6-.08-1.18-.12-1.76-.12-1.24,0-2.5.18-3.73.53h-.05s-.05.03-.05.03c-3.14.94-5.64,2.94-7.22,5.8-1.66,2.97-1.93,6.37-.77,9.6.84,2.84,1.99,5.5,3.45,7.95-.57.79-1.17,1.59-1.79,2.39-3.1,3.89-6.33,6.61-9.61,8.09-2.54,1.14-3.95,1.31-4.56,1.31-.04,0-.07,0-.1,0-.26-.5-.96-2.26-.71-6.69v-.03s0-.03,0-.03c.05-1.12.37-3.23,1.56-6.92.72-2.21,1.68-4.58,2.88-7.06h0Z"/><path d="M688.06,585.31c-3.49,0-6.76-.86-9.72-2.54-4.34-2.6-7.18-6.4-8.52-11.34-1.22-4.48-1.41-9.09-.58-13.7.79-4.35,2.22-8.8,4.25-13.23l43.05-92.49c.84-1.9,2.4-3.38,4.49-4.21,1-.4,2.03-.6,3.05-.6,1.17,0,2.33.26,3.43.79,2.03.96,3.5,2.59,4.25,4.72.73,2.09.66,4.21-.2,6.14l-43.05,92.66c-2.88,6.77-3.37,10.71-3.27,12.82.07,1.54.4,3.53,1.57,4.22.37.22.78.32,1.3.32.9,0,2.08-.32,3.4-.93,2.78-1.28,5.63-3.86,8.46-7.66,4.94-6.69,10.35-14.72,16.08-23.87,1.15-2,2.97-3.28,5.29-3.73.57-.11,1.13-.16,1.68-.16,1.57,0,3.07.42,4.44,1.26,1.97,1.2,3.24,3.01,3.69,5.23.41,2.04.09,4.09-.93,5.92l-.1.17c-5.97,9.57-11.63,17.98-16.83,24.98-3.19,4.29-6.98,7.89-11.27,10.71-4.57,3-9.27,4.52-13.97,4.52Z"/><path d="M724.1,451.19c.58,0,1.15.13,1.72.4,1.06.5,1.79,1.32,2.19,2.44.39,1.12.36,2.19-.08,3.19l-43.04,92.64c-2.58,6.05-3.78,10.93-3.62,14.63s1.35,6.19,3.53,7.48c.99.58,2.1.87,3.33.87,1.5,0,3.19-.43,5.07-1.29,3.42-1.57,6.75-4.54,10-8.91,5.04-6.84,10.48-14.91,16.31-24.21.56-1.01,1.43-1.62,2.61-1.85.31-.06.62-.09.92-.09.83,0,1.62.23,2.36.68,1.01.62,1.62,1.49,1.85,2.61.22,1.12.06,2.19-.5,3.19-5.94,9.53-11.49,17.77-16.64,24.72-2.92,3.92-6.33,7.17-10.26,9.75s-7.85,3.87-11.77,3.87c-2.8,0-5.38-.67-7.73-2.02-3.36-2.02-5.57-4.99-6.64-8.91-1.06-3.92-1.23-7.9-.5-11.94.73-4.04,2.05-8.13,3.95-12.27l43.04-92.47c.45-1.01,1.23-1.74,2.35-2.19.53-.21,1.05-.32,1.56-.32M724.1,443.19h0c-1.53,0-3.05.3-4.53.88-3.06,1.23-5.36,3.4-6.67,6.29l-43.02,92.42c-2.19,4.77-3.72,9.55-4.57,14.23-.94,5.2-.72,10.4.66,15.46,1.6,5.88,5.14,10.61,10.24,13.68l.07.04.08.04c3.57,2.04,7.5,3.07,11.7,3.07,5.49,0,10.93-1.74,16.16-5.18,4.69-3.08,8.82-7.01,12.29-11.67,5.26-7.09,10.99-15.59,17.01-25.25l.11-.17.1-.18c1.49-2.67,1.95-5.66,1.36-8.65-.66-3.3-2.62-6.09-5.52-7.86-1.99-1.21-4.24-1.85-6.53-1.85-.8,0-1.61.08-2.41.23-3.44.66-6.26,2.64-7.98,5.59-5.67,9.04-11.01,16.97-15.88,23.58-2.38,3.19-4.77,5.41-6.9,6.39-.22.1-.41.18-.58.25-.01-.12-.02-.26-.03-.4-.06-1.39.24-4.65,2.93-11.01l42.99-92.52.03-.07.03-.07c1.27-2.88,1.38-6.01.32-9.06-1.11-3.14-3.34-5.63-6.31-7.04-1.64-.78-3.37-1.17-5.14-1.17h0Z"/><path d="M728.59,585.31c-3.49,0-6.76-.86-9.72-2.54-4.34-2.6-7.18-6.4-8.52-11.34-1.22-4.48-1.41-9.09-.58-13.7.79-4.35,2.22-8.8,4.25-13.23l43.05-92.49c.84-1.9,2.4-3.38,4.49-4.21,1-.4,2.03-.6,3.05-.6,1.17,0,2.33.26,3.43.79,2.03.96,3.5,2.59,4.25,4.72.73,2.09.66,4.21-.2,6.14l-43.05,92.66c-2.88,6.77-3.37,10.71-3.27,12.82.07,1.54.4,3.53,1.57,4.22.37.22.78.32,1.3.32.9,0,2.08-.32,3.4-.93,2.78-1.28,5.63-3.86,8.46-7.66,4.94-6.69,10.35-14.72,16.08-23.87,1.15-2,2.97-3.28,5.29-3.73.57-.11,1.13-.16,1.68-.16,1.57,0,3.07.42,4.44,1.26,1.97,1.2,3.24,3.01,3.69,5.23.41,2.04.09,4.09-.93,5.92l-.1.17c-5.97,9.57-11.63,17.98-16.83,24.98-3.19,4.29-6.98,7.89-11.27,10.71-4.57,3-9.27,4.52-13.97,4.52Z"/><path d="M764.62,451.19c.58,0,1.15.13,1.72.4,1.06.5,1.79,1.32,2.19,2.44.39,1.12.36,2.19-.08,3.19l-43.04,92.64c-2.58,6.05-3.78,10.93-3.62,14.63s1.35,6.19,3.53,7.48c.99.58,2.1.87,3.33.87,1.5,0,3.19-.43,5.07-1.29,3.42-1.57,6.75-4.54,10-8.91,5.04-6.84,10.48-14.91,16.31-24.21.56-1.01,1.43-1.62,2.61-1.85.31-.06.62-.09.92-.09.83,0,1.62.23,2.36.68,1.01.62,1.62,1.49,1.85,2.61.22,1.12.06,2.19-.5,3.19-5.94,9.53-11.49,17.77-16.64,24.72-2.92,3.92-6.33,7.17-10.26,9.75s-7.85,3.87-11.77,3.87c-2.8,0-5.38-.67-7.73-2.02-3.36-2.02-5.57-4.99-6.64-8.91-1.06-3.92-1.23-7.9-.5-11.94.73-4.04,2.05-8.13,3.95-12.27l43.04-92.47c.45-1.01,1.23-1.74,2.35-2.19.53-.21,1.05-.32,1.56-.32M764.62,443.19h0c-1.53,0-3.05.3-4.53.88-3.06,1.23-5.36,3.4-6.67,6.29l-43.02,92.42c-2.19,4.77-3.72,9.55-4.57,14.23-.94,5.2-.72,10.4.66,15.46,1.6,5.88,5.14,10.61,10.24,13.68l.07.04.08.04c3.57,2.04,7.5,3.07,11.7,3.07,5.49,0,10.93-1.74,16.16-5.18,4.69-3.08,8.82-7.01,12.29-11.67,5.26-7.09,10.99-15.59,17.01-25.25l.11-.17.1-.18c1.49-2.67,1.95-5.66,1.36-8.65-.66-3.3-2.62-6.09-5.52-7.86-1.99-1.21-4.24-1.85-6.53-1.85-.8,0-1.61.08-2.41.23-3.44.66-6.26,2.64-7.98,5.59-5.67,9.04-11.01,16.97-15.88,23.58-2.38,3.19-4.77,5.41-6.9,6.39-.22.1-.41.18-.58.25-.01-.12-.02-.26-.03-.4-.06-1.39.24-4.65,2.93-11.01l42.99-92.52.03-.07.03-.07c1.27-2.88,1.38-6.01.32-9.06-1.11-3.14-3.34-5.63-6.31-7.04-1.64-.78-3.37-1.17-5.14-1.17h0Z"/><path class="cls-1" d="M589.79,567.86c1.18-.34,2.27-.22,3.28.34,1.01.56,1.68,1.4,2.02,2.52.34,1.12.22,2.24-.34,3.36-13.45,25.11-27.63,37.66-42.54,37.66h-.17c-3.36,0-6.7-.67-10-2.02-3.31-1.34-6.28-2.97-8.91-4.88-2.64-1.91-5.36-4.43-8.16-7.57-2.8-3.14-5.13-5.97-6.98-8.49-1.85-2.52-3.93-5.72-6.22-9.58-2.3-3.87-3.98-6.78-5.04-8.74-1.07-1.96-2.44-4.57-4.12-7.82-1.91-3.47-3.08-5.6-3.53-6.39-1.68-2.58-3.42-4.99-5.21-7.23-1.79.34-3.64.67-5.55,1.01-3.36.56-6.62,1.01-9.75,1.34l-11.94,26.4c-2.92,6.28-6.03,11.8-9.33,16.56-3.31,4.76-6.39,8.46-9.25,11.1-2.86,2.63-5.77,4.79-8.74,6.47-2.97,1.68-5.41,2.77-7.31,3.28-1.91.5-3.7.81-5.38.92h-1.68c-7.51,0-13.17-2.97-16.98-8.91-2.24-3.59-3.31-7.68-3.2-12.27.11-4.6,1.46-9.19,4.04-13.79.56-1.12,1.43-1.82,2.61-2.1,1.18-.28,2.27-.14,3.28.42,1.01.56,1.68,1.4,2.02,2.52.34,1.12.22,2.19-.34,3.19-3.81,6.95-4.2,12.78-1.18,17.49,2.36,3.59,5.94,5.21,10.76,4.88,5.72-.34,11.49-3.48,17.32-9.42,5.83-5.94,11.04-13.9,15.64-23.88l9.92-22.19c-18.27.56-28.7-3.3-31.27-11.6-.9-3.03-.45-6.05,1.34-9.08s4.65-5.44,8.58-7.23c2.58-1.23,5.49-2.07,8.74-2.52,3.25-.45,7.06-.31,11.43.42,4.37.73,8.69,2.21,12.95,4.46l29.59-65.57c.45-1.01,1.23-1.74,2.35-2.19,1.12-.45,2.21-.42,3.28.08,1.06.5,1.82,1.32,2.27,2.44.45,1.12.39,2.19-.17,3.2l-30.1,66.58c3.25,2.47,6.39,5.38,9.42,8.74,12.67-2.58,24.07-5.94,34.22-10.09,10.14-4.15,18.38-8.6,24.71-13.37,6.33-4.76,11.35-9.58,15.05-14.46s6.16-9.72,7.4-14.54c1.57-6.16,1.23-12.05-1.01-17.65-2.24-5.6-6.28-10.54-12.11-14.8-7.51-5.72-17.04-9.5-28.58-11.35-11.55-1.85-24.1-1.54-37.66.92-11.77,2.13-22.76,5.61-32.96,10.42-10.2,4.82-17.71,10.09-22.53,15.8-6.05,7.17-6.05,13.56,0,19.17.9.79,1.35,1.76,1.35,2.94s-.39,2.21-1.18,3.11c-.79.9-1.77,1.34-2.94,1.34s-2.21-.39-3.11-1.18c-4.71-4.37-7.12-9.25-7.23-14.63-.11-5.38,2.07-10.82,6.56-16.31,5.49-6.39,13.73-12.25,24.71-17.57,10.98-5.32,22.92-9.16,35.81-11.52,14.68-2.58,28.38-2.83,41.11-.76,12.72,2.08,23.34,6.3,31.86,12.69,7.06,5.38,12.02,11.69,14.88,18.92,2.86,7.23,3.33,14.71,1.43,22.45-3.47,13.68-13.34,25.84-29.59,36.49-14.46,9.42-32.56,16.54-54.31,21.35,1.12,1.46,2.13,2.92,3.03,4.37.67,1.01,2.02,3.42,4.04,7.23,1.46,2.92,2.66,5.27,3.62,7.06.95,1.79,2.46,4.43,4.54,7.9,2.07,3.47,3.92,6.36,5.55,8.66,1.62,2.3,3.64,4.88,6.05,7.73,2.41,2.86,4.71,5.15,6.89,6.89,2.19,1.74,4.62,3.19,7.31,4.37,2.69,1.18,5.32,1.82,7.9,1.93h.17c11.43,0,23.09-11.1,34.97-33.29.56-1.12,1.43-1.85,2.61-2.19ZM472.85,543.31l4.2-9.08c-5.38-2.91-10.76-4.37-16.14-4.37-3.7,0-7.01.67-9.92,2.02-1.91.9-3.34,1.93-4.29,3.11-.95,1.18-1.26,2.16-.92,2.94.22,1.01,1.12,1.96,2.69,2.86,1.57.9,4.48,1.65,8.74,2.27,4.26.62,9.47.7,15.64.25ZM486.97,541.63h.17c-1.01-.9-2.02-1.74-3.03-2.52l-1.35,3.19c1.35-.22,2.74-.45,4.2-.67Z"/><path class="cls-1" d="M681.17,536.42c1.12-.34,2.19-.19,3.2.42,1.01.62,1.68,1.49,2.02,2.61.34,1.12.17,2.19-.51,3.19-3.47,6.17-7.9,10.82-13.28,13.96-5.38,3.14-10.99,4.43-16.81,3.87-3.14-.34-6.11-1.29-8.91-2.86-1.57,2.47-3.36,4.99-5.38,7.57-3.93,4.93-8.3,8.8-13.12,11.6-4.82,2.8-9.47,4.2-13.96,4.2-2.24,0-4.32-.39-6.22-1.18-3.25-1.23-6.03-3.61-8.32-7.15-2.29-3.53-3.22-8.77-2.77-15.72.23-6.05,2.3-13.11,6.22-21.19,3.92-8.07,9.3-15.64,16.14-22.7.9-.9,1.93-1.34,3.11-1.34s2.16.39,2.94,1.18c.34.34.61.73.84,1.18,8.41-4.93,15.8-5.6,22.19-2.02,2.58,1.46,4.62,3.56,6.14,6.31,1.51,2.75,2.24,6.47,2.19,11.18-.06,4.71-1.26,9.92-3.62,15.64-.67,1.79-1.4,3.48-2.19,5.04,1.68.9,3.59,1.46,5.72,1.68,2.69.34,5.38.03,8.07-.92,2.69-.95,5.21-2.49,7.57-4.62,2.35-2.13,4.37-4.76,6.05-7.9.67-1.01,1.57-1.68,2.69-2.02ZM645.36,541.96c2.24-5.38,3.25-10.11,3.03-14.21-.22-4.09-1.57-6.86-4.04-8.32-3.14-1.68-7.31-1.23-12.53,1.34-5.21,2.58-10.34,7.29-15.38,14.12-1.01,1.34-2.3,1.91-3.87,1.68-2.24,4.15-3.95,8.04-5.13,11.69-1.18,3.64-1.82,6.64-1.93,9-.45,8.07,1.46,12.95,5.72,14.63,2.8,1.01,6.45.5,10.93-1.51,4.48-2.02,8.69-5.49,12.61-10.42,2.02-2.58,3.75-5.1,5.21-7.57-2.58-2.91-4.43-6.33-5.55-10.26-.45-1.12-.39-2.19.17-3.19.56-1.01,1.4-1.68,2.52-2.02.78-.22,1.54-.28,2.27-.17.73.11,1.37.45,1.93,1.01.56.56.95,1.18,1.18,1.85.45,1.57,1.12,3.03,2.02,4.37.34-.67.62-1.35.84-2.02Z"/><path class="cls-1" d="M727.91,457.22l-43.04,92.64c-2.58,6.05-3.78,10.93-3.62,14.63s1.35,6.19,3.53,7.48c2.19,1.29,4.99,1.15,8.41-.42,3.42-1.57,6.75-4.54,10-8.91,5.04-6.84,10.48-14.91,16.31-24.21.56-1.01,1.43-1.62,2.61-1.85,1.18-.22,2.27-.03,3.28.59,1.01.62,1.62,1.49,1.85,2.61.22,1.12.06,2.19-.5,3.19-5.94,9.53-11.49,17.77-16.64,24.72-2.92,3.92-6.33,7.17-10.26,9.75s-7.85,3.87-11.77,3.87c-2.8,0-5.38-.67-7.73-2.02-3.36-2.02-5.57-4.99-6.64-8.91-1.06-3.92-1.23-7.9-.5-11.94.73-4.04,2.05-8.13,3.95-12.27l43.04-92.47c.45-1.01,1.23-1.74,2.35-2.19,1.12-.45,2.21-.42,3.28.08,1.06.5,1.79,1.32,2.19,2.44.39,1.12.36,2.19-.08,3.19Z"/><path class="cls-1" d="M768.44,457.22l-43.04,92.64c-2.58,6.05-3.78,10.93-3.62,14.63s1.35,6.19,3.53,7.48c2.19,1.29,4.99,1.15,8.41-.42,3.42-1.57,6.75-4.54,10-8.91,5.04-6.84,10.48-14.91,16.31-24.21.56-1.01,1.43-1.62,2.61-1.85,1.18-.22,2.27-.03,3.28.59,1.01.62,1.62,1.49,1.85,2.61.22,1.12.06,2.19-.5,3.19-5.94,9.53-11.49,17.77-16.64,24.72-2.92,3.92-6.33,7.17-10.26,9.75s-7.85,3.87-11.77,3.87c-2.8,0-5.38-.67-7.73-2.02-3.36-2.02-5.57-4.99-6.64-8.91-1.06-3.92-1.23-7.9-.5-11.94.73-4.04,2.05-8.13,3.95-12.27l43.04-92.47c.45-1.01,1.23-1.74,2.35-2.19,1.12-.45,2.21-.42,3.28.08,1.06.5,1.79,1.32,2.19,2.44.39,1.12.36,2.19-.08,3.19Z"/></svg>